<svg width="646" height="517" viewBox="0 0 646 517" fill="none" xmlns="http://www.w3.org/2000/svg">
<g clip-path="url(#clip0)">
<path opacity="0.1" d="M635.404 235.673C635.288 236.407 635.172 237.14 635.044 237.874C630.909 262.852 624.157 286.934 614.117 309.044C613.788 309.777 613.453 310.511 613.111 311.244C606.668 325.185 598.756 338.287 589.531 350.29C584.529 356.768 579.077 362.917 572.593 367.358C563.505 373.579 552.88 376.107 542.438 378.177C531.587 380.332 520.596 382.106 509.629 384.071C505.742 384.752 501.879 385.466 498.041 386.213C487.446 388.269 476.931 390.647 466.666 393.797C453.973 397.726 441.658 402.789 430.07 409.96C429.142 410.528 428.226 411.111 427.319 411.709C426.41 412.298 425.489 412.901 424.605 413.516C423.72 414.132 422.83 414.741 421.951 415.363L420.597 416.346C420.152 416.66 419.713 417.001 419.274 417.315C417.968 418.271 416.681 419.28 415.395 420.249L415.346 420.288C414.498 420.943 413.656 421.598 412.814 422.253C408.063 426.032 403.415 429.988 398.786 433.956L395.864 436.465C394.356 437.748 392.847 439.03 391.339 440.309C390.454 441.062 389.558 441.809 388.667 442.556C388.021 443.099 387.38 443.643 386.721 444.18C383.422 446.911 380.079 449.583 376.67 452.137C375.859 452.746 375.035 453.355 374.23 453.951C367.405 458.964 360.146 463.258 352.553 466.774L352.455 466.82C348.716 468.532 344.867 469.957 340.94 471.084C338.689 471.739 336.438 472.256 334.157 472.662C328.08 473.791 321.877 473.906 315.768 473.003C303.758 471.176 292.505 465.144 280.526 463.127C255.811 459.007 231.81 472.295 208.553 482.728C202.861 485.287 197.105 487.688 191.286 489.932C187.431 491.426 183.558 492.847 179.667 494.196C155.96 502.429 131.531 508.041 106.762 510.942C96.6488 512.128 86.103 512.691 75.8073 511.839C71.9193 511.533 68.0504 510.993 64.2186 510.222C51.1843 507.602 39.0161 502.042 29.2144 491.884C21.0718 483.573 15.3262 472.708 10.9469 461.371C9.18619 456.817 7.63492 452.159 6.29307 447.395C4.18392 439.93 2.59974 432.305 1.55388 424.585C1.316 422.842 1.10252 421.094 0.943942 419.345C0.626776 416.346 0.390932 413.333 0.236416 410.307C-0.617566 394.226 0.8452 378.1 4.57305 362.498C8.72671 345.215 15.6556 328.665 18.7052 311.218C18.8333 310.484 18.9492 309.751 19.0651 309.017C19.4717 306.398 19.7808 303.73 19.9922 301.014C21.5292 279.677 15.5824 258.792 10.8859 237.874C10.7212 237.14 10.5565 236.407 10.3979 235.673C9.88965 233.355 9.4078 231.034 8.95238 228.711C4.60355 206.588 3.41418 182.913 7.27506 160.835C7.39705 160.102 7.53734 159.362 7.67762 158.635C10.282 144.96 14.8809 131.953 21.9257 120.368C29.1534 108.475 38.644 98.5787 48.7628 89.8814C53.7033 85.6463 58.8125 81.684 64.0905 77.9946C67.8843 75.3488 71.7472 72.8448 75.6792 70.4827C107.451 51.49 143.699 42.2098 179.539 44.2859C181.438 44.3907 183.333 44.5304 185.223 44.7051C187.208 44.8884 189.186 45.1068 191.158 45.36C214.232 48.222 236.684 55.3148 259.001 63.0756C266.479 65.6952 273.938 68.3149 281.398 70.9346C284.716 72.096 288.032 73.2421 291.346 74.3729C307.601 79.8808 324.124 84.8516 340.8 88.5978C344.667 89.471 348.529 90.2678 352.388 90.9882C365.804 93.5687 379.38 95.0705 393.004 95.481C398.29 95.6207 403.576 95.5617 408.862 95.3041C411.534 95.1732 414.207 94.9811 416.883 94.7278C444.519 92.1867 471.167 83.6662 497.925 75.6631C501.792 74.5039 505.665 73.3512 509.514 72.2379C514.6 70.7709 519.693 69.3497 524.805 68.0399C556.631 59.8337 584.993 64.5491 614.581 81.4722C621.29 85.3166 627.999 89.9535 632.147 97.1314C636.295 104.309 637.301 113.197 638.069 121.75C639.155 133.918 639.899 146.257 640.137 158.648C640.137 159.381 640.137 160.115 640.18 160.848C640.717 185.938 639.295 211.218 635.404 235.673Z" fill="#6C63FF" fill-opacity="0.4"/>
<path opacity="0.1" d="M125.671 103.851H126.598C126.281 103.653 126.014 103.375 125.821 103.04C125.629 102.705 125.516 102.325 125.494 101.932V101.932C125.494 100.412 127.226 99.1745 129.343 99.1745H156.271C158.388 99.1745 160.12 100.412 160.12 101.932C160.12 103.445 158.388 104.689 156.271 104.689H155.375C155.691 104.887 155.956 105.166 156.147 105.501C156.339 105.836 156.451 106.216 156.473 106.608C156.473 107.918 155.216 108.992 153.533 109.286H161.285C163.395 109.286 165.128 110.524 165.128 112.044C165.128 113.563 163.395 114.794 161.285 114.794H134.326C132.216 114.794 130.483 113.557 130.483 112.044C130.483 110.734 131.74 109.66 133.423 109.365H125.671C123.561 109.365 121.828 108.127 121.828 106.608C121.828 105.088 123.548 103.851 125.671 103.851Z" fill="#10222E"/>
<path opacity="0.1" d="M417.537 130.093H418.44C418.122 129.895 417.855 129.615 417.662 129.279C417.47 128.944 417.357 128.562 417.336 128.168V128.168C417.336 126.655 419.068 125.417 421.184 125.417H448.113C450.229 125.417 451.962 126.655 451.962 128.168C451.962 129.687 450.229 130.925 448.113 130.925H447.216C447.533 131.124 447.798 131.404 447.99 131.74C448.181 132.076 448.293 132.457 448.314 132.85C448.314 134.16 447.058 135.228 445.374 135.523H453.127C455.237 135.523 456.969 136.767 456.969 138.28C456.969 139.793 455.237 141.037 453.127 141.037H426.204C424.094 141.037 422.361 139.799 422.361 138.28C422.361 136.97 423.618 135.896 425.301 135.608H417.537C415.427 135.608 413.694 134.363 413.694 132.85C413.694 131.338 415.439 130.093 417.537 130.093Z" fill="#10222E"/>
<path opacity="0.1" d="M84.3599 242.392H85.2626C84.9464 242.193 84.6808 241.913 84.4893 241.577C84.2979 241.241 84.1864 240.86 84.1647 240.467V240.467C84.1647 238.954 85.8909 237.71 88.0073 237.71H114.936C117.052 237.71 118.785 238.954 118.785 240.467C118.785 241.986 117.052 243.224 114.936 243.224H114.039C114.356 243.423 114.621 243.703 114.813 244.039C115.004 244.375 115.116 244.756 115.137 245.149C115.137 246.459 113.881 247.527 112.197 247.822H119.95C122.066 247.822 123.792 249.059 123.792 250.579C123.792 252.098 122.066 253.336 119.95 253.336H93.0149C90.9045 253.336 89.1723 252.092 89.1723 250.579C89.1723 249.269 90.4349 248.195 92.1122 247.9H84.3599C82.2495 247.9 80.5173 246.662 80.5173 245.149C80.5173 243.637 82.2495 242.392 84.3599 242.392Z" fill="#10222E"/>
<path d="M395.799 431.035C394.29 432.319 392.782 433.6 391.273 434.88C390.389 435.633 389.492 436.379 388.601 437.126C387.955 437.67 387.315 438.213 386.656 438.75C383.356 441.481 380.014 444.153 376.604 446.708C375.793 447.317 374.969 447.926 374.164 448.522C367.339 453.534 360.08 457.829 352.487 461.345L352.39 461.391V431.035H395.799Z" fill="#65617D"/>
<path d="M463.672 311.735L464.355 289.108C463.947 288.767 463.532 288.453 463.135 288.138C463.304 281.392 462.945 274.642 462.062 267.96C459.305 245.333 441.403 244.842 436.353 249.511C435.684 250.131 434.954 250.672 434.176 251.122C434.633 247.894 435.2 244.658 435.609 241.462C437.817 224.225 434.389 204.833 421.934 193.692C416.719 189.036 410.346 186.174 404.618 182.277C394.359 175.329 386.253 165.066 375.878 158.301C365.503 151.535 350.932 149.001 341.88 157.698C338.373 161.064 336.11 165.734 332.512 168.982C325.803 175.034 315.342 175.433 309.487 182.192C309.194 182.533 308.913 182.88 308.645 183.247C303.766 189.966 305.101 199.495 306.657 207.832C308.529 217.866 307.755 225.908 315.769 228.79C315.8 229.189 315.824 229.589 315.867 229.982C316.519 236.137 318.416 242.064 321.425 247.349C324.434 252.635 328.482 257.15 333.286 260.579L331.987 261.077C328.523 262.387 325.406 263.658 323.412 264.529C316.092 267.731 300.685 271.903 300.685 271.903C300.685 271.903 300.32 276.618 300.387 283.574C295.251 289.566 286.681 300.097 284.162 306.339C280.503 315.442 259.826 341.514 254.318 345.45C248.811 349.386 242.839 354.056 242.839 354.056C242.839 354.056 234.117 359.223 229.988 359.715C227.127 360.055 218.277 358.234 218.277 358.234C218.277 358.234 182.932 311.735 185.225 347.415C187.518 383.095 215.752 384.307 215.752 384.307L244.218 383.816C244.218 383.816 259.6 386.029 266.486 379.886C272.366 374.647 302.839 345.902 312.628 332.863C312.854 333.131 313.079 333.393 313.317 333.649C313.317 333.649 317.215 328.239 317.678 333.649C318.142 339.058 315.147 341.508 316.757 343.473C318.367 345.437 323.186 352.327 323.412 355.032C323.637 357.737 316.989 368.785 328.23 377.168C328.407 377.299 328.596 377.424 328.803 377.548C330.81 382.453 337.19 387.254 337.19 387.254L371.621 386.763L436.585 392.172C436.585 392.172 438.518 390.345 441.135 387.359C444.63 390.804 449.479 393.757 454.944 391.943C454.944 391.943 462.751 381.864 462.983 375.223C462.983 375.223 457.933 361.201 455.664 357.023C453.395 352.844 457.274 343.741 457.274 343.741C457.274 343.741 460.025 334.887 461.635 334.887C463.245 334.887 462.092 328.992 462.092 328.992C461.484 328.029 461.103 326.921 460.983 325.763C460.863 324.606 461.007 323.435 461.403 322.351C462.751 318.625 463.672 311.735 463.672 311.735Z" fill="url(#paint0_linear)"/>
<path d="M424.728 306.64L422.288 309.705L412.432 322.03L399.556 322.869L378.946 324.231C378.946 324.231 351.158 288.276 356.379 280.45C358.276 277.627 358.587 273.9 358.209 270.384C358.16 269.899 358.093 269.414 358.013 268.936C357.389 265.215 356.297 261.602 354.769 258.195L355.452 257.861L355.891 257.645L380.191 245.739L386.205 242.792C386.504 244.572 387.06 246.291 387.851 247.887C387.967 248.136 388.095 248.385 388.23 248.621C396.519 263.356 423.1 254.037 423.1 254.037L424.728 306.64Z" fill="#EFB7B9"/>
<path d="M460.659 288.243C460.476 297.163 459.122 301.014 459.122 301.014L424.728 306.64L423.441 297.052L418.348 259.191L423.13 254.056C425.04 254.499 427.02 254.464 428.916 253.956C430.812 253.447 432.574 252.478 434.066 251.122C439.073 246.472 456.841 246.964 459.573 269.46C460.376 275.683 460.739 281.962 460.659 288.243V288.243Z" fill="#EFB7B9"/>
<path d="M452.517 392.722C452.517 392.722 460.257 382.696 460.488 376.094L452.742 362.151L445.911 354.292L433.151 380.737C433.151 380.737 441.58 396.39 452.517 392.722Z" fill="#DFE5EE"/>
<path opacity="0.1" d="M452.517 392.722C452.517 392.722 460.257 382.696 460.488 376.094L452.742 362.151L445.911 354.292L433.151 380.737C433.151 380.737 441.58 396.39 452.517 392.722Z" fill="black"/>
<path d="M388.601 437.126C387.955 437.67 387.314 438.213 386.656 438.75C383.356 441.481 380.014 444.153 376.604 446.708C375.793 447.317 374.969 447.926 374.164 448.522H340.856H191.214H179.595L122.03 446.308L75.7355 445.889L64.1467 445.234L6.32494 441.959C4.20665 434.488 2.6143 426.856 1.56135 419.129C1.32348 417.387 1.11 415.638 0.951416 413.89L64.1223 417.649L75.7111 418.35L179.571 424.571L191.19 425.265L340.831 434.238L352.347 434.932H352.445L388.601 437.126Z" fill="#D48A9B"/>
<path d="M466.636 388.341C453.944 392.271 441.629 397.333 430.04 404.505C429.119 405.074 428.211 405.657 427.29 406.253C426.369 406.849 425.46 407.445 424.575 408.061C423.691 408.676 422.8 409.285 421.922 409.908L420.568 410.89L419.245 411.859C417.939 412.822 416.652 413.824 415.365 414.793L415.317 414.833C414.469 415.488 413.627 416.142 412.785 416.797C408.034 420.576 403.386 424.532 398.757 428.501C397.781 429.339 396.803 430.175 395.823 431.009L391.31 434.854C390.425 435.607 389.529 436.353 388.638 437.1C387.992 437.643 387.351 438.187 386.692 438.724L352.536 436.975H352.438L340.923 436.399L191.214 428.782L179.595 428.186L75.7355 422.888L64.1467 422.292L1.56136 419.129C1.32348 417.387 1.11001 415.638 0.951423 413.89C0.634257 410.89 0.398413 407.877 0.243896 404.852L64.1406 380.62L75.7294 376.212L86.2569 372.217L105.439 373.291L149.775 375.734L179.613 377.417L191.233 378.072L198.656 378.491L200.431 378.596L262.9 382.1L263.559 382.146L291.433 383.704H291.75H291.933L294.72 383.855L304.223 384.392L316.105 385.047L320.02 385.27L320.758 385.315L326.297 385.623L327.876 385.708L333.164 386.01L335.269 386.134H335.336H335.775L340.722 386.416L348.382 386.848H348.419L350.798 386.979H351.054L352.475 387.064L355.964 387.26L359.013 387.431H359.044L362.466 387.621H362.521L365.113 387.771L367.101 387.883L374.158 388.282L375.427 388.354H375.866L376.476 388.394L378.544 388.511L379.471 388.564L386.668 388.963H387.327L397.952 388.865H398.025L438.421 388.511H439.196H440.013H442.416L455.42 388.4H457.359L466.636 388.341Z" fill="#EFC6CD"/>
<path d="M194.002 389.238L197.759 410.7L299.911 409.05C299.911 409.05 307.596 411.434 307.425 404.832C307.425 404.832 322.973 389.055 401.721 407.399L371.487 381.903L288.841 386.671L193.008 383.92L194.002 389.238Z" fill="#6C63FF"/>
<path d="M195.88 384.104L199.467 407.399C199.467 407.399 287.297 404.649 301.106 407.216L290.67 385.938C290.67 385.938 237.563 380.62 195.88 384.104Z" fill="white"/>
<path opacity="0.1" d="M195.88 384.104L199.467 407.399C199.467 407.399 287.297 404.649 301.106 407.216L290.67 385.938C290.67 385.938 237.563 380.62 195.88 384.104Z" fill="black"/>
<path d="M197.192 384.019L200.73 405.683C200.73 405.683 287.444 403.129 301.106 405.513L290.817 385.728C290.817 385.728 238.35 380.777 197.192 384.019Z" fill="white"/>
<path opacity="0.1" d="M198.784 384.687L202.23 404.95C202.23 404.95 287.041 402.559 300.429 404.793L290.365 386.278C290.365 386.278 239.045 381.628 198.784 384.687Z" fill="black"/>
<path d="M199.467 383.947L202.931 404.249C202.931 404.249 287.743 401.859 301.131 404.092L291.042 385.558C291.042 385.558 239.729 380.914 199.467 383.947Z" fill="white"/>
<path d="M139.462 328.848C139.462 328.848 143.902 335.076 137.418 344.488C130.935 353.899 125.579 361.836 127.745 367.705C127.745 367.705 137.504 350.231 145.494 350.022C153.484 349.812 148.226 339.353 139.462 328.848Z" fill="#10222E"/>
<path opacity="0.1" d="M139.462 328.848C139.852 329.452 140.158 330.114 140.37 330.813C148.141 340.637 152.282 349.806 144.811 350.002C137.851 350.212 129.507 363.572 127.507 366.951C127.576 367.205 127.655 367.46 127.745 367.718C127.745 367.718 137.504 350.244 145.494 350.035C153.484 349.825 148.226 339.353 139.462 328.848Z" fill="black"/>
<path d="M147.714 336.792C147.714 338.98 147.482 340.761 147.202 340.761C146.921 340.761 146.689 338.98 146.689 336.792C146.689 334.605 146.976 335.627 147.256 335.627C147.537 335.627 147.714 334.598 147.714 336.792Z" fill="#FFD037"/>
<path d="M150.544 339.406C148.751 340.46 147.19 341.095 147.055 340.827C146.921 340.558 148.275 339.517 150.056 338.443C151.837 337.369 151.142 338.155 151.276 338.443C151.41 338.731 152.337 338.358 150.544 339.406Z" fill="#FFD037"/>
<path d="M116.022 328.848C116.022 328.848 111.581 335.076 118.071 344.488C124.561 353.899 129.904 361.836 127.745 367.705C127.745 367.705 117.955 350.231 109.99 350.022C102.024 349.812 107.257 339.353 116.022 328.848Z" fill="#10222E"/>
<path opacity="0.1" d="M116.022 328.848C115.635 329.454 115.329 330.116 115.113 330.813C107.342 340.637 103.201 349.806 110.673 350.002C117.632 350.212 125.982 363.572 127.983 366.951C127.918 367.205 127.838 367.46 127.745 367.718C127.745 367.718 117.955 350.244 109.99 350.035C102.024 349.825 107.257 339.353 116.022 328.848Z" fill="black"/>
<path d="M107.769 336.792C107.769 338.98 108.001 340.761 108.282 340.761C108.562 340.761 108.794 338.98 108.794 336.792C108.794 334.605 108.507 335.627 108.227 335.627C107.946 335.627 107.769 334.598 107.769 336.792Z" fill="#FFD037"/>
<path d="M104.939 339.406C106.732 340.46 108.3 341.095 108.434 340.827C108.568 340.558 107.214 339.517 105.433 338.443C103.652 337.369 104.348 338.155 104.213 338.443C104.079 338.731 103.146 338.358 104.939 339.406Z" fill="#FFD037"/>
<path d="M151.605 359.302L151.386 361.267L151.075 364.011L150.947 365.157L150.636 367.908L150.501 369.054L150.184 371.804L146.634 403.057C146.317 405.847 142.072 408.021 136.949 408.021H118.516C113.393 408.021 109.154 405.847 108.837 403.057L105.281 371.804L104.97 369.054L104.842 367.908L104.525 365.157L104.396 364.011L104.085 361.267L103.86 359.302C103.683 357.724 105.976 356.394 108.879 356.394H146.61C149.507 356.394 151.807 357.724 151.605 359.302Z" fill="#65617D"/>
<path d="M151.404 361.247L151.093 363.998H104.397L104.085 361.247H151.404Z" fill="#9D9CB5"/>
<path d="M150.965 365.144L150.654 367.895H104.842L104.524 365.144H150.965Z" fill="#9D9CB5"/>
<path d="M150.52 369.041L150.209 371.785H105.281L104.97 369.041H150.52Z" fill="#9D9CB5"/>
<path d="M207.896 356.774C207.896 356.774 196.051 344.547 196.509 360.442C196.966 376.336 207.896 356.774 207.896 356.774Z" fill="#EE8E9E"/>
<path d="M314.263 328.894C314.001 330.125 312.726 332.169 310.737 334.729C300.466 348.011 271.244 375.616 265.517 380.737C258.686 386.854 243.425 384.667 243.425 384.667L215.185 385.158C215.185 385.158 187.171 383.933 184.89 348.483C182.608 313.032 217.686 359.243 217.686 359.243C217.686 359.243 226.469 361.051 229.305 360.71C233.404 360.225 242.059 355.091 242.059 355.091C242.059 355.091 247.981 350.441 253.446 346.531C258.911 342.621 279.411 316.693 283.059 307.642C285.37 301.898 292.817 292.507 297.959 286.416C300.911 282.912 303.101 280.522 303.101 280.522C303.101 280.522 315.855 321.31 314.263 328.894Z" fill="#EFB7B9"/>
<path opacity="0.1" d="M314.263 328.894C314 330.125 312.726 332.169 310.737 334.729C300.368 323.393 298.203 300.772 297.959 286.39C300.911 282.886 303.101 280.495 303.101 280.495C303.101 280.495 315.855 321.31 314.263 328.894Z" fill="black"/>
<path opacity="0.1" d="M422.282 309.705L412.432 322.03L399.556 322.869L378.946 324.231C378.946 324.231 351.158 288.276 356.379 280.45C358.276 277.627 358.587 273.9 358.209 270.384C358.16 269.899 358.093 269.414 358.013 268.936C357.389 265.215 356.297 261.602 354.769 258.195L355.452 257.861L355.891 257.645C356.975 260.89 357.724 264.252 358.123 267.672C358.19 268.137 358.251 268.622 358.312 269.12C358.526 270.888 358.721 272.853 358.922 275.014C360.508 294.805 372.103 302.252 377.336 304.623C379.019 305.385 380.664 306.239 382.264 307.183C387.299 310.165 393.105 311.292 398.794 310.393C411.712 308.572 422.246 298.493 422.246 298.493L422.301 308.415L422.282 309.705Z" fill="black"/>
<path d="M422.679 386.612C422.679 386.612 337.953 386.363 326.785 378.052C315.617 369.741 322.235 358.732 322.003 356.04C321.771 353.349 316.995 346.505 315.403 344.54C313.811 342.575 316.77 340.139 316.312 334.762C315.855 329.385 311.988 334.762 311.988 334.762C296.038 317.394 299.454 273.377 299.454 273.377C299.454 273.377 314.702 269.224 322.021 266.035C324.003 265.17 327.09 263.939 330.56 262.61L331.847 262.112C340.795 258.674 351.432 254.79 351.432 254.79C351.432 254.79 353.476 253.238 355.531 257.881C356.47 260.016 357.416 263.454 358.172 268.949C358.239 269.414 358.3 269.899 358.361 270.397C358.575 272.165 358.77 274.13 358.971 276.291C360.557 296.083 372.152 303.529 377.385 305.9C379.068 306.662 380.713 307.517 382.313 308.461C387.348 311.442 393.154 312.569 398.842 311.67C411.761 309.849 422.294 299.77 422.294 299.77L422.349 309.692L422.508 339.504L422.679 386.612Z" fill="#DFE5EE"/>
<path d="M419.031 347.972L417.665 357.265C417.665 357.265 383.954 366.31 370.749 369.001C357.544 371.693 329.066 368.268 327.016 374.136C324.967 380.004 335.671 388.079 335.671 388.079L369.828 387.588L434.286 392.971C434.286 392.971 458.884 369.735 450.912 353.591C442.94 337.447 419.031 347.972 419.031 347.972Z" fill="#EFB7B9"/>
<path opacity="0.1" d="M349.566 274.601C349.566 274.601 334.073 288.296 337.038 294.904C340.002 301.512 349.566 274.601 349.566 274.601Z" fill="black"/>
<path opacity="0.1" d="M330.432 299.298C330.432 299.298 314.714 328.403 315.629 330.603C316.544 332.804 320.868 340.63 320.636 334.762C320.405 328.894 330.432 299.298 330.432 299.298Z" fill="black"/>
<path opacity="0.1" d="M336.812 304.439C336.812 304.439 333.152 322.535 329.523 330.119C325.894 337.703 336.812 304.439 336.812 304.439Z" fill="black"/>
<path opacity="0.1" d="M388.26 248.64C385.248 254.57 380.958 259.64 375.747 263.425C370.537 267.21 364.559 269.6 358.312 270.397H358.239C348.412 271.636 338.512 268.853 330.511 262.603C339.66 259.053 351.383 254.783 351.383 254.783C351.383 254.783 353.426 253.231 355.482 257.875L386.235 242.811C386.58 244.869 387.266 246.843 388.26 248.64V248.64Z" fill="black"/>
<path d="M393.066 226.91C393.078 234.275 391.29 241.515 387.882 247.907C386.254 250.955 384.281 253.775 382.008 256.303C375.668 263.391 367.218 267.876 358.123 268.982H358.044C356.59 269.161 355.128 269.251 353.665 269.251C343.983 269.251 334.641 265.424 327.42 258.5C320.198 251.576 315.604 242.04 314.513 231.711C314.343 230.126 314.26 228.531 314.263 226.936C314.263 215.715 318.414 204.954 325.803 197.02C333.193 189.086 343.215 184.628 353.665 184.628C364.115 184.628 374.137 189.086 381.526 197.02C388.915 204.954 393.066 215.715 393.066 226.936V226.91Z" fill="#EFB7B9"/>
<path opacity="0.1" d="M418.58 306.967L422.239 301.073C422.239 301.073 442.282 275.394 461.885 291.78L461.202 314.283C461.202 314.283 460.287 321.127 458.921 324.761C458.528 325.84 458.385 327.005 458.504 328.156C458.623 329.307 459.001 330.41 459.604 331.37C459.604 331.37 460.744 337.264 459.153 337.264C457.561 337.264 454.822 346.066 454.822 346.066C454.822 346.066 450.949 355.117 453.23 359.276C455.511 363.434 460.519 377.371 460.519 377.371C460.519 377.371 452.547 372.237 450.266 363.677C450.266 363.677 430.906 347.533 415.872 357.783L418.58 306.967Z" fill="black"/>
<path opacity="0.1" d="M460.659 288.243C460.476 297.163 459.122 301.014 459.122 301.014L424.728 306.64L423.441 297.052C427.942 292.009 444.313 275.977 460.659 288.243Z" fill="black"/>
<path d="M418.58 305.657L422.239 299.763C422.239 299.763 442.282 274.084 461.885 290.47L461.202 312.973C461.202 312.973 460.287 319.817 458.921 323.452C458.528 324.53 458.385 325.695 458.504 326.846C458.623 327.997 459.001 329.1 459.604 330.06C459.604 330.06 460.744 335.954 459.153 335.954C457.561 335.954 454.822 344.756 454.822 344.756C454.822 344.756 450.949 353.807 453.23 357.966C455.511 362.125 460.519 376.061 460.519 376.061C460.519 376.061 452.547 370.927 450.266 362.367C450.266 362.367 430.906 346.223 415.872 356.473L418.58 305.657Z" fill="#DFE5EE"/>
<path opacity="0.1" d="M450.919 289.029C450.919 289.029 417.897 310.799 419.489 329.889C419.489 329.889 437.939 294.897 450.919 289.029Z" fill="black"/>
<path opacity="0.1" d="M422.276 309.711L422.435 339.523C416.189 339.825 410.303 338.954 405.649 334.611C402.41 331.586 400.526 327.407 399.55 322.888C398.824 319.247 398.557 315.518 398.757 311.801C398.754 311.764 398.754 311.726 398.757 311.689C399.141 303.457 400.904 295.225 399.977 287.045C399.05 278.865 394.433 270.233 386.894 268.51C385.405 268.163 383.734 268.039 382.673 266.867C381.502 265.557 381.557 263.52 381.685 261.706L381.904 258.647C381.959 257.861 381.984 257.082 381.984 256.303C381.979 249.349 379.727 242.613 375.611 237.245C371.495 231.877 365.771 228.21 359.416 226.871L359.172 226.825C357.05 226.366 354.842 225.914 352.719 226.438C348.681 227.44 346.071 231.645 342.35 233.643C335.214 237.467 323.314 233.282 315.842 231.966C315.355 231.881 314.891 231.783 314.446 231.671C314.276 230.086 314.193 228.492 314.196 226.897C314.198 220.417 315.587 214.024 318.256 208.212C320.924 202.399 324.8 197.323 329.584 193.373C334.369 189.424 339.935 186.708 345.852 185.434C351.769 184.16 357.88 184.363 363.712 186.026C369.545 187.69 374.944 190.77 379.493 195.029C384.041 199.287 387.618 204.611 389.947 210.589C392.276 216.567 393.295 223.04 392.925 229.508C392.555 235.976 390.807 242.266 387.815 247.894C387.931 248.142 388.059 248.391 388.193 248.627C396.482 263.363 423.063 254.043 423.063 254.043L424.661 306.627L422.276 309.711Z" fill="black"/>
<path d="M343.784 232.916C347.48 230.912 350.09 226.707 354.152 225.711C356.269 225.188 358.477 225.639 360.612 226.091L360.856 226.144C367.574 227.571 373.571 231.595 377.711 237.453C381.852 243.31 383.847 250.595 383.32 257.927L383.1 260.985C382.966 262.793 382.911 264.843 384.094 266.14C385.149 267.312 386.821 267.449 388.309 267.777C395.848 269.506 400.465 278.092 401.392 286.318C402.319 294.543 400.526 302.802 400.172 311.067C399.818 319.332 401.233 328.455 407.052 333.885C416.201 342.398 430.108 337.552 442.215 336.773C436.86 336.773 432.846 330.839 432.553 325.102C432.261 319.365 434.639 313.903 436.914 308.729C439.19 303.555 441.471 297.988 440.964 292.264C440.269 284.405 434.499 278.112 432.291 270.547C429.717 261.745 432.2 252.295 433.365 243.145C435.554 226.013 432.145 206.725 419.794 195.651C414.621 191.02 408.296 188.171 402.612 184.294C392.426 177.359 384.393 167.188 374.097 160.442C363.802 153.696 349.346 151.195 340.362 159.84C336.885 163.186 334.641 167.83 331.066 171.058C324.083 177.378 312.982 177.496 307.383 185.251C302.564 191.924 303.869 201.401 305.413 209.686C307.468 220.734 306.309 229.333 317.306 231.298C324.747 232.562 336.641 236.747 343.784 232.916Z" fill="#603556"/>
<path opacity="0.1" d="M434.395 331.494C425.582 332.653 416.848 333.249 410.431 327.276C404.612 321.847 403.179 312.731 403.551 304.459C403.923 296.187 405.704 287.922 404.771 279.703C403.838 271.484 399.227 262.898 391.688 261.169C390.2 260.828 388.534 260.704 387.473 259.532C386.296 258.222 386.345 256.178 386.479 254.371L386.698 251.312C387.226 243.981 385.23 236.697 381.09 230.841C376.95 224.984 370.952 220.962 364.235 219.536L363.991 219.483C361.856 219.031 359.648 218.579 357.531 219.103C353.494 220.105 350.883 224.343 347.163 226.307C340.02 230.139 328.133 225.954 320.649 224.637C309.67 222.705 310.817 214.093 308.755 203.025C307.602 196.843 306.584 189.992 308.145 184.137C307.852 184.471 307.572 184.792 307.303 185.192C302.485 191.865 303.79 201.342 305.333 209.627C307.389 220.675 306.23 229.274 317.227 231.239C324.705 232.549 336.598 236.74 343.741 232.909C347.437 230.905 350.048 226.7 354.11 225.705C356.226 225.181 358.434 225.633 360.569 226.085L360.813 226.137C367.531 227.565 373.528 231.588 377.669 237.446C381.809 243.304 383.804 250.589 383.277 257.92L383.057 260.979C382.923 262.786 382.868 264.836 384.051 266.133C385.107 267.305 386.778 267.443 388.266 267.77C395.805 269.499 400.422 278.085 401.349 286.311C402.276 294.537 400.489 302.796 400.129 311.061C399.769 319.326 401.191 328.449 407.009 333.878C416.158 342.392 430.065 337.546 442.172 336.766C438.885 336.786 436.121 334.546 434.395 331.494Z" fill="black"/>
<path d="M186.859 353.342L224.462 338.279C225.351 337.923 226.335 337.96 227.199 338.382C228.062 338.805 228.734 339.578 229.067 340.532V340.532C229.399 341.486 229.364 342.543 228.971 343.471C228.577 344.398 227.857 345.119 226.969 345.477L189.366 360.54L181.303 359.675L186.859 353.342Z" fill="#5C5C8E"/>
<path opacity="0.1" d="M227.932 339.301C228.264 340.256 228.229 341.314 227.834 342.241C227.439 343.168 226.718 343.889 225.828 344.245L188.201 359.361L182.151 358.706L181.279 359.701L189.342 360.566L226.944 345.503C227.833 345.145 228.553 344.424 228.946 343.497C229.34 342.57 229.374 341.513 229.043 340.558V340.558C228.765 339.762 228.251 339.088 227.579 338.639C227.714 338.848 227.832 339.07 227.932 339.301V339.301Z" fill="white"/>
<path d="M186.866 353.342L189.366 360.54L182.755 359.826L181.309 359.669L183.285 357.416L186.866 353.342Z" fill="#EFC8C4"/>
<path d="M183.279 357.396C183.434 357.52 183.566 357.673 183.67 357.848C183.731 357.953 183.764 358.074 183.764 358.198C183.764 358.322 183.731 358.444 183.67 358.549C183.566 358.664 183.444 358.759 183.31 358.83C183.159 358.939 183.032 359.082 182.939 359.25C182.846 359.418 182.79 359.605 182.773 359.8L181.321 359.649L183.279 357.396Z" fill="#727A9C"/>
<path d="M304.925 399.311C304.925 399.311 337.495 391.969 392.145 401.276L370.737 384.405L331.786 375.845L304.229 383.704L304.925 399.311Z" fill="white"/>
<path opacity="0.1" d="M304.925 399.311C304.925 399.311 337.495 391.969 392.145 401.276L370.737 384.405L331.786 375.845L304.229 383.704L304.925 399.311Z" fill="black"/>
<path d="M301.106 407.249C301.106 407.249 317.508 359.61 401.746 407.399L371.511 386.507C371.511 386.507 299.081 365.019 290.713 389.782L301.106 407.249Z" fill="white"/>
<path opacity="0.1" d="M301.106 407.216C301.106 407.216 317.508 356.283 401.746 408.133L371.511 385.473C371.511 385.473 299.057 359.774 290.67 386.671L301.106 407.216Z" fill="black"/>
<path d="M301.106 407.235C301.106 407.235 317.508 355.549 401.746 407.399L371.511 384.739C371.511 384.739 299.081 359.774 290.713 386.704L301.106 407.235Z" fill="white"/>
<path opacity="0.1" d="M301.106 407.249C301.106 407.249 317.508 349.806 401.746 408.133L371.487 382.637C371.487 382.637 299.057 356.44 290.689 386.671L301.106 407.249Z" fill="black"/>
<path d="M301.106 407.216C301.106 407.216 317.508 349.072 401.746 407.399L371.487 381.903C371.487 381.903 299.057 355.707 290.689 385.938L301.106 407.216Z" fill="white"/>
<path opacity="0.1" d="M553.827 401.741C553.827 401.741 533.607 424.997 551.808 436.294C551.808 436.294 554.187 439.372 557.584 437.761C557.584 437.761 556.437 436.668 558.737 434.559C559.55 433.802 560.277 432.945 560.902 432.005C561.75 430.735 562.191 429.205 562.158 427.643V427.643C562.158 427.643 564.806 418.415 556.395 406.437C556.395 406.437 555.632 402.428 554.986 401.99L553.449 407.576C553.449 407.576 557.309 408.63 558.761 411.787C558.761 411.787 553.674 407.497 553.18 408.395C553.083 408.578 552.491 411.401 552.491 411.401C552.491 411.401 559.2 413.261 561.298 418.212C561.298 418.212 555.876 412.233 552.259 412.468L551.6 416.778C551.6 416.778 558.779 418.376 561.359 423.916C561.359 423.916 555.492 417.871 551.503 417.734L551.387 422.063C551.387 422.063 558.359 423.766 560.487 428.389C560.487 428.389 553.052 422.148 551.424 423.058C551.424 423.058 551.539 427.047 552.034 428.088C552.034 428.088 557.011 429.398 558.023 432.24C558.023 432.24 552.643 428.632 552.18 429.182C552.18 429.182 553.625 434.33 555.638 436.524C555.638 436.524 552.442 433.517 551.442 429.463C551.442 429.463 550.088 431.998 550.429 434.487C550.429 434.487 548.435 432.116 551.106 428.213C551.106 428.213 550.131 424.152 550.374 423.51C550.374 423.51 547.233 426.962 546.428 430.059C546.428 430.059 545.818 426.182 550.368 422.39V418.029C550.368 418.029 545.989 422.358 545.086 425.036C545.086 425.036 545.025 420.976 550.46 416.935L551.07 412.698C551.07 412.698 547.032 416.116 545.428 418.867C545.428 418.867 546.123 415.081 551.283 411.492L551.997 408.716C551.997 408.716 549.094 411.27 548.337 412.082C547.581 412.894 547.294 412.737 547.294 412.737C548.482 410.541 550.213 408.741 552.296 407.537C552.296 407.537 554.162 401.891 553.827 401.741Z" fill="#10222E"/>
<path opacity="0.1" d="M644.213 23.3282C644.213 23.3282 617.199 36.4266 629.934 54.3649C629.934 54.3649 631.026 58.1961 634.734 58.1176C634.734 58.1176 634.07 56.6309 636.949 55.6354C637.972 55.2764 638.951 54.786 639.864 54.1749C641.103 53.3553 642.059 52.1256 642.59 50.6711V50.6711C642.59 50.6711 648.348 43.2574 644.89 28.7248C644.89 28.7248 645.628 24.7101 645.189 24.0355L641.761 28.5545C641.761 28.5545 644.945 31.1218 645.152 34.6387C645.152 34.6387 642.005 28.5741 641.224 29.2029C641.066 29.3273 639.51 31.685 639.51 31.685C639.51 31.685 645 36.1777 645.189 41.6201C645.189 41.6201 642.334 33.8528 638.906 32.5691L636.753 36.276C636.753 36.276 642.804 40.7229 643.206 46.9053C643.206 46.9053 639.962 38.9022 636.332 37.1208L634.667 41.0504C634.667 41.0504 640.492 45.5104 640.767 50.658C640.767 50.658 636.15 41.8166 634.32 41.9869C634.32 41.9869 632.996 45.7068 633.1 46.8791C633.1 46.8791 637.211 50.1537 637.138 53.1926C637.138 53.1926 633.478 47.6388 632.868 47.9532C632.868 47.9532 632.35 53.2973 633.423 56.1593C633.423 56.1593 631.551 52.0595 632.087 47.9074C632.087 47.9074 629.922 49.6887 629.349 52.125C629.349 52.125 628.361 49.1059 632.228 46.6106C632.228 46.6106 632.783 42.465 633.24 41.9738C633.24 41.9738 629.099 43.8534 627.257 46.3552C627.257 46.3552 628.08 42.5239 633.649 40.9128L635.235 36.9047C635.235 36.9047 629.642 39.079 627.842 41.1748C627.842 41.1748 629.245 37.4025 635.71 35.9354L637.79 32.281C637.79 32.281 632.838 33.7676 630.367 35.6342C630.367 35.6342 632.374 32.4382 638.425 31.2593L640.077 28.9933C640.077 28.9933 636.479 30.1459 635.473 30.5782C634.466 31.0104 634.253 30.755 634.253 30.755C636.148 29.2147 638.406 28.2714 640.773 28.0305C640.773 28.0305 644.432 23.5902 644.213 23.3282Z" fill="#10222E"/>
<path opacity="0.1" d="M387.815 31.4361C387.815 31.4361 347.23 43.8796 366.961 62.4007C366.961 62.4007 368.712 66.3302 374.329 66.3302C374.329 66.3302 373.28 64.8108 377.623 63.8874C379.118 63.5645 380.583 63.0999 382.002 62.499C383.675 61.8694 385.099 60.6477 386.04 59.0344C386.04 59.0344 394.579 51.6993 388.974 36.9113C388.974 36.9113 389.992 32.8769 389.309 32.1827L384.234 36.6493C384.234 36.6493 389.114 39.341 389.523 42.8972C389.523 42.8972 384.6 36.682 383.423 37.2911C383.185 37.4155 380.886 39.7471 380.886 39.7471C380.886 39.7471 389.352 44.4494 389.736 49.9573C389.736 49.9573 385.222 42.0262 379.977 40.6312L376.805 44.3118C376.805 44.3118 386.076 48.9814 386.839 55.2425C386.839 55.2425 381.728 47.0625 376.189 45.1567L373.75 49.0862C373.75 49.0862 382.679 53.7623 383.265 58.9755C383.265 58.9755 376.049 49.9049 373.28 50.0162C373.28 50.0162 371.371 53.7492 371.542 54.9346C371.542 54.9346 377.848 58.3926 377.818 61.4314C377.818 61.4314 372.121 55.7074 371.182 56.0087C371.182 56.0087 370.535 61.3987 372.231 64.3196C372.231 64.3196 369.291 60.1216 369.998 55.9432C369.998 55.9432 366.772 57.6788 365.961 60.1216C365.961 60.1216 364.387 57.05 370.181 54.6399C370.181 54.6399 370.919 50.4615 371.597 49.9769C371.597 49.9769 365.375 51.7583 362.649 54.2339C362.649 54.2339 363.795 50.3829 372.188 48.9159L374.494 44.9078C374.494 44.9078 366.077 46.9512 363.405 49.0142C363.405 49.0142 365.436 45.2418 375.195 43.932L378.245 40.2972C378.245 40.2972 370.779 41.6529 367.083 43.4735C367.083 43.4735 370.041 40.2972 379.172 39.2821L381.612 37.0422C381.612 37.0422 376.189 38.1032 374.677 38.5093C373.164 38.9153 372.847 38.6533 372.847 38.6533C375.895 37.0686 379.221 36.1937 382.606 36.0861C382.606 36.0861 388.168 31.7112 387.815 31.4361Z" fill="#10222E"/>
<path opacity="0.1" d="M507.551 517.007C507.551 517.007 527.984 493.96 509.887 482.473C509.887 482.473 507.533 479.368 504.123 480.94C504.123 480.94 505.264 482.047 502.946 484.136C502.127 484.884 501.392 485.733 500.756 486.664C499.895 487.923 499.441 489.451 499.463 491.013V491.013C499.463 491.013 496.725 500.214 505.032 512.278C505.032 512.278 505.758 516.293 506.398 516.745L507.99 511.171C507.99 511.171 504.135 510.078 502.714 506.908C502.714 506.908 507.758 511.243 508.258 510.353C508.362 510.169 508.978 507.36 508.978 507.36C508.978 507.36 502.269 505.395 500.232 500.457C500.232 500.457 505.599 506.495 509.222 506.292L509.917 501.989C509.917 501.989 502.757 500.319 500.213 494.785C500.213 494.785 506.026 500.889 510.015 501.072L510.167 496.737C510.167 496.737 503.208 494.929 501.098 490.279C501.098 490.279 508.478 496.606 510.113 495.709C510.113 495.709 510.033 491.727 509.503 490.679C509.503 490.679 504.538 489.277 503.55 486.461C503.55 486.461 508.899 490.129 509.362 489.579C509.362 489.579 507.966 484.418 505.971 482.204C505.971 482.204 509.143 485.243 510.107 489.303C510.107 489.303 511.485 486.782 511.162 484.293C511.162 484.293 513.138 486.69 510.43 490.561C510.43 490.561 511.369 494.635 511.119 495.27C511.119 495.27 514.291 491.851 515.12 488.793C515.12 488.793 515.73 492.676 511.113 496.416L511.052 500.778C511.052 500.778 515.468 496.495 516.395 493.822C516.395 493.822 516.395 497.889 510.948 501.871L510.338 506.102C510.338 506.102 514.407 502.723 516.035 499.992C516.035 499.992 515.303 503.764 510.113 507.301L509.375 510.071C509.375 510.071 512.302 507.55 513.083 506.744C513.864 505.938 514.132 506.089 514.132 506.089C512.925 508.274 511.177 510.057 509.082 511.237C509.082 511.237 507.246 516.849 507.551 517.007Z" fill="#10222E"/>
<path opacity="0.1" d="M308.267 0.812089C308.267 0.812089 311.75 32.4054 331.536 24.7821C331.536 24.7821 335.263 24.8149 336.312 20.9902C336.312 20.9902 334.787 21.2259 334.775 17.9775C334.761 16.822 334.62 15.6723 334.354 14.5523C334.003 13.0371 333.2 11.6869 332.067 10.7079V10.7079C332.067 10.7079 327.212 2.57382 313.238 1.77482C313.238 1.77482 309.896 -0.189937 309.164 0.0589329L312.146 4.92499C312.146 4.92499 315.385 2.43629 318.569 3.28769C318.569 3.28769 312.238 4.68921 312.561 5.67159C312.622 5.87462 314.244 8.17338 314.244 8.17338C314.244 8.17338 319.947 3.85092 324.827 5.32448C324.827 5.32448 317.075 5.90081 314.903 9.02478L317.508 12.3518C317.508 12.3518 323.278 7.49227 328.895 8.93964C328.895 8.93964 320.807 9.85653 318.13 13.0329L321.167 15.9276C321.167 15.9276 326.876 11.3039 331.536 12.5482C331.536 12.5482 322.29 14.6178 321.887 16.5367C321.887 16.5367 324.796 19.0123 325.87 19.2743C325.87 19.2743 330.042 16.0586 332.689 17.041C332.689 17.041 326.651 19.1236 326.742 19.8572C326.742 19.8572 331.335 21.9922 334.195 21.7564C334.195 21.7564 329.993 22.4113 326.468 20.6431C326.468 20.6431 327.395 23.3872 329.389 24.7167C329.389 24.7167 326.413 24.8149 325.357 20.1322C325.357 20.1322 321.844 18.3115 321.545 17.7025C321.545 17.7025 321.972 22.503 323.637 25.1424C323.637 25.1424 320.478 23.1776 320.722 16.9624L317.672 14.1266C317.672 14.1266 317.922 20.5121 319.24 22.9877C319.24 22.9877 316.312 20.4138 316.946 13.3472L314.33 10.1185C314.33 10.1185 314.153 15.6329 315.068 18.7241C315.068 18.7241 312.829 15.7115 313.61 9.16231L312.091 6.78496C312.091 6.78496 312.036 10.8127 312.091 11.9785C312.146 13.1442 311.884 13.2556 311.884 13.2556C311.082 10.8559 310.918 8.26419 311.408 5.76983C311.408 5.76983 308.572 0.654908 308.267 0.812089Z" fill="#10222E"/>
<path opacity="0.1" d="M456.152 445.352C456.152 445.352 427.595 436.838 426.68 459.393C426.68 459.393 425.24 463.087 428.138 465.576C428.138 465.576 428.51 463.978 431.315 465.189C432.316 465.615 433.36 465.911 434.426 466.073C435.867 466.296 437.337 466.007 438.61 465.248V465.248C438.61 465.248 447.454 463.506 453.456 449.962C453.456 449.962 456.414 447.389 456.506 446.563L451.181 447.683C451.181 447.683 452.096 451.849 450.156 454.691C450.156 454.691 451.376 447.867 450.382 447.814C450.181 447.814 447.582 448.541 447.582 448.541C447.582 448.541 449.144 455.785 446.027 460.074C446.027 460.074 448.467 452.15 446.594 448.81L442.727 450.179C442.727 450.179 444.728 457.749 441.349 462.779C441.349 462.779 443.63 454.403 441.898 450.539L438.275 452.432C438.275 452.432 440.105 459.858 437.256 464.024C437.256 464.024 438.976 454.056 437.47 452.923C437.47 452.923 434.237 454.887 433.609 455.844C433.609 455.844 434.829 461.207 432.95 463.467C432.95 463.467 433.438 456.675 432.773 456.492C432.773 456.492 429.187 460.245 428.308 463.179C428.308 463.179 429.315 458.745 432.2 455.922C432.2 455.922 429.479 455.804 427.583 457.278C427.583 457.278 428.619 454.285 433.072 455.025C433.072 455.025 435.975 452.215 436.616 452.156C436.616 452.156 432.346 450.755 429.406 451.41C429.406 451.41 432.322 449.026 437.561 451.619L441.172 449.655C441.172 449.655 435.573 447.487 432.944 447.86C432.944 447.86 436.268 445.895 442.093 449.229L445.862 447.847C445.862 447.847 441.178 445.588 438.165 445.326C438.165 445.326 441.611 444.245 446.96 447.5L449.583 446.891C449.583 446.891 446.131 445.306 445.1 444.926C444.069 444.546 444.075 444.271 444.075 444.271C446.438 444.387 448.724 445.203 450.681 446.629C450.681 446.629 456.17 445.712 456.152 445.352Z" fill="#10222E"/>
</g>
<defs>
<linearGradient id="paint0_linear" x1="324.735" y1="392.48" x2="324.735" y2="152.118" gradientUnits="userSpaceOnUse">
<stop stop-color="#808080" stop-opacity="0.25"/>
<stop offset="0.54" stop-color="#808080" stop-opacity="0.12"/>
<stop offset="1" stop-color="#808080" stop-opacity="0.1"/>
</linearGradient>
<clipPath id="clip0">
<rect width="646" height="517" fill="white"/>
</clipPath>
</defs>
</svg>
