<svg width="485" height="290" viewBox="0 0 485 290" fill="none" xmlns="http://www.w3.org/2000/svg">
<path fill-rule="evenodd" clip-rule="evenodd" d="M118.064 241.565C142.038 259.919 178.108 258.929 200.778 238.597C223.448 218.264 224.551 185.912 204.087 164.41L118.064 241.565Z" fill="url(#paint0_linear)"/>
<path d="M230.065 179.45H312.56V252.9H230.065V179.45ZM192.501 96.2786L224.01 124.539L192.927 152.417L161.419 124.156L192.501 96.2786Z" fill="#31446C"/>
<path d="M271.915 179.45C294.362 179.45 312.56 163.129 312.56 142.995C312.56 122.862 294.362 106.54 271.915 106.54C249.467 106.54 231.27 122.862 231.27 142.995C231.27 163.129 249.467 179.45 271.915 179.45Z" fill="#666AF6"/>
<path d="M206.28 87.637C220.413 87.637 231.871 77.3606 231.871 64.684C231.871 52.0074 220.413 41.731 206.28 41.731C192.146 41.731 180.688 52.0074 180.688 64.684C180.688 77.3606 192.146 87.637 206.28 87.637Z" fill="#666AF6"/>
<path d="M146.967 116.261C157.942 116.261 166.838 108.282 166.838 98.4385C166.838 88.5955 157.942 80.6161 146.967 80.6161C135.993 80.6161 127.096 88.5955 127.096 98.4385C127.096 108.282 135.993 116.261 146.967 116.261Z" fill="#F8AE9D"/>
<path d="M142.15 162.708C150.464 162.708 157.204 156.663 157.204 149.206C157.204 141.749 150.464 135.704 142.15 135.704C133.836 135.704 127.096 141.749 127.096 149.206C127.096 156.663 133.836 162.708 142.15 162.708Z" fill="url(#paint1_linear)"/>
<path d="M307.782 26.9888L335.633 120.213L231.693 95.234L307.782 26.9888Z" fill="#F8AE9D"/>
<path d="M71.0642 158.899L130.826 173.261L87.0773 212.5L71.0642 158.899Z" fill="#666AF6"/>
<path d="M393.672 69.5845C394.017 70.8184 393.56 72.1017 392.807 73.1795C392.275 73.9408 391.531 73.0998 390.446 72.9654C388.768 72.7542 387.706 71.1616 387.343 67.2804C387.175 64.4457 387.254 63.0315 387.43 62.784C388.057 61.898 389.669 61.6018 390.94 61.6873" fill="#31446C"/>
<path fill-rule="evenodd" clip-rule="evenodd" d="M390.627 238.267C390.627 238.267 390.728 244.095 386.717 246.166C382.707 248.236 376.493 252.083 376.493 252.083L400.132 252.797L399.457 238.215L390.627 238.267Z" fill="#F8AE9D"/>
<path fill-rule="evenodd" clip-rule="evenodd" d="M400.956 244.689L401.341 254.144H395.85L395.474 252.926C395.474 252.926 393.407 252.851 392.213 253.377C390.95 253.933 390.78 254.203 390.78 254.203L373.364 254.236C373.364 254.236 372.505 251.18 377.814 248.97C383.123 246.759 386.988 243.621 387.722 243.3C388.462 242.977 389.954 242.793 391.005 243.554C392.056 244.313 392.887 246.312 395.268 246.374C398.333 246.455 400.093 243.091 400.956 244.689ZM407.744 143.147C407.744 143.147 401.293 192.248 401.092 195.661C400.891 199.074 403.164 204.965 403.12 211.349C403.075 217.733 402.29 240.236 402.29 240.236L388.058 240.444C388.058 240.444 382.077 199.781 382.012 193.684C381.948 187.586 381.399 143.734 381.399 143.734L407.744 143.147Z" fill="#31446C"/>
<path fill-rule="evenodd" clip-rule="evenodd" d="M425.15 237.243L427.924 252.35L417.699 252.304L417.375 237.006L425.15 237.243Z" fill="#F8AE9D"/>
<path fill-rule="evenodd" clip-rule="evenodd" d="M426.721 243.869C427.073 243.937 427.389 244.109 427.62 244.357C427.85 244.605 427.982 244.915 427.993 245.238L428.092 247.92C429.554 249.378 430.236 253.618 430.296 254.005C430.299 254.025 430.3 254.045 430.299 254.066C430.145 256.134 415.015 256.098 413.789 254.136C413.752 254.07 413.741 253.994 413.759 253.922C413.893 253.179 414.725 248.928 416.352 247.784L416.363 245.131C416.364 244.813 416.482 244.504 416.698 244.252C416.914 244 417.217 243.819 417.56 243.736L419.553 243.255C421.048 241.295 423.085 241.364 424.83 243.5L426.721 243.869ZM420.131 143.61C420.131 143.61 424.687 177.109 424.625 183.525C424.563 189.94 423.223 192.757 425.13 197.359C427.038 201.962 428.665 238.695 428.665 238.695L414.558 239.749C414.558 239.749 405.545 200.442 404.565 194.993C403.585 189.543 391.472 143.147 391.472 143.147L420.131 143.61Z" fill="#31446C"/>
<path fill-rule="evenodd" clip-rule="evenodd" d="M349.784 83.3775C349.784 83.3775 350.962 77.49 350.539 76.2981C350.177 75.2676 346.758 73.7818 346.758 73.7818C346.758 73.7818 340.811 65.3559 339.509 66.2138C338.451 66.9093 342.606 73.1211 342.606 73.1211C342.606 73.1211 338.817 76.6871 338.869 78.2812C338.923 79.8752 345.055 84.8656 345.055 84.8656L349.784 83.3775ZM410.907 84.7608C410.907 84.7608 406.99 83.9362 406.854 78.1802C406.718 72.4241 406.814 70.4594 406.814 70.4594L397.528 70.3197C397.528 70.3197 397.434 76.7345 397.433 79.055C397.429 84.1063 393.247 85.4713 393.247 85.4713C393.247 85.4713 393.594 90.9948 401.411 91.3892C407.515 91.6971 410.907 84.7608 410.907 84.7608Z" fill="#F8AE9D"/>
<path fill-rule="evenodd" clip-rule="evenodd" d="M407.667 67.5497C411.515 67.4163 410.887 72.4696 406.889 72.4628C406.889 72.4628 402.593 80.2111 395.847 80.2314C392.598 80.2411 391.537 77.6451 390.563 75.8224C389.589 74.0003 388.874 71.2743 388.815 69.6053C388.751 67.8257 388.743 61.9793 388.743 61.9793L407.817 61.9716L407.667 67.5497Z" fill="#F8AE9D"/>
<path fill-rule="evenodd" clip-rule="evenodd" d="M393.101 85.1285C393.101 85.1285 383.097 87.9294 380.687 91.2746C372.921 97.3931 363.21 105.796 363.21 105.796C363.21 105.796 353.96 84.9743 350.936 82.6002C348.866 80.9757 344.744 82.9845 343.976 85.0483C342.989 87.6999 349.325 103.25 352.316 110.594H352.317V110.596C352.897 112.018 353.351 113.132 353.602 113.786C355.426 118.533 359.866 121.256 365.268 118.239C367.445 117.022 373.925 113.037 379.454 109.424C379.541 113.219 379.687 117.218 379.825 121.017V121.018C380.161 130.248 380.453 138.29 379.75 139.336C376.262 144.516 380.899 148.072 396.249 149.378C411.6 150.684 425.218 149.614 422.747 142.702C422.231 141.261 422.238 138.161 422.495 134.133C423.999 134.061 425.501 133.972 427.003 133.866C433.409 133.414 438.147 130.945 438.808 124.533C439.27 120.043 429.733 98.9625 426.157 92.031C425.32 90.4099 424.026 89.3997 422.561 88.8966C422.22 88.5549 421.835 88.3151 421.404 88.1875C418.777 87.4108 409.357 83.8617 409.357 83.8617L398.153 90.437L393.101 85.1285ZM423.533 122.235L423.558 122.293L423.527 122.297L423.533 122.235Z" fill="#666AF6"/>
<path fill-rule="evenodd" clip-rule="evenodd" d="M398.67 127.798C398.67 127.798 395.252 127.182 393.853 126.197C392.456 125.212 388.219 124.516 388.219 124.516L389.575 127.076C389.575 127.076 379.193 126.202 378.947 127.12C378.701 128.039 381.704 129.037 381.704 129.037C381.704 129.037 383.185 131.518 384.618 132.956C385.974 134.317 392.713 134.155 395.075 133.306C397.116 132.572 399.336 132.939 399.336 132.939L398.67 127.798Z" fill="#F8AE9D"/>
<path d="M406.62 62.2098C406.058 62.87 405.066 63.0155 404.249 63.1465C403.152 63.3215 402.608 63.6874 402.038 64.668C401.677 65.2949 401.317 65.9812 400.67 66.3205C400.145 66.5985 400.161 65.8957 400.083 65.3524C400.076 65.3017 400.065 65.2515 400.05 65.2021C399.924 64.7676 399.41 64.8406 399.261 65.2688C399.124 65.6569 398.832 65.9851 398.459 66.1678C398.399 66.1978 398.334 66.2239 398.27 66.2123C398.182 66.2012 398.114 66.1267 398.057 66.0596C397.938 65.9199 397.82 65.743 397.699 65.5554C397.297 64.9353 396.53 65.1528 396.081 65.7463C395.8 66.1156 395.466 66.496 395.006 66.582C394.858 66.6115 394.672 66.5893 394.604 66.4588C394.516 66.2983 394.653 66.1379 394.63 65.974C394.611 65.8208 394.539 65.7536 394.459 65.6231C394.148 65.1195 393.427 65.1011 392.988 65.5206C392.682 65.8126 392.363 66.0931 392.032 66.3616C391.891 66.4738 391.686 66.5854 391.545 66.4738C391.469 66.4138 391.45 66.3133 391.435 66.2161C391.355 65.7425 391.279 65.2688 391.2 64.7952C391.154 64.5303 390.998 64.1833 390.732 64.2504C390.603 64.2838 390.527 64.407 390.455 64.5192C390.367 64.6608 388.806 66.2761 388.776 66.1528C388.533 65.235 388.035 64.3998 387.792 63.4819C386.219 57.577 393.198 52.8283 398.528 52.8022C399.713 52.7949 400.796 52.8123 401.947 53.0622C403.174 53.331 404.47 53.7573 405.583 54.358C407.144 55.1971 408.326 56.723 408.022 58.5432" fill="#31446C"/>
<path d="M402.285 60.3011C401.534 61.0725 401.335 62.1571 401.265 63.1818C401.162 64.727 401.301 66.3327 402.09 67.7044C402.315 68.0949 402.48 70.0277 402.827 69.9209C402.937 69.8876 402.919 68.3887 403.21 67.5811C403.66 66.3293 405.73 65.8522 406.662 66.643C408.151 67.9016 407.278 69.4303 406.784 70.3815C406.489 70.9557 406.022 71.6 405.94 72.2071C405.841 72.9852 405.811 75.819 406.371 76.4797C406.839 77.0336 407.336 74.357 407.761 73.8296C410.896 69.9011 413.902 59.8975 408.549 57.7279C407.735 57.3973 405.222 57.2271 404.459 57.6476" fill="#31446C"/>
<path d="M153.565 189.554C155.639 187.694 155.639 184.678 153.565 182.818C151.491 180.958 148.128 180.958 146.054 182.818L129.045 198.074C126.971 199.934 126.971 202.95 129.045 204.81C131.119 206.67 134.482 206.67 136.556 204.81L153.565 189.554Z" fill="#E1E4E5"/>
<path d="M122.253 128.476C123.874 127.023 123.874 124.667 122.253 123.213C120.633 121.76 118.006 121.76 116.385 123.214L105.342 133.119C103.721 134.572 103.721 136.928 105.342 138.382C106.962 139.835 109.589 139.835 111.21 138.382L122.253 128.476Z" fill="#E1E4E5"/>
<path d="M169.739 56.3409C171.297 54.9437 171.297 52.6785 169.739 51.2815C168.181 49.8844 165.656 49.8845 164.098 51.2817L152.799 61.4158C151.241 62.8129 151.241 65.0781 152.799 66.4751C154.357 67.8722 156.882 67.8721 158.44 66.475L169.739 56.3409Z" fill="#E1E4E5"/>
<path d="M267.67 43.3928L267.67 43.3924C265.981 41.8782 263.244 41.8782 261.556 43.3924L250.584 53.2333C248.896 54.7475 248.896 57.2024 250.584 58.7166L250.584 58.717C252.273 60.2312 255.01 60.2312 256.698 58.717L267.67 48.8761C269.358 47.3619 269.358 44.9069 267.67 43.3928Z" fill="#E1E4E5"/>
<path d="M213.886 246.63C216.839 246.002 219.963 248.248 219.963 248.248C219.963 248.248 218.296 251.511 215.342 252.136C212.389 252.764 209.266 250.519 209.266 250.519C209.266 250.519 210.933 247.257 213.886 246.63Z" fill="url(#paint2_linear)"/>
<path d="M230.453 108.186C227.835 106.57 223.837 107.7 223.837 107.7C223.837 107.7 224.084 111.452 226.704 113.067C229.321 114.684 233.318 113.555 233.318 113.555C233.318 113.555 233.071 109.804 230.453 108.186Z" fill="url(#paint3_linear)"/>
<path d="M347.699 160.809C343.745 157.2 336.352 157.961 336.352 157.961C336.352 157.961 335.374 164.574 339.331 168.181C343.285 171.789 350.674 171.031 350.674 171.031C350.674 171.031 351.652 164.418 347.699 160.809Z" fill="url(#paint4_linear)"/>
<path d="M107.638 115.839C111.857 115.839 115.277 112.911 115.277 109.299C115.277 105.687 111.857 102.76 107.638 102.76C103.419 102.76 99.9995 105.687 99.9995 109.299C99.9995 112.911 103.419 115.839 107.638 115.839Z" fill="#666AF6"/>
<path d="M336.456 52.7326C340.675 52.7326 344.095 49.6652 344.095 45.8814C344.095 42.0976 340.675 39.0302 336.456 39.0302C332.238 39.0302 328.818 42.0976 328.818 45.8814C328.818 49.6652 332.238 52.7326 336.456 52.7326Z" fill="#666AF6"/>
<path d="M106.944 214.015C110.779 214.015 113.888 216.943 113.888 220.555C113.888 224.166 110.779 227.094 106.944 227.094C103.109 227.094 99.9995 224.166 99.9995 220.555C99.9995 216.943 103.109 214.015 106.944 214.015Z" fill="#666AF6"/>
<path d="M424.442 128.143C427.702 128.143 430.344 130.513 430.344 133.437C430.344 136.361 427.702 138.731 424.442 138.731C421.182 138.731 418.54 136.361 418.54 133.437C418.54 130.513 421.182 128.143 424.442 128.143Z" fill="#666AF6"/>
<path d="M223.961 98.4385C225.91 98.4385 227.491 99.8562 227.491 101.605C227.491 103.354 225.91 104.771 223.961 104.771C222.011 104.771 220.43 103.354 220.43 101.605C220.43 99.8562 222.011 98.4385 223.961 98.4385Z" fill="white"/>
<path d="M274.724 34.1698C276.775 34.1698 278.437 35.6607 278.437 37.4999C278.437 39.3391 276.775 40.8301 274.724 40.8301C272.674 40.8301 271.011 39.3391 271.011 37.4999C271.011 35.6607 272.674 34.1698 274.724 34.1698Z" fill="#E1E4E5"/>
<path d="M178.174 158.178C179.184 158.178 180.003 158.913 180.003 159.819C180.003 160.725 179.184 161.46 178.174 161.46C177.163 161.46 176.344 160.725 176.344 159.819C176.344 158.913 177.163 158.178 178.174 158.178Z" fill="#E1E4E5"/>
<path d="M217.201 248.04C218.743 248.04 219.994 249.161 219.994 250.545C219.994 251.928 218.743 253.049 217.201 253.049C215.659 253.049 214.409 251.928 214.409 250.545C214.409 249.161 215.659 248.04 217.201 248.04Z" fill="white"/>
<path d="M320.388 137.936C320.388 136.107 322.041 134.624 324.081 134.624C326.12 134.624 327.773 136.107 327.773 137.936C327.773 139.765 326.12 141.247 324.081 141.247C322.041 141.247 320.388 139.765 320.388 137.936Z" fill="#E1E4E5"/>
<path d="M336.852 200.513C338.962 200.513 340.671 202.047 340.671 203.939C340.671 205.83 338.962 207.364 336.852 207.364C334.743 207.364 333.033 205.83 333.033 203.939C333.033 202.047 334.743 200.513 336.852 200.513Z" fill="#E1E4E5"/>
<path d="M74.5161 137.762C77.0707 135.432 80.8042 135.009 82.8553 136.818C84.9063 138.627 84.4981 141.982 81.9435 144.312C79.389 146.643 75.6554 147.065 73.6044 145.256C71.5534 143.447 71.9616 140.092 74.5161 137.762Z" fill="#E1E4E5"/>
<path d="M217.801 158.584C217.258 156.766 218.461 154.896 220.489 154.409C222.517 153.921 224.601 155.001 225.145 156.82C225.688 158.638 224.485 160.508 222.457 160.995C220.429 161.483 218.344 160.403 217.801 158.584Z" fill="white"/>
<path d="M170.403 181.119H170.354C170.064 177.439 167.013 177.382 167.013 177.382C167.013 177.382 170.377 177.323 170.377 173.072C170.377 177.323 173.742 177.382 173.742 177.382C173.742 177.382 170.692 177.439 170.403 181.119ZM331.62 64.727H331.563C331.223 60.3248 327.644 60.2571 327.644 60.2571C327.644 60.2571 331.591 60.1866 331.591 55.1C331.591 60.1866 335.536 60.2571 335.536 60.2571C335.536 60.2571 331.96 60.3248 331.62 64.727Z" fill="#E1E4E5"/>
<defs>
<linearGradient id="paint0_linear" x1="224.871" y1="256.916" x2="130.493" y2="152.814" gradientUnits="userSpaceOnUse">
<stop stop-color="white"/>
<stop offset="1" stop-color="#EEEEEE"/>
</linearGradient>
<linearGradient id="paint1_linear" x1="142.792" y1="177.848" x2="142.045" y2="106.327" gradientUnits="userSpaceOnUse">
<stop stop-color="white"/>
<stop offset="1" stop-color="#EEEEEE"/>
</linearGradient>
<linearGradient id="paint2_linear" x1="225.007" y1="245.069" x2="200.253" y2="258.108" gradientUnits="userSpaceOnUse">
<stop stop-color="white"/>
<stop offset="1" stop-color="#EEEEEE"/>
</linearGradient>
<linearGradient id="paint3_linear" x1="220.256" y1="102.881" x2="238.523" y2="124.356" gradientUnits="userSpaceOnUse">
<stop stop-color="white"/>
<stop offset="1" stop-color="#EEEEEE"/>
</linearGradient>
<linearGradient id="paint4_linear" x1="331.925" y1="148.482" x2="356.296" y2="191.076" gradientUnits="userSpaceOnUse">
<stop stop-color="white"/>
<stop offset="1" stop-color="#EEEEEE"/>
</linearGradient>
</defs>
</svg>
