<svg width="335" height="241" viewBox="0 0 335 241" fill="none" xmlns="http://www.w3.org/2000/svg">
<g clip-path="url(#clip0)">
<path d="M335 89.2388H194.187V93.2719H335V89.2388Z" fill="#E6E6E6"/>
<path d="M241.5 55.5075H205.828V90.3388H241.5V55.5075Z" fill="#E6E6E6"/>
<path d="M234.366 62.4737H212.962V83.3725H234.366V62.4737Z" fill="#CCCCCC"/>
<path d="M294.821 55.5075H285.809V90.3388H294.821V55.5075Z" fill="#E6E6E6"/>
<path d="M294.821 61.0071H285.809V65.0402H294.821V61.0071Z" fill="#CCCCCC"/>
<path d="M294.821 78.6061H285.809V82.6392H294.821V78.6061Z" fill="#CCCCCC"/>
<path d="M280.928 55.5075H271.916V90.3388H280.928V55.5075Z" fill="#E6E6E6"/>
<path d="M280.928 61.0071H271.916V65.0402H280.928V61.0071Z" fill="#CCCCCC"/>
<path d="M280.928 78.6061H271.916V82.6392H280.928V78.6061Z" fill="#CCCCCC"/>
<path d="M302.586 55.3635L294.51 59.2677L310.338 90.4828L318.414 86.5786L302.586 55.3635Z" fill="#E6E6E6"/>
<path d="M305.085 60.2922L297.009 64.1964L298.842 67.8108L306.918 63.9065L305.085 60.2922Z" fill="#CCCCCC"/>
<path d="M313.082 76.064L305.006 79.9683L306.839 83.5826L314.915 79.6784L313.082 76.064Z" fill="#CCCCCC"/>
<path d="M219.158 69.4888L223.696 77.164L228.235 84.8391H219.158H210.081L214.62 77.164L219.158 69.4888Z" fill="#E6E6E6"/>
<path d="M227.044 70.9554L231.582 78.6305L236.12 86.3057H227.044H217.967L222.505 78.6305L227.044 70.9554Z" fill="#E6E6E6"/>
<path d="M230.235 68.7067C231.687 68.7067 232.864 67.5577 232.864 66.1402C232.864 64.7228 231.687 63.5737 230.235 63.5737C228.784 63.5737 227.607 64.7228 227.607 66.1402C227.607 67.5577 228.784 68.7067 230.235 68.7067Z" fill="#E6E6E6"/>
<path d="M194.187 37.9085L335 37.9085V33.8754L194.187 33.8754V37.9085Z" fill="#E6E6E6"/>
<path d="M287.687 34.9753L323.359 34.9753V0.144035L287.687 0.144035V34.9753Z" fill="#E6E6E6"/>
<path d="M294.821 28.0091L316.225 28.0091V7.11031L294.821 7.11031V28.0091Z" fill="#CCCCCC"/>
<path d="M234.366 34.9753H243.378V0.144035H234.366V34.9753Z" fill="#E6E6E6"/>
<path d="M234.366 9.67679L243.378 9.67679V5.64369L234.366 5.64369V9.67679Z" fill="#CCCCCC"/>
<path d="M234.366 27.2758H243.378V23.2427H234.366V27.2758Z" fill="#CCCCCC"/>
<path d="M248.259 34.9753H257.271V0.144035H248.259V34.9753Z" fill="#E6E6E6"/>
<path d="M248.259 9.67679L257.271 9.67679V5.64369L248.259 5.64369V9.67679Z" fill="#CCCCCC"/>
<path d="M248.259 27.2758H257.271V23.2427H248.259V27.2758Z" fill="#CCCCCC"/>
<path d="M210.773 31.2151L218.85 35.1194L234.677 3.90427L226.601 1.92192e-05L210.773 31.2151Z" fill="#E6E6E6"/>
<path d="M222.269 8.54311L230.345 12.4474L232.178 8.83297L224.102 4.92873L222.269 8.54311Z" fill="#CCCCCC"/>
<path d="M214.272 24.315L222.348 28.2192L224.181 24.6048L216.105 20.7006L214.272 24.315Z" fill="#CCCCCC"/>
<path d="M310.029 14.1252L305.491 21.8003L300.953 29.4755H310.029H319.106L314.567 21.8003L310.029 14.1252Z" fill="#E6E6E6"/>
<path d="M302.144 15.5918L297.605 23.2669L293.067 30.9421H302.144H311.22L306.682 23.2669L302.144 15.5918Z" fill="#E6E6E6"/>
<path d="M298.952 13.3433C300.404 13.3433 301.58 12.1942 301.58 10.7768C301.58 9.3593 300.404 8.21024 298.952 8.21024C297.5 8.21024 296.323 9.3593 296.323 10.7768C296.323 12.1942 297.5 13.3433 298.952 13.3433Z" fill="#E6E6E6"/>
<path d="M194.187 148.635L335 148.635V144.602L194.187 144.602V148.635Z" fill="#E6E6E6"/>
<path d="M287.687 145.702H323.359V110.871H287.687V145.702Z" fill="#E6E6E6"/>
<path d="M294.821 138.736H316.225V117.837H294.821V138.736Z" fill="#CCCCCC"/>
<path d="M234.366 145.702H243.378V110.871H234.366V145.702Z" fill="#E6E6E6"/>
<path d="M234.366 120.404H243.378V116.371H234.366V120.404Z" fill="#CCCCCC"/>
<path d="M234.366 138.003H243.378V133.97H234.366V138.003Z" fill="#CCCCCC"/>
<path d="M248.259 145.702H257.271V110.871H248.259V145.702Z" fill="#E6E6E6"/>
<path d="M248.259 120.404H257.271V116.371H248.259V120.404Z" fill="#CCCCCC"/>
<path d="M248.259 138.003H257.271V133.97H248.259V138.003Z" fill="#CCCCCC"/>
<path d="M210.773 141.942L218.85 145.846L234.677 114.631L226.601 110.727L210.773 141.942Z" fill="#E6E6E6"/>
<path d="M222.269 119.27L230.345 123.174L232.178 119.56L224.102 115.656L222.269 119.27Z" fill="#CCCCCC"/>
<path d="M214.272 135.042L222.348 138.946L224.181 135.332L216.105 131.427L214.272 135.042Z" fill="#CCCCCC"/>
<path d="M310.029 124.852L305.491 132.527L300.953 140.203H310.029H319.106L314.567 132.527L310.029 124.852Z" fill="#E6E6E6"/>
<path d="M302.144 126.319L297.605 133.994L293.067 141.669H302.144H311.22L306.682 133.994L302.144 126.319Z" fill="#E6E6E6"/>
<path d="M298.952 124.07C300.404 124.07 301.58 122.921 301.58 121.504C301.58 120.086 300.404 118.937 298.952 118.937C297.5 118.937 296.323 120.086 296.323 121.504C296.323 122.921 297.5 124.07 298.952 124.07Z" fill="#E6E6E6"/>
<path d="M165.878 241C257.489 241 331.755 235.85 331.755 229.497C331.755 223.144 257.489 217.994 165.878 217.994C74.266 217.994 0 223.144 0 229.497C0 235.85 74.266 241 165.878 241Z" fill="#E6E6E6"/>
<path d="M295.47 235.939C268.422 231.238 238.844 232.019 207.818 235.939C221.959 224.282 234.164 212.625 220.023 200.969C247.607 206.525 251.471 205.963 282.155 200.969C275.038 212.625 288.352 224.282 295.47 235.939Z" fill="#6C63FF"/>
<path opacity="0.2" d="M295.47 235.939C268.422 231.238 238.844 232.019 207.818 235.939C221.959 224.282 234.164 212.625 220.023 200.969C247.607 206.525 251.471 205.963 282.155 200.969C275.038 212.625 288.352 224.282 295.47 235.939Z" fill="black"/>
<path d="M288.872 230.965C265.896 227.213 240.771 227.837 214.416 230.965C226.428 221.661 236.796 212.356 224.783 203.052C248.215 207.487 251.497 207.038 277.562 203.052C271.517 212.356 282.827 221.661 288.872 230.965Z" fill="#6C63FF"/>
<path d="M280.121 215.974C286.882 215.974 292.363 210.622 292.363 204.02C292.363 197.418 286.882 192.067 280.121 192.067C273.36 192.067 267.879 197.418 267.879 204.02C267.879 210.622 273.36 215.974 280.121 215.974Z" fill="#2F2E41"/>
<path d="M224.547 190.156L233.03 191.536L237.271 203.499L225.019 210.862L210.881 190.156H224.076H224.547Z" fill="#EFB7B9"/>
<path d="M248.581 208.561C259.512 208.561 268.373 199.909 268.373 189.235C268.373 178.562 259.512 169.91 248.581 169.91C237.65 169.91 228.789 178.562 228.789 189.235C228.789 199.909 237.65 208.561 248.581 208.561Z" fill="#EFB7B9"/>
<path d="M139.252 118.835C139.252 118.835 91.1856 123.897 82.7033 122.977C74.2209 122.056 70.4509 121.136 70.4509 121.136C70.4509 121.136 64.796 128.498 67.6235 131.719C69.207 133.575 71.1232 135.134 73.2784 136.32C73.2784 136.32 78.4621 134.94 82.232 136.32C86.002 137.701 124.173 143.683 130.77 138.161C137.368 132.639 139.252 118.835 139.252 118.835Z" fill="#2F2E41"/>
<path d="M142.551 221.444C142.551 221.444 110.978 212.702 105.323 174.051V170.37C105.323 170.37 99.0757 181.071 96.8404 183.254C94.2486 185.784 85.0593 208.561 85.5306 210.861C86.0018 213.162 85.5306 214.082 85.5306 214.082L71.8645 212.702V208.561C71.8645 208.561 79.1688 187.165 79.64 182.103C80.1113 177.042 97.7829 141.842 97.7829 141.842C97.7829 141.842 104.38 128.498 115.69 141.842C127 155.186 127.942 164.388 127.942 164.388L142.551 191.996L142.551 221.444Z" fill="#2F2E41"/>
<path d="M71.8646 119.756L56.7848 114.694C56.7848 114.694 42.6475 104.572 45.9462 114.694C49.2449 124.817 64.3247 146.903 68.5659 144.603C72.8071 142.302 77.9078 136.592 76.7712 135.766C75.6346 134.94 68.0947 128.958 71.8646 119.756Z" fill="#2F2E41"/>
<path d="M73.6875 205.844L61.5144 211.649C61.5144 211.649 46.7934 213.86 55.0032 218.007C63.213 222.153 85.8606 226.576 86.993 222.706C88.1254 218.836 87.6761 212.413 86.4853 212.584C85.2944 212.755 77.0847 213.584 73.6875 205.844Z" fill="#2F2E41"/>
<path d="M136.425 191.076C136.425 191.076 130.299 216.843 140.666 222.365C151.033 227.886 223.605 228.806 229.26 218.684C234.915 208.561 232.087 208.561 232.087 208.561L217.007 191.996L229.26 191.076C229.26 191.076 229.26 187.395 225.019 186.935C220.777 186.475 207.583 181.873 196.273 185.094C184.963 188.315 178.366 178.652 178.366 178.652L136.425 191.076Z" fill="#575A89"/>
<path d="M128.414 110.553L120.403 153.345L175.538 146.904L185.434 108.252L128.414 110.553Z" fill="#3F3D56"/>
<path d="M130.063 112.164L123.466 150.354L173.653 144.603L183.313 109.863L130.063 112.164Z" fill="white"/>
<path d="M122.288 153.805L120.403 153.345L119.46 155.186L134.54 196.137L135.958 195.608L136.425 192.917L122.288 153.805Z" fill="#B3B3B3"/>
<path d="M120.403 152.885L135.483 195.677L192.503 187.395L175.538 146.904L120.403 152.885Z" fill="#D0CDE1"/>
<path d="M127.943 151.505V153.805L169.883 149.204L169.412 146.904L127.943 151.505Z" fill="#3F3D56"/>
<path d="M128.885 156.106L135.482 174.051L178.366 168.99L170.826 151.965L128.885 156.106Z" fill="#3F3D56"/>
<path d="M182.607 181.413L181.193 177.732C181.193 177.732 170.354 159.327 164.7 163.008C159.045 166.689 176.481 184.634 176.481 184.634H182.136L182.607 181.413Z" fill="#EFB7B9"/>
<path d="M146.792 184.174L145.378 178.652C145.378 178.652 141.609 161.628 148.206 162.548C154.803 163.468 156.688 179.573 156.688 179.573L156.217 183.254L146.792 184.174Z" fill="#EFB7B9"/>
<path d="M158.102 181.873C158.102 181.873 145.85 180.033 145.379 182.794C144.907 185.554 142.551 226.966 154.332 228.346C166.113 229.727 224.547 235.709 218.421 221.445C212.295 207.18 202.87 209.021 202.87 209.021L162.815 213.162L158.102 181.873Z" fill="#575A89"/>
<path d="M195.095 187.165L182.607 178.652L174.36 184.864L184.727 195.907L195.095 187.165Z" fill="#575A89"/>
<path opacity="0.2" d="M161.637 195.447L163.521 212.932L196.037 211.092L167.763 210.632L161.637 195.447Z" fill="black"/>
<path d="M258.351 215.753C271.364 215.753 281.913 205.453 281.913 192.747C281.913 180.041 271.364 169.74 258.351 169.74C245.338 169.74 234.789 180.041 234.789 192.747C234.789 205.453 245.338 215.753 258.351 215.753Z" fill="#2F2E41"/>
<path d="M137.132 125.507L166.349 124.514L169.176 114.004L139.017 114.893L137.132 125.507Z" fill="#6C63FF"/>
<path d="M129.592 131.489L173.889 130.109L174.36 128.268L130.063 129.791L129.592 131.489Z" fill="#E6E6E6"/>
<path d="M128.649 136.09L172.946 134.71L173.418 132.869L129.121 134.392L128.649 136.09Z" fill="#E6E6E6"/>
<path d="M128.178 139.771L172.475 138.391L172.946 136.551L128.649 138.073L128.178 139.771Z" fill="#E6E6E6"/>
</g>
<defs>
<clipPath id="clip0">
<rect width="335" height="241" fill="white"/>
</clipPath>
</defs>
</svg>
