<svg width="443" height="295" viewBox="0 0 443 295" fill="none" xmlns="http://www.w3.org/2000/svg">
<path fill-rule="evenodd" clip-rule="evenodd" d="M238.236 70.7995C238.236 81.6609 229.421 90.4667 218.547 90.4667C207.673 90.4667 198.858 81.6609 198.858 70.7995C198.858 59.9386 207.673 51.1333 218.547 51.1333C229.421 51.1333 238.236 59.9386 238.236 70.7995ZM365.762 110.037C372.708 110.037 369.459 99.0349 360.659 101.663C360.171 86.3868 335.244 75.2098 324.936 95.8135C322.022 93.5101 315.478 97.8608 316.927 101.663C313.689 101.939 311.143 102.312 309.161 102.808C304.586 103.952 305.492 109.985 310.208 109.943L365.762 110.037ZM234.898 110.037C228.33 110.037 231.403 99.6333 239.724 102.118C240.185 87.673 263.757 77.1037 273.504 96.5869C276.26 94.4088 282.448 98.5231 281.078 102.118C284.139 102.379 286.547 102.733 288.421 103.201C292.747 104.283 291.891 109.988 287.432 109.948L234.898 110.037ZM314.747 71.952C311.617 71.952 313.081 66.9945 317.046 68.1784C317.266 61.2951 328.498 56.259 333.143 65.5426C334.456 64.5047 337.405 66.4655 336.752 68.1784C338.21 68.3028 339.358 68.4715 340.251 68.6947C342.312 69.2099 341.904 71.9284 339.78 71.9097L314.747 71.952ZM287.141 90.2316H304.972C306.566 90.2316 307.253 88.1701 305.949 87.2556L305.893 87.2167C304.036 85.9419 301.598 86.0574 301.598 86.0574C301.598 86.0574 301.25 79.1583 294.691 79.1583C288.762 79.1583 286.397 84.9713 285.544 88.174C285.267 89.2144 286.063 90.2316 287.141 90.2316ZM93.2141 109.407H73.5262C71.9323 109.407 71.2447 107.345 72.5496 106.43L72.6052 106.392C74.4624 105.116 76.9003 105.232 76.9003 105.232C76.9003 105.232 77.2483 98.3333 83.8072 98.3333C87.05 98.3333 89.6701 103.87 89.6701 103.87C89.6701 103.87 94.0814 103.87 94.8113 107.349C95.0323 108.403 94.2925 109.407 93.2141 109.407ZM120.965 111.117H199.578C206.957 111.117 206.619 105.016 204.208 102.89C201.738 100.711 196.856 101.595 196.856 101.595C196.856 101.595 195.403 97.4916 190.619 95.4935C186.388 93.7264 181.955 94.5672 181.955 94.5672C181.955 94.5672 181.955 91.7509 179.246 89.4189C176.536 87.086 172.924 87.3131 172.924 87.3131C172.924 87.3131 170.441 71.7833 153.846 71.7833C137.252 71.7833 135.333 86.4055 135.333 86.4055C135.333 86.4055 131.607 86.4055 128.898 88.8997C126.189 91.3935 125.85 94.2269 125.85 94.2269C125.85 94.2269 116.79 93.0012 114.109 100.85C112.513 105.527 115.794 111.117 120.965 111.117ZM92.8449 79.1952H117.485C119.798 79.1952 119.692 77.2831 118.936 76.6164C118.162 75.9335 116.632 76.2108 116.632 76.2108C116.632 76.2108 116.176 74.9246 114.677 74.2982C113.351 73.7446 111.961 74.0081 111.961 74.0081C111.961 74.0081 111.961 73.1251 111.112 72.394C110.263 71.6629 109.131 71.7342 109.131 71.7342C109.131 71.7342 108.352 66.8667 103.151 66.8667C97.9497 66.8667 97.3482 71.45 97.3482 71.45C97.3482 71.45 96.1807 71.45 95.3316 72.2317C94.482 73.013 94.3762 73.9014 94.3762 73.9014C94.3762 73.9014 91.5361 73.5169 90.6963 75.9772C90.1957 77.4434 91.224 79.1952 92.8449 79.1952Z" fill="white" stroke="#E1E4E5" stroke-width="4"/>
<path d="M248.399 241.811V188.308M192.795 241.811V188.308V241.811Z" stroke="#E1E4E5" stroke-width="4" stroke-linecap="round" stroke-linejoin="round"/>
<path fill-rule="evenodd" clip-rule="evenodd" d="M183.558 211.486H257.606V202.922H183.558V211.486ZM183.558 199.028H257.606V189.946H183.558V199.028Z" fill="white" stroke="#E1E4E5" stroke-width="4"/>
<path fill-rule="evenodd" clip-rule="evenodd" d="M176.282 225.24H264.88V218.752H176.282V225.24Z" fill="white"/>
<path fill-rule="evenodd" clip-rule="evenodd" d="M176.282 225.24H264.88V218.752H176.282V225.24Z" fill="white" stroke="#E1E4E5" stroke-width="4"/>
<path d="M356.972 246.813C344.957 247.031 341.777 247.959 329.305 247.577C323.364 247.632 317.023 247.468 311.215 247.359C308.454 246.649 303.599 247.359 300.323 246.758L299.067 247.14C297.944 246.922 296.629 246.813 295.487 247.031L295.563 247.14C293.888 246.867 291.984 247.031 291.165 246.867L291.241 246.976L289.204 246.922L289.546 247.086C286.614 246.758 283.605 246.758 280.939 246.867L281.168 246.376C275.475 246.922 273.399 245.939 268.277 246.54L268.353 246.649C261.86 245.393 258.109 247.523 251.425 246.322C252.263 246.485 251.063 246.54 251.14 246.704C248.055 246.594 244.78 246.485 244.723 245.557C242.476 245.557 242.895 245.83 242.609 246.212C242.628 245.83 240.667 245.612 238.915 245.612L239.715 245.775L234.688 245.612L235.678 244.847C233.012 245.065 234.993 245.775 232.46 245.612L232.498 244.956C228.823 245.065 226.653 246.048 223.092 246.54C208.277 246.813 192.359 245.175 178.592 246.322L177.983 246.813C177.716 247.523 174.174 245.775 173.66 246.431L172.061 246.103C171.604 246.212 170.652 246.376 171.451 246.54C169.966 246.594 169.928 246.431 168.862 246.267L167.263 246.704C161.417 247.031 156.447 246.212 150.297 246.376C142.908 247.249 128.989 246.431 120.973 245.994C109.7 244.956 96.5996 247.741 85.061 246.54C84.68 246.649 83.7088 246.431 83.728 246.322L73.16 246.431C73.16 246.431 21.9576 246.704 60.8594 240.861L60.5926 240.697C66.3811 240.315 70.0182 240.26 73.9978 241.025C74.6258 240.097 78.7389 240.916 80.091 240.643L79.9576 240.588C83.4804 241.298 87.2125 239.987 90.6206 240.643C90.4877 240.588 90.4114 240.315 89.6307 240.315C92.1061 240.425 95.4956 240.643 95.6861 240.097C101.607 240.26 109.853 239.987 113.642 240.861L113.376 240.697C115.527 241.298 116.174 240.807 118.593 241.079C118.726 241.025 118.897 240.97 118.859 240.916C121.22 241.517 125.733 241.025 127.618 241.243L127.733 240.861L132.417 240.97L130.665 241.025C131.274 242.008 134.206 240.37 137.596 241.025C140.776 240.916 144.051 243.1 147.345 242.609C148.926 243.1 145.955 241.844 148.316 242.226C148.392 241.68 147.212 241.899 147.821 241.462C150.125 241.735 151.61 240.916 154.467 241.298L154.581 240.916C158.294 241.68 161.588 240.369 164.064 241.079C167.891 241.407 166.634 239.878 170.633 240.643L172.194 240.097C173.908 239.987 173.413 240.752 175.317 240.479C175.203 240.151 177.716 240.206 176.593 239.878C180.877 239.332 185.295 240.643 190.95 239.715C192.168 240.369 195.025 239.987 195.939 240.479C196.091 240.206 201.632 240.424 198.452 239.769C198.185 239.715 197.691 239.715 197.729 239.824L197.348 239.441C200.566 238.677 203.193 239.878 206.392 239.715C205.44 239.824 204.184 239.824 205.021 240.097L207.992 240.042L207.383 239.715L211.8 239.496L211.191 239.933C213.342 239.715 214.104 239.005 216.541 239.605C217.646 239.933 214.504 240.151 216.77 240.315C219.665 240.042 223.987 239.605 227.662 239.496C227.319 239.987 228.309 239.933 229.337 240.042L229.451 239.66C233.355 240.206 230.88 238.786 234.764 239.223L234.421 238.95L235.45 239.824C238.953 240.643 237.335 239.005 241.219 240.097C239.677 240.042 240.496 240.97 242.381 240.807L241.905 240.425C242.952 240.534 243.295 240.697 243.999 240.588C243.371 240.369 243.676 240.042 245.218 240.097L244.189 239.605L247.103 240.315C249.35 239.878 252.911 240.424 253.843 239.878C253.843 239.878 258.68 239.605 259.785 240.206C258.813 239.824 261.479 239.66 260.717 239.223C261.974 239.66 265.668 239.987 267.154 239.551L266.868 239.496C272.352 239.005 276.236 240.151 281.149 239.551C280.921 240.042 283.529 239.769 282.882 240.369C287.966 240.97 292.155 239.114 294.002 241.025C296.325 241.134 296.744 240.588 297.944 240.479L297.391 240.369C301.733 240.534 302.989 240.534 306.207 240.479C307.807 240.643 308.074 241.517 310.949 241.298C310.016 240.97 311.196 241.025 312.262 241.025C311.577 240.97 311.367 240.861 312.777 240.588C312.967 240.697 313.291 240.752 313.577 240.807C313.595 240.807 313.652 240.752 313.614 240.697C315.404 240.807 315.1 240.916 314.262 240.97C314.3 241.025 314.243 241.079 313.976 241.189C315.842 240.752 319.175 241.243 319.403 240.643C324.811 240.807 328.676 241.407 333.17 241.626C333.684 241.298 332.618 241.025 331.323 240.916L334.522 241.025C334.503 240.588 332.694 240.752 331.704 240.697C335.512 239.987 339.549 241.407 344.005 240.752L344.938 241.079L345.204 241.025C345.185 241.189 346.194 241.462 346.842 241.517C347.47 241.134 346.804 240.643 349.013 240.643C350.764 240.26 353.963 240.807 356.248 241.025C355.01 241.079 355.411 241.298 355.944 241.462C357.048 241.462 357.676 241.079 358.533 241.243L358.647 240.752C358.209 241.243 361.522 241.298 361.941 241.462C362.57 241.079 360.228 241.134 359.961 240.861C364.379 240.916 362.17 240.861 366.607 240.916C368.968 241.298 366.169 241.407 367.311 241.844C369.387 241.953 371.424 242.281 373.824 242.008L373.062 242.445C376.984 242.827 379.326 242.772 381.954 242.281C411.126 245.994 388.104 247.359 388.104 247.359C376.565 248.506 370.643 247.195 356.972 246.813Z" fill="#E1E4E5"/>
<path d="M363.441 249.882C350.852 250.391 347.52 252.552 334.453 251.662C328.228 251.789 321.585 251.408 315.5 251.154C312.606 249.501 307.519 251.154 304.088 249.755L302.771 250.645C301.594 250.136 300.217 249.882 299.02 250.391L299.1 250.645C297.345 250.009 295.349 250.391 294.492 250.009L294.571 250.263L292.437 250.136L292.796 250.518C289.723 249.755 286.571 249.755 283.778 250.009L284.017 248.865C278.052 250.136 275.877 247.848 270.511 249.247L270.59 249.501C263.787 246.577 259.857 251.535 252.855 248.738C253.732 249.119 252.475 249.247 252.555 249.628C249.323 249.373 245.892 249.119 245.832 246.958C243.478 246.958 243.916 247.594 243.617 248.483C243.637 247.594 241.582 247.085 239.747 247.085L240.585 247.467L235.318 247.085L236.355 245.305C233.562 245.814 235.637 247.467 232.984 247.085L233.023 245.559C229.173 245.814 226.899 248.102 223.168 249.247C207.646 249.882 190.968 246.068 176.543 248.738L175.905 249.882C175.625 251.535 171.915 247.467 171.376 248.992L169.7 248.229C169.221 248.483 168.224 248.865 169.062 249.247C167.505 249.373 167.465 248.992 166.349 248.611L164.673 249.628C158.548 250.391 153.341 248.483 146.896 248.865C139.156 250.899 124.572 248.992 116.172 247.975C104.362 245.559 90.6354 252.043 78.5455 249.247C78.1463 249.501 77.1288 248.992 77.149 248.738L66.0765 248.992C66.0765 248.992 12.4292 249.628 53.1881 236.025L52.9091 235.644C58.9737 234.754 62.7845 234.626 66.9541 236.406C67.6127 234.245 71.9216 236.152 73.3383 235.516L73.1985 235.389C76.8896 237.042 80.7998 233.991 84.3709 235.516C84.2316 235.389 84.1519 234.753 83.3338 234.753C85.9273 235.007 89.4782 235.516 89.6781 234.245C95.8825 234.626 104.521 233.991 108.491 236.025L108.212 235.644C110.467 237.042 111.145 235.897 113.679 236.533C113.818 236.406 113.998 236.279 113.958 236.152C116.432 237.55 121.16 236.406 123.135 236.915L123.255 236.025L128.163 236.279L126.327 236.406C126.966 238.694 130.038 234.88 133.589 236.406C136.921 236.152 140.353 241.237 143.804 240.093C145.46 241.237 142.348 238.313 144.822 239.203C144.901 237.932 143.664 238.44 144.303 237.423C146.717 238.059 148.273 236.152 151.266 237.042L151.385 236.152C155.276 237.932 158.727 234.88 161.321 236.533C165.331 237.296 164.014 233.736 168.204 235.516L169.84 234.245C171.636 233.991 171.117 235.77 173.112 235.135C172.992 234.372 175.625 234.499 174.449 233.736C178.937 232.465 183.566 235.516 189.491 233.355C190.768 234.88 193.76 233.991 194.718 235.135C194.878 234.499 200.684 235.007 197.352 233.482C197.073 233.355 196.554 233.355 196.594 233.609L196.194 232.719C199.566 230.939 202.319 233.736 205.671 233.355C204.673 233.609 203.357 233.609 204.234 234.245L207.347 234.117L206.709 233.355L211.337 232.846L210.699 233.864C212.953 233.355 213.751 231.702 216.305 233.101C217.462 233.863 214.17 234.372 216.544 234.753C219.577 234.117 224.105 233.101 227.956 232.846C227.597 233.991 228.634 233.863 229.712 234.117L229.831 233.228C233.921 234.499 231.328 231.193 235.397 232.211L235.039 231.575L236.116 233.609C239.787 235.516 238.091 231.702 242.161 234.245C240.545 234.118 241.403 236.279 243.378 235.897L242.879 235.008C243.976 235.262 244.335 235.643 245.074 235.389C244.415 234.88 244.734 234.118 246.35 234.245L245.273 233.101L248.326 234.753C250.68 233.736 254.411 235.007 255.388 233.736C255.388 233.736 260.456 233.101 261.613 234.499C260.595 233.609 263.388 233.228 262.59 232.211C263.907 233.228 267.777 233.991 269.334 232.973L269.034 232.846C274.78 231.702 278.85 234.372 283.998 232.973C283.758 234.117 286.491 233.482 285.813 234.88C291.14 236.279 295.529 231.957 297.464 236.406C299.898 236.66 300.337 235.389 301.594 235.135L301.015 234.88C305.564 235.262 306.881 235.262 310.253 235.135C311.928 235.516 312.208 237.55 315.22 237.042C314.243 236.279 315.48 236.406 316.597 236.406C315.879 236.279 315.659 236.025 317.135 235.389C317.335 235.643 317.674 235.77 317.974 235.897C317.993 235.897 318.053 235.77 318.014 235.644C319.889 235.898 319.569 236.152 318.692 236.279C318.732 236.406 318.672 236.533 318.393 236.788C320.348 235.77 323.839 236.915 324.078 235.516C329.744 235.897 333.794 237.296 338.503 237.804C339.041 237.042 337.924 236.406 336.567 236.152L339.919 236.406C339.899 235.389 338.004 235.77 336.967 235.644C340.957 233.991 345.186 237.296 349.854 235.77L350.832 236.533L351.112 236.406C351.091 236.788 352.149 237.423 352.827 237.55C353.486 236.66 352.788 235.516 355.102 235.516C356.937 234.626 360.289 235.898 362.683 236.406C361.386 236.533 361.805 237.042 362.364 237.423C363.521 237.423 364.179 236.533 365.077 236.915L365.197 235.77C364.738 236.915 368.209 237.042 368.648 237.423C369.307 236.533 366.853 236.66 366.573 236.025C371.202 236.152 368.888 236.025 373.536 236.152C376.01 237.042 373.077 237.296 374.274 238.313C376.449 238.568 378.583 239.33 381.097 238.694L380.299 239.712C384.409 240.602 386.863 240.474 389.616 239.33C420.181 247.975 396.06 251.154 396.06 251.154C383.97 253.823 377.765 250.772 363.441 249.882Z" fill="#E1E4E5"/>
<path d="M296.229 241.692C296.229 241.692 288.943 232.368 285.898 230.939C282.653 229.417 285.467 234.692 285.467 234.692C285.467 234.692 278.528 227.897 276.899 229.594C275.269 231.29 277.009 232.878 277.009 232.878C277.009 232.878 271.2 231.802 270.352 233.972C269.05 237.306 278.607 238.964 278.607 238.964C278.607 238.964 274.029 237.962 274.945 240.027C276.325 243.139 296.229 241.692 296.229 241.692ZM298.174 241.927C298.174 241.927 309.783 242.745 312.043 240.673C314.305 238.601 312.062 234.847 312.062 234.847C312.062 234.847 316.045 231.707 315.983 229.657C315.922 227.608 313.326 228.648 313.326 228.648C313.326 228.648 317.724 223.002 316.682 221.928C314.738 219.928 309.653 225.797 309.653 225.797C309.653 225.797 311.162 223.005 309.57 222.562C307.169 221.893 305.402 228.779 305.402 228.779C305.402 228.779 305.851 226.059 304.195 226.421C301.225 227.068 298.174 241.927 298.174 241.927Z" fill="#E1E4E5"/>
<path fill-rule="evenodd" clip-rule="evenodd" d="M311.36 193.56C310.187 195.29 310.962 199.524 312.268 203.88C311.287 202.859 310.201 202.311 309.042 202.634C305.825 203.529 308.874 209.171 308.874 209.171C308.874 209.171 298.599 197.312 294.672 201.353C292.565 203.523 301.453 214.932 301.453 214.932C301.453 214.932 296.208 212.83 296.083 216.972C296.045 218.235 296.768 219.703 297.79 221.133C297.326 222.455 297.067 223.455 297.067 223.455C297.067 223.455 297.694 219.686 295.381 220.186C293.775 220.533 292.154 223.824 290.768 227.731C287.942 225.467 284.598 223.306 283.385 224.579C281.132 226.942 283.537 229.154 283.537 229.154C283.537 229.154 275.508 227.654 274.336 230.678C272.759 234.751 282.724 237.029 285.198 237.527C283.69 237.265 279.648 236.761 280.683 239.112C281.211 240.311 283.698 241.025 287.018 241.429L286.966 241.679C286.966 241.679 290.887 241.954 295.25 241.891C302.66 241.977 310.1 241.432 310.1 241.432L310.031 241.342C316.503 242.389 325.88 242.088 329.999 241.883C342.024 242.186 358.369 241.852 360.112 237.924C361.625 234.514 355.716 235.245 353.511 235.625C357.128 234.902 371.699 231.599 369.392 225.689C367.679 221.304 355.939 223.479 355.939 223.479C355.939 223.479 359.456 220.271 356.163 216.843C354.492 215.103 350.059 217.782 346.097 220.842C345.642 219.754 344.569 219.688 343.597 219.629C342.677 219.571 341.846 219.52 341.714 218.614C341.483 217.014 344.468 216.089 347.628 215.111C351.221 213.999 355.04 212.816 354.621 210.491C354.205 208.185 351.143 209.417 348.305 210.558C345.881 211.533 343.621 212.442 343.316 211.023C343.151 210.255 345.608 209.619 348.599 208.843C353.026 207.696 358.623 206.245 358.623 203.62C358.623 200.884 354.225 201.849 350.322 202.706C347.949 203.227 345.76 203.707 344.854 203.291C343.966 202.883 346.692 201.284 350.328 199.153C356.493 195.537 365.271 190.39 363.47 186.915C362.049 184.173 355.754 187.626 350.42 190.552C346.988 192.435 343.953 194.099 342.871 193.755C341.531 193.328 343.743 190.691 346.767 187.088C349.979 183.258 354.108 178.337 355.863 173.816C359.388 164.74 355.664 160.613 349.584 168.094C348.258 169.724 346.752 171.672 345.199 173.68L345.199 173.68C339.631 180.881 333.468 188.851 332.892 185.754C332.636 184.375 333.236 181.611 333.877 178.661C335.076 173.143 336.416 166.976 332.548 168.011C324.175 170.254 322.817 182.565 321.456 194.9C321.12 197.947 320.784 200.995 320.342 203.893C320.277 204.314 319.873 203.32 319.24 201.764C317.541 197.591 314.199 189.376 311.36 193.56Z" fill="white"/>
<path d="M312.268 203.88L311.557 204.561L313.211 203.599L312.268 203.88ZM311.36 193.56L310.545 193.008L311.36 193.56ZM309.042 202.634L309.306 203.581L309.042 202.634ZM308.874 209.171L308.13 209.814L309.741 208.704L308.874 209.171ZM294.672 201.353L293.965 200.668L293.965 200.668L294.672 201.353ZM301.452 214.932L301.086 215.845L304.466 217.199L302.23 214.328L301.452 214.932ZM296.083 216.972L295.099 216.943L296.083 216.972ZM297.79 221.134L298.719 221.459L298.888 220.978L298.591 220.562L297.79 221.134ZM297.067 223.455L296.096 223.293L298.02 223.701L297.067 223.455ZM295.38 220.186L295.589 221.147H295.589L295.38 220.186ZM290.768 227.731L290.153 228.498L291.233 229.364L291.696 228.059L290.768 227.731ZM283.384 224.579L284.097 225.257L283.384 224.579ZM283.537 229.154L283.356 230.121L286.726 230.75L284.204 228.43L283.537 229.154ZM274.336 230.678L273.418 230.323L274.336 230.678ZM285.198 237.527L285.029 238.496L285.393 236.563L285.198 237.527ZM280.683 239.112L281.584 238.716L280.683 239.112ZM287.018 241.429L287.981 241.635L288.206 240.583L287.137 240.453L287.018 241.429ZM286.965 241.679L286.001 241.48L285.773 242.581L286.896 242.66L286.965 241.679ZM295.25 241.891L295.261 240.907H295.236L295.25 241.891ZM310.1 241.432L310.172 242.413L312.001 242.279L310.878 240.83L310.1 241.432ZM310.03 241.342L310.187 240.372L307.712 239.972L309.254 241.947L310.03 241.342ZM329.998 241.883L330.023 240.9L329.986 240.899L329.949 240.901L329.998 241.883ZM360.112 237.924L359.211 237.526V237.526L360.112 237.924ZM353.511 235.625L353.317 234.661L353.678 236.594L353.511 235.625ZM369.391 225.689L370.309 225.332V225.332L369.391 225.689ZM355.939 223.479L355.275 222.753L352.732 225.074L356.119 224.446L355.939 223.479ZM356.163 216.843L355.452 217.524L356.163 216.843ZM346.097 220.842L345.188 221.221L345.683 222.405L346.699 221.62L346.097 220.842ZM343.597 219.629L343.536 220.61L343.597 219.629ZM341.714 218.614L340.74 218.755V218.756L341.714 218.614ZM347.628 215.111L347.337 214.172L347.628 215.111ZM354.621 210.491L355.59 210.317V210.316L354.621 210.491ZM348.305 210.558L348.673 211.47L348.305 210.558ZM343.316 211.023L344.278 210.816L343.316 211.023ZM348.599 208.843L348.351 207.892L348.599 208.843ZM350.322 202.706L350.533 203.666L350.322 202.706ZM344.854 203.291L344.443 204.185L344.854 203.291ZM350.328 199.153L350.826 200.001L350.838 199.994L350.849 199.986L350.328 199.153ZM350.328 199.153L349.83 198.304L349.818 198.311L349.806 198.319L350.328 199.153ZM363.47 186.915L362.595 187.367L363.47 186.915ZM350.42 190.552L350.894 191.414L350.42 190.552ZM342.871 193.755L342.572 194.692L342.871 193.755ZM346.766 187.088L346.012 186.456L346.766 187.088ZM355.863 173.816L354.945 173.46L355.863 173.816ZM349.583 168.093L348.819 167.473L349.583 168.093ZM345.199 173.68L345.973 174.288L345.975 174.285L345.978 174.281L345.199 173.68ZM345.199 173.68L344.426 173.072L344.423 173.076L344.42 173.079L345.199 173.68ZM332.892 185.754L331.925 185.934L332.892 185.754ZM333.877 178.661L334.839 178.87L333.877 178.661ZM332.548 168.011L332.293 167.061L332.548 168.011ZM321.456 194.9L320.477 194.792L320.471 194.847V194.9H321.456ZM321.456 194.9L322.434 195.008L322.44 194.954V194.9H321.456ZM320.342 203.893L321.315 204.042V204.041L320.342 203.893ZM319.239 201.764L318.306 202.075L318.316 202.105L318.327 202.134L319.239 201.764ZM319.239 201.764L320.173 201.453L320.163 201.423L320.152 201.394L319.239 201.764ZM313.211 203.599C312.565 201.444 312.063 199.359 311.863 197.622C311.762 196.754 311.74 196.003 311.803 195.389C311.866 194.765 312.009 194.357 312.175 194.112L310.545 193.008C310.125 193.628 309.925 194.398 309.844 195.191C309.763 195.993 309.797 196.897 309.906 197.848C310.126 199.75 310.665 201.961 311.324 204.163L313.211 203.599ZM309.306 203.581C309.948 203.403 310.678 203.646 311.557 204.561L312.978 203.199C311.895 202.073 310.453 201.22 308.777 201.687L309.306 203.581ZM308.874 209.171L309.741 208.704L309.741 208.704L309.74 208.703C309.732 208.687 309.723 208.671 309.715 208.655C309.696 208.618 309.668 208.563 309.632 208.491C309.534 208.291 309.44 208.089 309.351 207.884C309.128 207.37 308.872 206.696 308.71 206.012C308.543 205.307 308.504 204.702 308.613 204.275C308.701 203.929 308.874 203.701 309.306 203.581L308.778 201.687C307.601 202.014 306.949 202.828 306.704 203.791C306.48 204.674 306.6 205.647 306.794 206.464C306.992 207.303 307.297 208.095 307.545 208.666C307.67 208.955 307.784 209.194 307.867 209.362C307.908 209.446 307.942 209.512 307.967 209.56L307.996 209.615L308.004 209.63L308.006 209.635L308.007 209.637L308.008 209.637L308.874 209.171ZM295.378 202.038C295.962 201.437 296.848 201.305 298.215 201.795C299.575 202.283 301.126 203.305 302.628 204.513C304.117 205.709 305.494 207.035 306.503 208.068C307.021 208.597 307.527 209.139 308.021 209.691L308.104 209.784L308.124 209.807L308.129 209.813L308.13 209.814L308.874 209.171L309.618 208.527L309.618 208.526C309.615 208.523 309.612 208.52 309.609 208.516L309.585 208.489C309.443 208.327 309.299 208.166 309.153 208.006C308.857 207.683 308.433 207.228 307.912 206.694C306.872 205.63 305.435 204.244 303.863 202.981C302.306 201.729 300.552 200.543 298.88 199.944C297.216 199.347 295.345 199.248 293.965 200.668L295.378 202.038ZM301.452 214.932L302.23 214.328L302.229 214.328L302.228 214.327C302.227 214.325 302.225 214.323 302.224 214.321L302.206 214.298L302.134 214.205C301.714 213.655 301.3 213.099 300.894 212.539C300.101 211.446 299.07 209.971 298.106 208.435C297.137 206.888 296.263 205.321 295.759 204.033C295.506 203.385 295.37 202.864 295.34 202.482C295.308 202.083 295.402 202.014 295.378 202.038L293.965 200.668C293.415 201.235 293.326 201.997 293.377 202.638C293.429 203.295 293.641 204.021 293.925 204.748C294.496 206.209 295.449 207.901 296.438 209.479C297.433 211.066 298.492 212.579 299.3 213.693C299.717 214.267 300.141 214.837 300.572 215.402L300.648 215.5L300.668 215.527L300.673 215.533L300.675 215.535L300.675 215.535C300.675 215.536 300.676 215.536 301.452 214.932ZM297.067 217.002C297.092 216.192 297.349 215.856 297.569 215.69C297.833 215.49 298.249 215.379 298.809 215.382C299.356 215.385 299.925 215.497 300.376 215.618C300.603 215.679 300.827 215.75 301.048 215.83L301.081 215.843L301.087 215.845C301.088 215.845 301.088 215.845 301.087 215.845H301.087V215.845C301.086 215.845 301.086 215.845 301.452 214.932C301.819 214.02 301.819 214.019 301.818 214.019L301.818 214.019L301.816 214.018L301.81 214.016C301.805 214.014 301.799 214.012 301.794 214.009L301.739 213.989C301.459 213.885 301.175 213.795 300.886 213.719C300.35 213.575 299.6 213.42 298.821 213.415C298.054 213.411 297.135 213.551 296.38 214.122C295.582 214.727 295.137 215.681 295.099 216.943L297.067 217.002ZM298.591 220.562C297.589 219.16 297.04 217.921 297.067 217.002L295.099 216.943C295.051 218.549 295.946 220.247 296.989 221.705L298.591 220.562ZM297.067 223.455L298.02 223.701V223.701V223.701L298.021 223.7L298.023 223.693L298.031 223.662L298.064 223.538C298.26 222.838 298.478 222.145 298.719 221.459L296.861 220.808C296.663 221.371 296.48 221.939 296.31 222.511C296.242 222.741 296.177 222.972 296.115 223.204L296.115 223.207L296.114 223.208V223.208L297.067 223.455ZM295.589 221.147C295.758 221.111 295.838 221.126 295.86 221.132C295.877 221.137 295.892 221.146 295.903 221.16C295.965 221.225 296.062 221.411 296.118 221.779C296.169 222.122 296.167 222.5 296.147 222.81C296.137 222.96 296.123 223.086 296.113 223.173L296.1 223.27C296.099 223.278 296.098 223.285 296.097 223.292L296.096 223.295V223.294L297.067 223.455L298.038 223.615L298.039 223.614V223.612L298.039 223.609L298.042 223.596L298.048 223.554C298.078 223.35 298.099 223.144 298.111 222.937C298.136 222.556 298.146 222.023 298.065 221.487C297.988 220.975 297.808 220.312 297.337 219.812C296.797 219.238 296.031 219.039 295.172 219.225L295.589 221.147ZM291.696 228.059C292.381 226.127 293.11 224.392 293.846 223.113C294.214 222.474 294.565 221.981 294.89 221.641C295.224 221.291 295.46 221.175 295.589 221.147L295.172 219.225C294.498 219.371 293.93 219.797 293.465 220.283C292.991 220.78 292.55 221.419 292.139 222.134C291.316 223.564 290.541 225.428 289.84 227.402L291.696 228.059ZM284.097 225.257C284.113 225.241 284.192 225.154 284.544 225.193C284.906 225.234 285.408 225.399 286.035 225.709C287.278 226.325 288.754 227.378 290.153 228.498L291.384 226.963C289.957 225.82 288.348 224.659 286.909 223.947C286.195 223.593 285.455 223.316 284.762 223.238C284.056 223.16 283.263 223.281 282.671 223.901L284.097 225.257ZM283.537 229.154C284.204 228.43 284.204 228.431 284.205 228.431L284.205 228.432L284.207 228.433L284.208 228.434L284.208 228.435L284.201 228.427C284.12 228.345 284.044 228.258 283.974 228.167C283.791 227.937 283.644 227.68 283.538 227.406C283.424 227.106 283.373 226.786 283.429 226.454C283.483 226.13 283.653 225.723 284.097 225.257L282.671 223.901C281.99 224.616 281.615 225.372 281.487 226.127C281.361 226.875 281.488 227.551 281.695 228.099C281.871 228.558 282.116 228.988 282.42 229.375C282.544 229.535 282.678 229.687 282.82 229.83L282.852 229.86L282.863 229.87L282.867 229.874C282.868 229.875 282.868 229.875 282.869 229.876L282.87 229.877C282.87 229.877 282.871 229.877 283.537 229.154ZM275.254 231.033C275.388 230.687 275.762 230.351 276.56 230.103C277.341 229.861 278.342 229.767 279.377 229.765C280.401 229.764 281.399 229.853 282.146 229.943C282.525 229.989 282.902 230.044 283.278 230.107L283.339 230.117L283.353 230.12L283.356 230.121L283.537 229.154L283.718 228.187L283.717 228.187H283.715C283.713 228.186 283.711 228.186 283.709 228.185L283.689 228.182C283.574 228.162 283.459 228.143 283.344 228.124C283.024 228.074 282.704 228.029 282.383 227.991C281.587 227.894 280.505 227.797 279.374 227.799C278.257 227.801 277.03 227.898 275.976 228.225C274.938 228.547 273.87 229.157 273.418 230.323L275.254 231.033ZM285.393 236.563C284.169 236.317 281.145 235.639 278.643 234.543C277.38 233.989 276.35 233.371 275.735 232.721C275.157 232.109 275.037 231.592 275.254 231.032L273.418 230.323C272.845 231.8 273.38 233.095 274.304 234.072C275.191 235.01 276.511 235.756 277.852 236.344C280.557 237.529 283.753 238.239 285.003 238.491L285.393 236.563ZM281.584 238.716C281.418 238.338 281.567 238.39 281.465 238.501C281.458 238.509 281.488 238.473 281.609 238.428C281.727 238.383 281.893 238.343 282.111 238.315C283.02 238.2 284.279 238.366 285.029 238.496L285.367 236.559C284.609 236.427 283.093 236.209 281.864 236.364C281.28 236.438 280.52 236.621 280.015 237.171C279.399 237.84 279.431 238.711 279.782 239.508L281.584 238.716ZM287.137 240.453C285.504 240.254 284.131 239.985 283.124 239.639C282.621 239.466 282.243 239.285 281.979 239.108C281.712 238.928 281.616 238.789 281.584 238.716L279.782 239.508C280.014 240.035 280.427 240.434 280.879 240.739C281.333 241.045 281.884 241.293 282.483 241.498C283.681 241.91 285.211 242.199 286.899 242.405L287.137 240.453ZM286.965 241.679L287.93 241.878V241.878L287.93 241.875L287.933 241.864L287.942 241.817L287.981 241.635L286.055 241.224L286.015 241.413C286.011 241.434 286.007 241.455 286.002 241.475L286.002 241.479V241.48H286.001L286.965 241.679ZM295.236 240.907C293.327 240.931 291.418 240.904 289.511 240.826C288.908 240.802 288.305 240.773 287.702 240.739C287.487 240.727 287.319 240.717 287.205 240.71L287.076 240.701L287.044 240.699L287.036 240.698H287.034L286.965 241.679L286.897 242.66H286.898L286.9 242.661L286.909 242.661L286.945 242.664L287.08 242.672L287.591 242.703C288.031 242.728 288.663 242.76 289.432 242.791C290.97 242.852 293.059 242.905 295.264 242.874L295.236 240.907ZM310.1 241.432L310.028 240.452H310.023C310.018 240.452 310.013 240.453 310.008 240.453L309.945 240.457L309.699 240.474C308.27 240.568 306.84 240.647 305.409 240.712C302.633 240.837 298.941 240.951 295.261 240.907L295.238 242.874C298.969 242.918 302.701 242.802 305.498 242.676C306.944 242.611 308.388 242.531 309.832 242.436L310.084 242.419L310.149 242.414L310.166 242.413L310.17 242.413H310.172L310.1 241.432ZM309.254 241.947L309.305 242.013L309.318 242.029L309.321 242.033L309.321 242.034L309.322 242.034L310.1 241.432L310.878 240.83V240.83L310.877 240.828L310.873 240.824L310.86 240.806L310.807 240.738L309.254 241.947ZM329.949 240.901C325.823 241.106 316.544 241.4 310.187 240.372L309.873 242.314C316.461 243.378 325.936 243.069 330.047 242.866L329.949 240.901ZM359.211 237.526C359.107 237.761 358.848 238.064 358.301 238.393C357.763 238.718 357.022 239.023 356.084 239.3C354.208 239.852 351.7 240.245 348.821 240.512C343.071 241.043 336.025 241.051 330.023 240.9L329.973 242.867C335.998 243.018 343.136 243.012 349.002 242.47C351.929 242.199 354.585 241.791 356.64 241.186C357.668 240.883 358.584 240.52 359.32 240.076C360.048 239.637 360.68 239.07 361.011 238.323L359.211 237.526ZM353.678 236.594C354.776 236.405 356.678 236.153 358.083 236.329C358.818 236.421 359.179 236.604 359.306 236.741C359.344 236.782 359.365 236.821 359.371 236.898C359.378 236.997 359.359 237.195 359.211 237.526L361.011 238.323C361.243 237.801 361.37 237.276 361.335 236.763C361.304 236.256 361.098 235.776 360.751 235.405C360.127 234.732 359.157 234.481 358.328 234.378C356.606 234.162 354.45 234.466 353.344 234.656L353.678 236.594ZM368.474 226.047C368.871 227.061 368.604 227.985 367.679 228.955C366.718 229.963 365.145 230.89 363.28 231.7C359.574 233.312 355.113 234.302 353.317 234.661L353.704 236.59C355.526 236.225 360.159 235.203 364.066 233.504C366.007 232.66 367.871 231.606 369.105 230.311C370.376 228.977 371.066 227.272 370.309 225.332L368.474 226.047ZM355.939 223.479L356.118 224.446H356.119L356.124 224.445L356.146 224.441L356.238 224.425C356.321 224.411 356.443 224.39 356.6 224.366C356.914 224.317 357.367 224.25 357.918 224.184C359.021 224.052 360.5 223.921 362.021 223.923C363.555 223.925 365.071 224.063 366.277 224.434C367.501 224.81 368.207 225.361 368.474 226.047L370.309 225.332C369.72 223.825 368.316 223.003 366.857 222.554C365.38 222.1 363.64 221.959 362.024 221.957C360.397 221.954 358.834 222.093 357.683 222.231C357.219 222.287 356.756 222.351 356.294 222.423C356.127 222.449 355.995 222.471 355.904 222.487L355.799 222.505L355.771 222.51C355.769 222.51 355.766 222.511 355.763 222.512L355.761 222.512H355.76L355.939 223.479ZM355.452 217.524C356.156 218.257 356.45 218.925 356.546 219.491C356.644 220.064 356.552 220.607 356.365 221.098C356.177 221.593 355.9 222.015 355.662 222.317C355.542 222.471 355.412 222.617 355.274 222.755L355.272 222.756L355.273 222.755L355.274 222.754L355.275 222.754C355.275 222.754 355.275 222.753 355.939 223.479C356.603 224.205 356.603 224.205 356.604 224.204L356.605 224.204L356.606 224.202C356.823 223.992 357.025 223.768 357.211 223.531C357.53 223.125 357.927 222.531 358.206 221.795C358.487 221.056 358.657 220.154 358.487 219.161C358.317 218.161 357.815 217.143 356.873 216.162L355.452 217.524ZM346.699 221.62C348.664 220.102 350.691 218.723 352.401 217.936C353.259 217.54 353.972 217.326 354.517 217.284C355.047 217.243 355.304 217.37 355.452 217.524L356.873 216.162C356.185 215.446 355.262 215.255 354.367 215.323C353.487 215.39 352.53 215.71 351.576 216.149C349.661 217.032 347.492 218.522 345.495 220.065L346.699 221.62ZM343.536 220.61C344.053 220.642 344.418 220.671 344.709 220.776C344.939 220.858 345.085 220.972 345.188 221.221L347.005 220.464C346.655 219.625 346.037 219.162 345.373 218.924C344.771 218.708 344.113 218.675 343.658 218.647L343.536 220.61ZM340.74 218.756C340.795 219.132 340.933 219.482 341.177 219.776C341.419 220.066 341.716 220.244 342 220.355C342.514 220.557 343.127 220.584 343.536 220.61L343.658 218.647C343.457 218.637 343.258 218.621 343.059 218.598C342.888 218.576 342.783 218.549 342.72 218.525C342.664 218.503 342.672 218.494 342.692 218.519C342.715 218.546 342.7 218.55 342.689 218.473L340.74 218.756ZM347.337 214.172C345.785 214.652 344.16 215.152 342.96 215.749C342.361 216.048 341.784 216.409 341.367 216.869C340.927 217.354 340.63 217.994 340.74 218.755L342.689 218.474C342.683 218.434 342.673 218.359 342.826 218.189C343.002 217.996 343.325 217.765 343.838 217.509C344.863 217 346.312 216.548 347.92 216.05L347.337 214.172ZM353.652 210.665C353.7 210.933 353.643 211.165 353.434 211.433C353.199 211.733 352.785 212.056 352.163 212.39C350.913 213.06 349.164 213.607 347.337 214.172L347.92 216.05C349.686 215.503 351.641 214.902 353.095 214.122C353.824 213.731 354.511 213.253 354.987 212.642C355.488 211.999 355.751 211.212 355.59 210.317L353.652 210.665ZM348.673 211.47C350.134 210.883 351.481 210.348 352.506 210.206C353.017 210.135 353.294 210.188 353.424 210.251C353.485 210.281 353.593 210.341 353.652 210.665L355.59 210.316C355.44 209.488 355.009 208.837 354.291 208.485C353.641 208.167 352.898 208.166 352.236 208.258C350.916 208.441 349.314 209.093 347.937 209.646L348.673 211.47ZM342.353 211.229C342.499 211.911 342.935 212.403 343.567 212.617C344.103 212.799 344.694 212.75 345.199 212.655C346.222 212.461 347.497 211.943 348.673 211.47L347.937 209.646C346.689 210.148 345.622 210.573 344.832 210.722C344.431 210.799 344.248 210.772 344.199 210.755C344.193 210.753 344.225 210.764 344.259 210.802C344.291 210.839 344.287 210.859 344.278 210.816L342.353 211.229ZM348.351 207.892C346.875 208.274 345.459 208.64 344.437 209.012C343.934 209.195 343.447 209.407 343.082 209.665C342.772 209.884 342.177 210.413 342.353 211.229L344.278 210.816C344.371 211.25 344.022 211.41 344.22 211.27C344.362 211.169 344.646 211.029 345.111 210.86C346.023 210.528 347.332 210.188 348.846 209.795L348.351 207.892ZM357.639 203.62C357.639 203.89 357.503 204.226 357.028 204.645C356.548 205.067 355.82 205.482 354.884 205.882C353.013 206.681 350.586 207.313 348.351 207.892L348.846 209.795C351.039 209.227 353.624 208.56 355.658 207.69C356.674 207.256 357.622 206.743 358.33 206.12C359.043 205.492 359.608 204.663 359.608 203.62H357.639ZM350.533 203.666C352.523 203.229 354.481 202.805 355.94 202.799C356.677 202.796 357.13 202.904 357.372 203.048C357.525 203.138 357.639 203.256 357.639 203.62H359.608C359.608 202.615 359.171 201.828 358.378 201.357C357.673 200.938 356.783 200.829 355.932 200.832C354.216 200.839 352.024 201.325 350.111 201.746L350.533 203.666ZM344.443 204.185C344.852 204.373 345.318 204.426 345.743 204.432C346.183 204.438 346.671 204.394 347.174 204.324C348.177 204.184 349.359 203.924 350.533 203.666L350.111 201.746C348.913 202.009 347.813 202.249 346.902 202.376C346.449 202.439 346.07 202.47 345.771 202.465C345.457 202.461 345.31 202.418 345.266 202.398L344.443 204.185ZM349.829 198.304C348.028 199.361 346.395 200.317 345.33 201.063C344.818 201.421 344.334 201.799 344.046 202.168C343.918 202.334 343.684 202.674 343.701 203.122C343.725 203.705 344.129 204.04 344.443 204.185L345.266 202.398C345.358 202.44 345.653 202.636 345.669 203.045C345.68 203.319 345.542 203.451 345.6 203.376C345.687 203.264 345.945 203.033 346.459 202.673C347.444 201.985 348.992 201.076 350.826 200.001L349.829 198.304ZM349.806 198.319L350.849 199.986L349.806 198.319ZM362.595 187.367C362.81 187.782 362.796 188.358 362.217 189.25C361.638 190.143 360.617 191.146 359.274 192.211C356.599 194.333 352.929 196.487 349.83 198.304L350.826 200C353.892 198.203 357.693 195.976 360.498 193.751C361.895 192.643 363.116 191.482 363.87 190.319C364.623 189.156 365.029 187.785 364.344 186.463L362.595 187.367ZM350.894 191.414C353.582 189.939 356.418 188.387 358.751 187.532C359.926 187.101 360.875 186.886 361.563 186.899C362.212 186.911 362.461 187.108 362.595 187.367L364.344 186.463C363.767 185.351 362.696 184.952 361.599 184.932C360.541 184.913 359.317 185.23 358.073 185.685C355.57 186.603 352.591 188.24 349.946 189.69L350.894 191.414ZM342.572 194.692C343.135 194.871 343.771 194.757 344.29 194.612C344.853 194.454 345.496 194.195 346.176 193.882C347.537 193.256 349.188 192.35 350.894 191.414L349.946 189.69C348.219 190.637 346.637 191.505 345.352 192.096C344.71 192.391 344.176 192.601 343.759 192.718C343.297 192.847 343.147 192.811 343.17 192.818L342.572 194.692ZM346.012 186.456C344.518 188.237 343.162 189.85 342.359 191.073C341.972 191.664 341.625 192.289 341.52 192.864C341.465 193.167 341.457 193.562 341.654 193.944C341.864 194.35 342.22 194.58 342.572 194.692L343.17 192.818C343.187 192.823 343.319 192.877 343.405 193.044C343.478 193.186 343.446 193.277 343.458 193.216C343.485 193.064 343.63 192.725 344.006 192.152C344.73 191.049 345.992 189.542 347.521 187.719L346.012 186.456ZM354.945 173.46C353.261 177.797 349.259 182.586 346.012 186.456L347.521 187.719C350.699 183.931 354.954 178.876 356.781 174.171L354.945 173.46ZM350.348 168.713C351.825 166.896 353.083 165.883 354.034 165.45C354.96 165.028 355.401 165.216 355.634 165.446C355.965 165.772 356.289 166.559 356.24 168.008C356.193 169.413 355.8 171.26 354.945 173.46L356.781 174.171C357.689 171.833 358.152 169.762 358.208 168.073C358.262 166.43 357.936 164.951 357.017 164.046C356 163.045 354.589 163.036 353.217 163.661C351.87 164.274 350.383 165.55 348.819 167.473L350.348 168.713ZM345.978 174.281C347.533 172.271 349.031 170.333 350.348 168.713L348.819 167.473C347.485 169.116 345.971 171.074 344.42 173.079L345.978 174.281ZM345.972 174.289L345.973 174.288L344.426 173.071L344.426 173.072L345.972 174.289ZM331.925 185.934C332.026 186.481 332.331 187.157 333.097 187.368C333.733 187.543 334.347 187.277 334.763 187.041C335.657 186.533 336.746 185.495 337.898 184.245C340.243 181.701 343.205 177.868 345.978 174.282L344.42 173.079C341.626 176.693 338.723 180.446 336.449 182.913C335.293 184.169 334.386 184.992 333.788 185.332C333.458 185.52 333.452 185.426 333.619 185.472C333.917 185.554 333.903 185.802 333.86 185.575L331.925 185.934ZM332.915 178.453C332.596 179.92 332.279 181.376 332.076 182.64C331.879 183.869 331.762 185.058 331.925 185.934L333.86 185.575C333.766 185.071 333.822 184.189 334.02 182.953C334.213 181.752 334.517 180.352 334.839 178.87L332.915 178.453ZM332.803 168.961C333.183 168.859 333.41 168.871 333.533 168.901C333.631 168.922 333.718 168.98 333.776 169.062C333.964 169.306 334.129 169.863 334.128 170.878C334.127 172.85 333.524 175.651 332.915 178.453L334.839 178.87C335.43 176.153 336.096 173.111 336.097 170.879C336.098 169.792 335.947 168.656 335.336 167.863C335.005 167.425 334.531 167.117 333.997 166.99C333.457 166.859 332.88 166.905 332.293 167.061L332.803 168.961ZM322.434 195.008C323.118 188.811 323.79 182.756 325.311 177.969C326.834 173.172 329.111 169.95 332.803 168.961L332.293 167.061C327.611 168.316 325.023 172.37 323.434 177.374C321.842 182.386 321.155 188.655 320.477 194.792L322.434 195.008ZM322.44 194.9H320.471H322.44ZM321.315 204.041C321.761 201.12 322.099 198.051 322.434 195.008L320.477 194.792C320.141 197.843 319.807 200.871 319.368 203.745L321.315 204.041ZM318.327 202.134C318.638 202.897 318.912 203.571 319.117 203.996C319.17 204.106 319.225 204.214 319.281 204.31C319.329 204.391 319.411 204.525 319.526 204.643C319.581 204.699 319.701 204.813 319.885 204.891C320.027 204.952 320.18 204.98 320.334 204.972C320.488 204.965 320.638 204.923 320.773 204.85C321.059 204.694 321.183 204.453 321.23 204.344C321.283 204.222 321.304 204.11 321.315 204.042L319.368 203.745C319.371 203.729 319.382 203.659 319.421 203.568C319.504 203.378 319.648 203.222 319.83 203.123C319.956 203.055 320.095 203.015 320.238 203.008C320.381 203.001 320.523 203.026 320.655 203.081C320.816 203.15 320.91 203.244 320.937 203.271C320.995 203.331 321.01 203.368 320.982 203.319C320.949 203.262 320.919 203.203 320.891 203.143C320.72 202.788 320.474 202.187 320.152 201.394L318.327 202.134ZM318.306 202.075L320.173 201.453L318.306 202.075ZM312.175 194.112C312.469 193.678 312.707 193.501 312.854 193.434C312.974 193.379 313.085 193.371 313.238 193.422C313.645 193.558 314.225 194.074 314.915 195.082C316.246 197.03 317.466 200.017 318.327 202.134L320.152 201.394C319.315 199.336 318.015 196.13 316.541 193.973C315.827 192.93 314.934 191.915 313.862 191.557C313.277 191.362 312.647 191.366 312.034 191.646C311.449 191.914 310.961 192.396 310.545 193.008L312.175 194.112Z" fill="#E1E4E5"/>
<path fill-rule="evenodd" clip-rule="evenodd" d="M152.956 218.152C157.148 222.714 155.493 246.146 155.493 246.146C155.493 246.146 145.76 244.151 137.129 241.328C132.261 241.653 97.2763 243.775 94.6808 237.924C93.1672 234.514 99.0764 235.245 101.282 235.625C97.6637 234.902 83.0939 231.599 85.4005 225.689C87.1134 221.304 98.8534 223.479 98.8534 223.479C98.8534 223.479 95.3365 220.271 98.6299 216.843C101.923 213.415 115.943 227.145 115.943 227.145C115.943 227.145 110.258 216.485 116.815 219.562C117.769 220.01 118.93 220.84 120.209 221.926C121.621 222.306 122.863 222.976 122.863 222.976C122.863 222.976 110.991 212.712 115.036 208.789C117.209 206.685 128.63 215.562 128.63 215.562C128.63 215.562 126.526 210.324 130.673 210.199C134.819 210.074 141.17 218.115 141.17 218.115C141.17 218.115 148.764 213.587 152.956 218.152Z" fill="white"/>
<path d="M155.494 246.146L156.475 246.215L156.396 247.334L155.296 247.109L155.494 246.146ZM152.957 218.152L152.231 218.816L152.957 218.152ZM137.129 241.328L137.063 240.347L137.254 240.334L137.435 240.394L137.129 241.328ZM94.6809 237.924L95.5807 237.526V237.526L94.6809 237.924ZM101.282 235.625L101.475 234.661L101.114 236.594L101.282 235.625ZM85.4006 225.689L84.4836 225.332V225.332L85.4006 225.689ZM98.8535 223.479L99.517 222.753L102.061 225.074L98.6738 224.446L98.8535 223.479ZM98.63 216.843L99.3403 217.524L98.63 216.843ZM115.943 227.145L116.812 226.682L115.254 227.847L115.943 227.145ZM116.815 219.562L117.234 218.672H117.234L116.815 219.562ZM120.209 221.926L119.953 222.875L119.74 222.818L119.572 222.675L120.209 221.926ZM122.863 222.976L123.507 222.232L122.395 223.841L122.863 222.976ZM115.036 208.789L114.35 208.084L114.351 208.083L115.036 208.789ZM128.63 215.562L129.544 215.196L130.9 218.573L128.026 216.338L128.63 215.562ZM130.673 210.199L130.702 211.182L130.673 210.199ZM141.17 218.115L141.674 218.959L140.932 219.402L140.397 218.724L141.17 218.115ZM155.494 246.146L154.512 246.076V246.073L154.513 246.061L154.515 246.012L154.528 245.818C154.54 245.648 154.555 245.396 154.574 245.074C154.61 244.429 154.658 243.502 154.703 242.374C154.792 240.118 154.867 237.066 154.813 233.876C154.758 230.681 154.573 227.375 154.148 224.599C153.936 223.211 153.667 221.98 153.334 220.973C152.996 219.95 152.617 219.237 152.231 218.816L153.682 217.487C154.343 218.207 154.83 219.224 155.204 220.356C155.583 221.504 155.873 222.852 156.095 224.302C156.538 227.203 156.726 230.61 156.781 233.843C156.837 237.081 156.76 240.172 156.67 242.452C156.624 243.617 156.565 244.781 156.493 245.944L156.48 246.145L156.476 246.196L156.475 246.21V246.214L155.494 246.146ZM137.435 240.394C141.716 241.794 146.28 242.992 149.78 243.84C151.528 244.264 153.008 244.6 154.05 244.83C154.56 244.942 155.071 245.052 155.583 245.16L155.664 245.177C155.671 245.178 155.678 245.179 155.685 245.181L155.69 245.182L155.691 245.182L155.494 246.146L155.295 247.109H155.295L155.293 247.108L155.288 247.107L155.266 247.103C155.237 247.097 155.209 247.091 155.181 247.085L154.854 247.016C154.568 246.956 154.152 246.866 153.625 246.75C152.185 246.432 150.749 246.099 149.316 245.751C145.791 244.897 141.172 243.686 136.823 242.262L137.435 240.394ZM95.5807 237.526C95.7446 237.895 96.2664 238.376 97.426 238.855C98.5419 239.315 100.057 239.696 101.886 240C105.534 240.606 110.245 240.879 115.069 240.958C124.706 241.118 134.636 240.509 137.063 240.347L137.194 242.309C134.753 242.472 124.757 243.086 115.036 242.925C110.181 242.844 105.355 242.571 101.562 241.94C99.6691 241.625 97.9877 241.215 96.6744 240.672C95.405 240.149 94.266 239.416 93.7806 238.323L95.5807 237.526ZM101.114 236.594C100.016 236.405 98.1147 236.153 96.7094 236.329C95.9745 236.421 95.6127 236.604 95.4857 236.741C95.4446 236.783 95.4217 236.84 95.4217 236.898C95.4148 236.997 95.434 237.195 95.5807 237.526L93.7806 238.323C93.5493 237.801 93.4218 237.276 93.4573 236.763C93.4882 236.256 93.6948 235.776 94.0415 235.405C94.6657 234.732 95.6353 234.481 96.4642 234.378C98.1865 234.162 100.342 234.466 101.449 234.656L101.114 236.594ZM86.3181 226.047C85.9218 227.061 86.1881 227.985 87.113 228.955C88.0743 229.963 89.6475 230.89 91.5125 231.7C95.2179 233.312 99.6794 234.302 101.475 234.661L101.088 236.59C99.266 236.225 94.6337 235.203 90.7264 233.504C88.7846 232.66 86.922 231.606 85.687 230.311C84.4156 228.977 83.726 227.272 84.4836 225.332L86.3181 226.047ZM98.8535 223.479L98.6738 224.446H98.6733C98.6336 224.439 98.5939 224.432 98.5542 224.425C98.472 224.411 98.3499 224.39 98.1929 224.366C97.8784 224.317 97.4251 224.25 96.8748 224.184C95.7712 224.052 94.2926 223.921 92.7706 223.923C91.2368 223.925 89.7208 224.063 88.5149 224.434C87.2912 224.81 86.5853 225.361 86.3176 226.047L84.4836 225.332C85.0722 223.825 86.4761 223.003 87.9355 222.554C89.4127 222.1 91.1527 221.959 92.7681 221.957C94.3954 221.954 95.9587 222.093 97.1095 222.231C97.5736 222.287 98.0367 222.351 98.4986 222.423C98.6655 222.449 98.7974 222.471 98.8879 222.487L98.9933 222.505L99.0213 222.51C99.024 222.51 99.0266 222.511 99.0292 222.512L99.0317 222.512H99.0322L98.8535 223.479ZM99.3403 217.524C98.6359 218.257 98.3421 218.925 98.2461 219.491C98.1481 220.064 98.2407 220.607 98.4272 221.098C98.6153 221.593 98.8919 222.015 99.1301 222.317C99.2458 222.465 99.3701 222.606 99.5022 222.739L99.519 222.755L99.5205 222.756L99.5195 222.755L99.5185 222.754L99.518 222.754C99.5175 222.754 99.517 222.753 98.8535 223.479C98.6336 223.723 98.4119 223.964 98.1885 224.204L98.188 224.204L98.186 224.202C98.1843 224.201 98.1826 224.199 98.1811 224.198L98.1678 224.185C98.109 224.129 98.0512 224.071 97.9946 224.012C97.8493 223.858 97.7112 223.698 97.5806 223.531C97.2621 223.125 96.8654 222.531 96.5863 221.795C96.3053 221.056 96.1359 220.154 96.3048 219.161C96.4756 218.161 96.9771 217.143 97.9197 216.162L99.3403 217.524ZM115.943 227.145L115.254 227.847H115.254C115.25 227.843 115.25 227.843 115.245 227.838L115.216 227.81L115.102 227.699C115 227.601 114.85 227.458 114.658 227.275C114.272 226.911 113.718 226.393 113.041 225.782C111.686 224.559 109.852 222.968 107.922 221.488C105.98 219.999 103.991 218.659 102.318 217.902C101.478 217.521 100.783 217.318 100.253 217.282C99.7385 217.247 99.4865 217.372 99.3403 217.524L97.9197 216.162C98.5966 215.457 99.5032 215.261 100.386 215.32C101.253 215.379 102.194 215.686 103.131 216.111C105.013 216.963 107.146 218.414 109.121 219.928C111.108 221.452 112.985 223.08 114.361 224.323C115.073 224.966 115.776 225.62 116.469 226.284L116.59 226.401L116.621 226.431L116.629 226.44L116.632 226.442L116.632 226.442C116.633 226.442 116.633 226.443 115.943 227.145ZM116.397 220.452C115.63 220.092 115.153 219.989 114.889 219.987C114.768 219.987 114.721 220.008 114.718 220.009C114.716 220.01 114.719 220.009 114.723 220.005C114.727 220.002 114.728 220 114.725 220.005C114.703 220.037 114.631 220.191 114.642 220.582C114.652 220.952 114.732 221.417 114.872 221.949C115.152 223.011 115.632 224.189 116.055 225.122C116.276 225.612 116.51 226.096 116.756 226.574L116.799 226.657L116.809 226.677L116.812 226.681C116.812 226.682 116.812 226.682 116.812 226.682L115.943 227.145C115.075 227.607 115.075 227.607 115.074 227.607V227.606L115.073 227.604L115.069 227.597C115.065 227.589 115.06 227.58 115.056 227.571L115.007 227.477C114.744 226.969 114.495 226.454 114.261 225.932C113.821 224.963 113.29 223.669 112.968 222.45C112.808 221.842 112.689 221.215 112.674 220.636C112.658 220.078 112.734 219.427 113.101 218.892C113.515 218.29 114.169 218.016 114.901 218.021C115.581 218.025 116.361 218.262 117.234 218.672L116.397 220.452ZM119.572 222.675C118.311 221.606 117.231 220.843 116.397 220.452L117.234 218.672C118.308 219.176 119.548 220.075 120.846 221.176L119.572 222.675ZM122.863 222.976L122.395 223.841L122.395 223.842L122.395 223.841L122.387 223.837L122.353 223.819C122.127 223.704 121.899 223.595 121.667 223.493C121.207 223.29 120.594 223.048 119.953 222.875L120.465 220.977C121.236 221.184 121.949 221.467 122.463 221.694C122.732 221.813 122.998 221.939 123.26 222.074C123.283 222.085 123.306 222.097 123.328 222.109L123.329 222.11L123.33 222.11H123.33L122.863 222.976ZM115.722 209.495C115.12 210.078 114.988 210.963 115.479 212.329C115.967 213.687 116.99 215.236 118.199 216.737C119.397 218.224 120.724 219.599 121.759 220.607C122.289 221.125 122.83 221.63 123.383 222.124L123.477 222.206L123.5 222.226L123.505 222.231L123.507 222.232L122.863 222.976L122.218 223.719L122.217 223.718L122.215 223.717L122.207 223.71L122.18 223.686C122.018 223.543 121.857 223.399 121.697 223.254C121.374 222.959 120.917 222.535 120.383 222.015C119.318 220.976 117.93 219.54 116.666 217.97C115.413 216.415 114.226 214.663 113.626 212.993C113.028 211.331 112.929 209.462 114.35 208.084L115.722 209.495ZM128.63 215.562L128.026 216.339L128.026 216.338L128.025 216.337C128.023 216.336 128.021 216.334 128.019 216.333L127.996 216.315L127.902 216.243C127.352 215.823 126.796 215.41 126.234 215.004C125.14 214.213 123.664 213.182 122.126 212.22C120.578 211.251 119.009 210.378 117.719 209.876C117.07 209.623 116.548 209.487 116.166 209.456C115.767 209.425 115.697 209.519 115.721 209.495L114.351 208.083C114.918 207.534 115.681 207.445 116.322 207.496C116.98 207.548 117.707 207.76 118.435 208.044C119.898 208.614 121.592 209.566 123.171 210.553C124.76 211.547 126.274 212.605 127.39 213.412C127.965 213.829 128.535 214.252 129.101 214.683L129.199 214.759L129.226 214.779L129.232 214.784L129.234 214.786L129.234 214.786C129.235 214.786 129.235 214.787 128.63 215.562ZM130.702 211.182C129.892 211.206 129.556 211.464 129.389 211.684C129.189 211.947 129.078 212.363 129.081 212.922C129.084 213.468 129.196 214.037 129.317 214.487C129.378 214.714 129.449 214.938 129.53 215.159L129.542 215.192L129.545 215.198C129.545 215.198 129.545 215.198 129.545 215.198V215.197L129.544 215.197L128.63 215.562C127.717 215.929 127.716 215.928 127.716 215.928L127.716 215.927L127.715 215.925L127.713 215.92C127.711 215.914 127.709 215.909 127.707 215.903L127.686 215.849C127.582 215.569 127.492 215.285 127.416 214.997C127.272 214.461 127.117 213.712 127.112 212.933C127.108 212.167 127.248 211.25 127.82 210.496C128.425 209.699 129.381 209.254 130.643 209.216L130.702 211.182ZM141.17 218.115L140.397 218.724L140.397 218.723C140.395 218.722 140.394 218.721 140.394 218.72L140.382 218.705L140.331 218.642C140.019 218.258 139.699 217.881 139.373 217.509C138.556 216.576 137.697 215.68 136.799 214.824C135.77 213.849 134.641 212.905 133.54 212.217C132.414 211.513 131.444 211.16 130.702 211.182L130.643 209.216C131.975 209.176 133.354 209.781 134.584 210.55C135.841 211.335 137.077 212.376 138.153 213.397C139.095 214.294 139.996 215.233 140.853 216.212C141.122 216.518 141.387 216.829 141.647 217.143C141.741 217.256 141.814 217.346 141.864 217.407L141.921 217.479C141.928 217.487 141.935 217.495 141.941 217.504L141.942 217.505V217.505C141.943 217.505 141.943 217.506 141.17 218.115ZM152.231 218.816C150.497 216.928 148.012 216.847 145.714 217.38C144.584 217.641 143.568 218.038 142.83 218.374C142.46 218.542 142.097 218.724 141.741 218.92L141.687 218.952C141.683 218.954 141.679 218.956 141.675 218.959L141.673 218.96L141.674 218.959L141.17 218.115C140.665 217.27 140.665 217.27 140.666 217.27L140.667 217.269L140.669 217.268L140.675 217.265L140.696 217.252C140.714 217.242 140.739 217.227 140.771 217.209C140.835 217.174 140.926 217.123 141.041 217.061C141.273 216.938 141.604 216.77 142.014 216.584C142.831 216.213 143.975 215.763 145.269 215.464C147.815 214.874 151.224 214.811 153.682 217.487L152.231 218.816Z" fill="#E1E4E5"/>
<path fill-rule="evenodd" clip-rule="evenodd" d="M157.757 237.352C157.757 237.352 107.797 197.503 107.797 161.111C107.797 134.313 130.167 112.592 157.757 112.592C185.348 112.592 207.718 134.313 207.718 161.111C207.718 197.503 157.757 237.352 157.757 237.352Z" fill="#10222E" stroke="#10222E" stroke-width="28.37" stroke-linecap="round" stroke-linejoin="round"/>
<path d="M157.746 156.649C154.414 156.649 151.735 159.283 151.735 162.506C151.735 165.73 154.435 168.343 157.768 168.343C161.1 168.343 163.78 165.73 163.78 162.485C163.801 159.283 161.1 156.649 157.746 156.649" stroke="white" stroke-width="48.242" stroke-linecap="round" stroke-linejoin="round"/>
<path d="M240.875 143.581C241.086 145.204 241.649 147.161 242.56 147.825C243.594 148.58 243.913 149.381 243.913 149.381L244.963 149.057L246.219 148.671C246.219 148.671 246.22 148.543 246.213 148.329C246.203 148.048 246.181 147.768 246.145 147.489C246.145 147.489 245.906 146.975 246.242 146.475C246.577 145.977 246.731 145.121 246.495 144.523C246.26 143.928 246.211 142.577 245.989 142.567C245.45 142.537 245.819 144.46 245.522 144.731C245.255 144.979 245.026 144.82 244.985 144.786C244.982 144.784 244.979 144.782 244.977 144.779C243.673 143.807 242.708 139.963 241.822 140.247C241.491 140.353 240.784 142.89 240.875 143.581ZM293.883 183.522C293.883 183.522 292.77 185.447 293.269 186.557C293.766 187.667 295.491 189.148 295.937 189.728C296.38 190.308 297.886 191.84 298.492 190.854C299.098 189.871 298.028 187.255 297.286 186.27C296.544 185.282 296.474 183.587 296.474 183.587L293.883 183.522Z" fill="#F8AE9D"/>
<path d="M293.171 186.236C293.171 186.236 293.256 188.356 293.356 188.922C293.458 189.49 293.558 189.316 293.946 188.935C294.334 188.555 294.33 187.445 294.475 187.372C294.621 187.299 293.171 186.236 293.171 186.236Z" fill="#F8AE9D"/>
<path d="M273.699 143.35C273.699 143.35 260.713 157.331 256.671 159.521L246.486 147.513C246.486 147.513 244.574 147.647 243.378 149.257C243.378 149.257 247.329 166.194 254.539 168.539C261.748 170.885 276.446 154.395 276.446 154.395L273.699 143.35ZM261.592 245.833H274.926C275.567 245.079 275.331 242.294 275.234 241.383C275.214 241.199 275.201 241.094 275.201 241.094C275.201 241.094 270.648 237.582 270.022 240.271C270.003 240.355 269.981 240.438 269.955 240.52C269.168 243.035 265.633 244.178 263.593 244.497C262.264 244.703 261.774 245.369 261.592 245.833Z" fill="#31446C"/>
<path d="M270.569 245.833H283.903C284.544 245.079 284.308 242.294 284.212 241.383C284.192 241.199 284.179 241.094 284.179 241.094C284.179 241.094 279.625 237.582 279 240.271C278.981 240.355 278.958 240.438 278.932 240.52C278.145 243.035 274.61 244.178 272.57 244.497C271.242 244.703 270.751 245.369 270.569 245.833Z" fill="#31446C"/>
<path d="M265.234 185.946C265.234 185.946 265.872 192.839 266.621 201.122C267.64 212.375 268.865 226.198 268.986 228.816C269.196 233.364 270.035 240.636 270.035 240.636C270.035 240.636 272.028 242.365 276.018 241.636C276.018 241.636 279.574 231.253 280.589 220.266L280.636 219.723C281.581 208.54 283.048 184.99 283.048 184.99L265.234 185.946Z" fill="#666AF6"/>
<path d="M268.851 186.418C268.851 186.418 270.053 193.241 271.481 201.443C273.421 212.586 275.778 226.275 276.112 228.874C276.691 233.389 278.13 240.58 278.13 240.58C278.13 240.58 280.297 242.183 284.301 241.222C284.301 241.222 287.087 230.676 287.238 219.679L287.242 219.136C287.307 207.947 286.91 184.416 286.91 184.416L268.851 186.418Z" fill="#666AF6"/>
<path d="M270.916 145.868C275.498 147.313 283.059 143.238 283.059 143.238C283.059 143.238 279.202 140.245 279.423 133.659L275.88 136.511L273.474 138.448C273.474 138.448 273.483 139.591 273.747 141.592C273.816 142.118 273.943 142.94 273.548 143.362C272.014 144.997 270.916 145.868 270.916 145.868Z" fill="#F8AE9D"/>
<path d="M272.072 138.34C272.072 138.34 279.642 139.596 280.352 134.875C281.063 130.155 282.518 127.138 277.716 126.136C272.914 125.135 271.7 126.793 271.08 128.312C270.459 129.83 270.123 137.891 272.072 138.34Z" fill="#F8AE9D"/>
<path d="M264.519 188.388C264.657 188.503 264.817 188.572 265.002 188.572C266.723 188.549 271.741 189.504 275.987 189.068C279.565 188.724 282.735 187.666 286.137 186.143C286.589 185.94 287.628 185.385 287.606 184.881C287.59 184.328 287.537 183.528 287.467 182.519C287.225 179.01 286.807 172.977 287.216 166.016C287.289 164.719 287.328 163.434 287.333 162.168C287.368 152.732 285.496 144.435 281.731 141.627C281.409 141.397 279.436 142.361 277.622 143.252C275.947 144.078 274.633 144.166 273.05 143.845L271.107 145.246C269.179 147.034 267.067 149.465 266.148 153.154C265.368 156.295 264.91 161.957 264.657 167.826C264.543 170.484 264.451 173.167 264.427 175.711V175.801C264.405 176.053 264.405 176.329 264.405 176.581C264.313 183.116 264.405 188.297 264.519 188.388Z" fill="#31446C"/>
<path d="M295.018 184.503C293.581 184.698 292.048 184.496 292.048 184.496C292.048 184.496 288.583 171.239 288.109 170.019C287.634 168.799 276.465 154.037 276.465 154.037L282.18 141.844C282.18 141.844 293.891 164.221 295.031 167.336C296.915 172.483 297.019 183.786 297.019 183.786C297.019 183.786 296.147 184.35 295.018 184.503ZM281.204 133.185C280.792 134.036 279.596 134.162 279.707 133.223C279.832 132.155 279.831 130.757 278.961 131.017C278.092 131.277 278.047 131.973 277.691 131.567C277.333 131.161 277.327 129.449 274.738 129.329C272.149 129.21 271.097 130.11 269.894 129.581C269.174 129.264 268.862 128.485 268.727 127.911C268.689 127.748 268.807 127.521 268.916 127.648C269.019 127.768 269.277 127.761 269.204 127.621C268.748 126.757 268.066 124.87 269.804 123.464C272.129 121.583 274.5 122.814 275.845 122.895C278.81 123.074 280.726 123.251 281.693 125.198C282.495 126.812 282.358 130.801 281.204 133.185Z" fill="#31446C"/>
<path d="M238.967 138.04L242.793 136.874C243.063 136.791 243.349 136.943 243.431 137.213L245.984 145.567C246.067 145.837 245.915 146.123 245.644 146.205L241.819 147.372C241.549 147.454 241.263 147.302 241.181 147.032L238.627 138.678C238.545 138.408 238.697 138.123 238.967 138.04Z" fill="#666AF6"/>
</svg>
