<svg width="416" height="241" viewBox="0 0 416 241" fill="none" xmlns="http://www.w3.org/2000/svg">
<g clip-path="url(#clip0)">
<path opacity="0.1" d="M411.59 223.598C409.976 227.828 407.988 231.886 405.654 235.719C404.56 237.547 403.359 239.3 402.059 240.969C402.047 240.986 402.034 241.002 402.019 241.015H0L0.0542607 240.969C0.416 240.67 2.53941 238.845 5.84209 235.719C8.21148 233.48 11.185 230.569 14.5238 227.066C41.8315 198.549 94.2873 131.048 50.6001 69.2132C9.98762 11.7295 53.7146 1.29815 82.5597 0.0806463C93.6422 -0.380315 104.698 1.53867 115.066 5.72263C128.392 11.0996 152.748 19.3418 184.48 23.121C185.522 23.2439 186.571 23.3668 187.634 23.4782C204.434 25.2943 221.347 25.6206 238.198 24.4537C238.694 24.423 239.193 24.3846 239.696 24.3462C256.365 23.1034 272.908 20.3863 289.153 16.2231C290.205 15.9504 291.243 15.6931 292.278 15.4358C346.405 2.13926 396.303 47.4557 383.827 98.6675C379.215 117.61 380.387 137.8 395.764 154.135C420.941 180.797 417.892 207.056 411.59 223.598Z" fill="#6C63FF"/>
<path d="M411.591 223.598C409.977 227.828 407.989 231.886 405.655 235.719C404.56 237.547 403.36 239.3 402.059 240.969H0.0551758C0.416915 240.67 2.54032 238.845 5.843 235.719C8.21239 233.48 11.1859 230.569 14.5247 227.066L56.8952 217.771C57.4427 217.652 58.0003 217.591 58.5592 217.591L103.73 217.522H103.777L126.15 217.491H126.201L145.084 217.468H157.444H170.105L221.986 217.391H222.069H226.088H233.149H241.965H244.309L253.218 217.284H256.163L282.078 217.245H290.354H294.334L324.267 217.203H333.181L361.534 217.161L385.466 217.13C386.133 217.13 386.797 217.214 387.445 217.38L411.591 223.598Z" fill="#454B69"/>
<path opacity="0.4" d="M5.843 235.719H405.655C404.56 237.547 403.36 239.3 402.06 240.969H0.0551758C0.40968 240.651 2.53309 238.826 5.843 235.719Z" fill="black"/>
<path d="M265.234 116.273L264.431 116.438L228.127 123.843C217.582 125.994 206.886 128.156 196.175 127.331C188.415 126.732 181.166 124.289 173.711 122.146C169.497 120.932 165.029 120.448 163.6 115.44C161.629 108.527 164.837 98.2912 165.593 91.2857C166.317 84.4109 166.744 77.3632 165.456 70.569C165.17 69.0422 164.793 67.5362 164.327 66.06C163.036 61.9927 161.006 57.7641 162.103 53.6354C162.967 50.3592 165.604 48.0202 168.071 45.8541C172.904 41.6293 177.838 36.8937 179.755 30.5604C180.696 27.4879 180.873 24.181 181.886 21.1315C183.807 15.3321 188.633 10.9959 194.001 8.69918C199.369 6.40244 205.272 5.91467 211.064 5.91467C216.178 5.91497 221.286 6.27551 226.355 6.99391C231.882 7.76205 237.46 9.02564 242.318 11.9369C247.176 14.8481 251.271 19.6183 252.404 25.4331C254.006 33.656 249.557 42.4128 251.944 50.3976C253.145 54.4342 255.923 57.695 257.851 61.3897C259.423 64.4804 260.394 67.8753 260.704 71.3724C261.015 74.8694 260.66 78.3971 259.66 81.7454C257.352 89.3385 251.702 97.0199 254.596 104.383C256.437 109.064 261.14 111.565 264.417 115.275C264.709 115.608 264.981 115.94 265.234 116.273Z" fill="#454B69"/>
<path opacity="0.1" d="M264.431 115.305V116.438L228.127 123.843C217.582 125.994 206.886 128.156 196.175 127.331C188.415 126.732 181.166 124.289 173.711 122.146C169.496 120.932 165.029 120.448 163.6 115.44C161.629 108.527 164.837 98.2911 165.593 91.2857C166.317 84.4109 177.455 59.3119 176.167 52.5177L242.727 55.5903C243.175 59.3426 260.767 78.1774 259.671 81.7761C257.363 89.3692 251.713 97.0506 254.606 104.413C256.451 109.095 261.154 111.595 264.431 115.305Z" fill="black"/>
<path d="M196.424 96.3017C196.819 98.6791 197.029 101.295 195.885 103.369C194.362 106.149 191.042 107.036 188.072 107.666L177.762 109.856C177.06 110.005 176.315 110.174 175.791 110.685C175.172 111.273 174.962 112.202 174.872 113.078C174.456 117.041 175.776 120.947 176.981 124.723C179.415 132.37 181.459 140.178 184.538 147.556C187.616 154.934 191.841 161.978 197.871 166.909C203.902 171.841 211.882 174.468 219.265 172.54C225.696 170.861 230.97 166.041 235.518 160.929C239.269 156.704 242.778 152.095 244.597 146.615C245.852 142.851 246.261 138.841 246.655 134.87C247.266 128.781 247.876 122.692 248.486 116.604C248.772 113.746 248.96 110.531 247.213 108.338C246.446 107.374 245.404 106.733 244.34 106.138C240.383 103.906 236.216 102.063 232.533 99.3742C228.851 96.6857 225.584 92.9833 224.466 88.3898C223.797 85.6322 223.917 82.6288 222.777 80.0594C221.504 77.1788 218.798 75.2278 215.904 74.3713C213.01 73.5148 209.957 73.63 206.976 73.9872C203.996 74.3444 192.507 75.2585 191.273 78.8265C190.611 80.7468 193.357 84.8679 194.008 86.7575C195.08 89.8561 195.888 93.0502 196.424 96.3017Z" fill="#EFB7B9"/>
<path opacity="0.1" d="M196.424 96.3017C196.819 98.6791 197.029 101.295 195.885 103.369C194.362 106.149 191.042 107.036 188.072 107.666L177.762 109.856C177.06 110.005 176.315 110.174 175.791 110.685C175.172 111.273 174.962 112.202 174.872 113.078C174.456 117.041 175.776 120.947 176.981 124.723C179.415 132.37 181.459 140.178 184.538 147.556C187.616 154.934 191.841 161.978 197.871 166.909C203.902 171.841 211.882 174.468 219.265 172.54C225.696 170.861 230.97 166.041 235.518 160.929C239.269 156.704 242.778 152.095 244.597 146.615C245.852 142.851 246.261 138.841 246.655 134.87C247.266 128.781 247.876 122.692 248.486 116.604C248.772 113.746 248.96 110.531 247.213 108.338C246.446 107.374 245.404 106.733 244.34 106.138C240.383 103.906 236.216 102.063 232.533 99.3742C228.851 96.6857 225.584 92.9833 224.466 88.3898C223.797 85.6322 223.917 82.6288 222.777 80.0594C221.504 77.1788 218.798 75.2278 215.904 74.3713C213.01 73.5148 209.957 73.63 206.976 73.9872C203.996 74.3444 192.507 75.2585 191.273 78.8265C190.611 80.7468 193.357 84.8679 194.008 86.7575C195.08 89.8561 195.888 93.0502 196.424 96.3017Z" fill="black"/>
<path d="M221.236 138.065L227.281 124.477C230.113 118.109 233.007 111.419 232.707 104.386C232.649 102.988 232.635 101.241 233.792 100.607C234.295 100.389 234.842 100.315 235.38 100.392C241.744 100.738 248.024 102.086 254.013 104.394C255.175 104.84 256.365 105.354 257.179 106.337C257.992 107.321 258.322 108.642 258.6 109.909C259.549 114.195 260.241 118.539 260.673 122.918C261.758 133.756 261.219 144.691 260.673 155.564L259.067 188.759C259.076 189.23 258.985 189.697 258.803 190.126C258.405 190.894 257.508 191.152 256.701 191.298C253.594 191.862 250.418 191.747 247.271 191.62C225.132 190.729 202.878 189.362 180.884 192.212C180.983 188.757 180.931 185.301 180.729 181.842C179.857 166.905 176.21 152.334 172.629 137.862C170.542 129.412 168.52 120.195 171.88 112.233C172.375 110.976 173.085 109.827 173.975 108.845C175.404 107.359 177.354 106.576 179.285 106.015C182.617 105.052 186.069 104.638 189.519 104.786L212.327 157.507C213.368 159.919 214.226 162.458 215.264 164.839C216.197 160.726 215.076 155.905 216.197 151.446C217.405 146.818 219.308 142.39 221.236 138.065Z" fill="white"/>
<path d="M218.852 174.341C222.933 174.614 226.897 172.394 229.704 169.256C232.511 166.118 234.364 162.139 235.93 158.118C238.182 152.386 239.971 146.461 241.28 140.408C242.365 135.262 243.136 129.935 242.387 124.719C241.352 117.518 237.514 110.973 236.86 103.722C236.747 102.454 236.82 100.972 237.778 100.208C238.372 99.7353 239.153 99.67 239.891 99.6239C246.713 99.1937 254.209 99.2744 259.494 103.872C261.103 105.27 262.409 107.017 263.983 108.457C267.73 111.914 273.026 113.673 275.432 118.263C276.271 119.861 276.673 121.669 277.259 123.39C278.64 127.461 281.032 131.041 283.408 134.563C281.104 144.887 278.456 155.218 276.152 165.542C274.802 171.599 273.442 177.678 271.322 183.478C269.933 187.28 268.186 191.159 268.613 195.23C268.783 196.832 269.286 198.364 269.724 199.908C271.258 205.327 271.977 210.97 271.854 216.627L168.636 216.896C173.581 209.368 175.031 200.135 174.528 190.975C174.286 186.585 173.353 182.168 171.273 178.37C167.995 172.417 162.229 168.538 156.546 165.215C152.567 162.911 148.295 175.877 143.994 174.391C144.688 169.175 145.007 149.042 144.717 143.792C144.623 142.071 144.479 140.305 144.978 138.661C145.318 137.535 145.944 136.529 146.367 135.435C148.063 131.052 146.446 125.449 149.188 121.719C151.084 119.127 154.408 118.39 157.111 116.792C159.885 115.148 162.03 112.567 164.447 110.362C169.188 106.088 174.982 103.341 181.145 102.447C182.942 105.458 184.035 108.882 184.331 112.433C184.516 114.664 184.382 116.926 184.675 119.146C185.077 122.153 186.249 124.976 187.41 127.757C192.246 139.352 197.101 150.982 203.229 161.87C204.961 164.943 206.846 168.015 209.357 170.408C211.867 172.801 215.481 174.51 218.852 174.341Z" fill="#6C63FF"/>
<path opacity="0.1" d="M218.852 174.341C222.933 174.614 226.897 172.394 229.704 169.256C232.511 166.118 234.364 162.139 235.93 158.118C238.182 152.386 239.971 146.461 241.28 140.408C242.365 135.262 243.136 129.935 242.387 124.719C241.352 117.518 237.514 110.973 236.86 103.722C236.747 102.454 236.82 100.972 237.778 100.208C238.372 99.7353 239.153 99.67 239.891 99.6239C246.713 99.1937 254.209 99.2744 259.494 103.872C261.103 105.27 262.409 107.017 263.983 108.457C267.73 111.914 273.026 113.673 275.432 118.263C276.271 119.861 276.673 121.669 277.259 123.39C278.64 127.461 281.032 131.041 283.408 134.563C281.104 144.887 278.456 155.218 276.152 165.542C274.802 171.599 273.442 177.678 271.322 183.478C269.933 187.28 268.186 191.159 268.613 195.23C268.783 196.832 269.286 198.364 269.724 199.908C271.258 205.327 271.977 210.97 271.854 216.627L168.636 216.896C173.581 209.368 175.031 200.135 174.528 190.975C174.286 186.585 173.353 182.168 171.273 178.37C167.995 172.417 162.229 168.538 156.546 165.215C152.567 162.911 148.295 175.877 143.994 174.391C144.688 169.175 145.007 149.042 144.717 143.792C144.623 142.071 144.479 140.305 144.978 138.661C145.318 137.535 145.944 136.529 146.367 135.435C148.063 131.052 146.446 125.449 149.188 121.719C151.084 119.127 154.408 118.39 157.111 116.792C159.885 115.148 162.03 112.567 164.447 110.362C169.188 106.088 174.982 103.341 181.145 102.447C182.942 105.458 184.035 108.882 184.331 112.433C184.516 114.664 184.382 116.926 184.675 119.146C185.077 122.153 186.249 124.976 187.41 127.757C192.246 139.352 197.101 150.982 203.229 161.87C204.961 164.943 206.846 168.015 209.357 170.408C211.867 172.801 215.481 174.51 218.852 174.341Z" fill="black"/>
<path d="M213.393 95.4298C230.519 95.4298 244.402 80.6899 244.402 62.5074C244.402 44.3248 230.519 29.5849 213.393 29.5849C196.268 29.5849 182.385 44.3248 182.385 62.5074C182.385 80.6899 196.268 95.4298 213.393 95.4298Z" fill="#EFB7B9"/>
<path d="M197.123 106.38C197.973 97.861 194.637 89.5267 190.861 81.9567C189.052 78.3387 187.113 74.7323 186.205 70.7572C185.297 66.7821 185.558 62.2808 187.88 59.0123C189.855 56.2317 192.988 54.73 195.885 53.0977C204.064 48.4888 211.541 41.7138 215.137 32.6536C213.104 33.8289 213.632 37.3354 215.427 38.8832C217.221 40.431 219.666 40.7306 221.873 41.468C229.918 44.1565 234.743 52.6752 238.614 60.6331C239.247 61.9313 239.891 63.3024 239.884 64.7657C239.877 66.229 239.247 67.5272 238.589 68.7716C236.679 72.3818 234.342 75.85 233.474 79.8865C232.479 84.4954 233.528 89.3423 234.892 93.8628C236.339 98.6714 238.26 103.518 241.732 106.967C245.205 110.416 250.591 112.129 254.863 109.902C250.598 102.117 246.182 93.4173 247.846 84.5914C248.649 80.3666 250.808 76.5259 251.727 72.3242C253.478 64.3087 250.562 56.0627 247.701 48.412L239.149 25.5791C237.844 22.0879 236.357 18.3624 233.362 16.3844C231.336 15.0517 228.883 14.706 226.51 14.4641C218.87 13.742 210.955 13.9801 203.844 16.9989C190.886 22.495 182.762 36.045 176.315 49.1878C174.384 53.1245 172.477 57.3071 172.557 61.7469C172.6 64.1819 173.241 66.5516 173.761 68.9252C175.881 78.5884 175.997 88.6011 176.106 98.5216C176.189 106.134 175.816 113.308 172.68 120.241C176.977 121.147 183.21 123.594 187.464 121.804C193.01 119.476 196.424 112.306 197.123 106.38Z" fill="#454B69"/>
<g opacity="0.1">
<path opacity="0.1" d="M176.087 98.3603C176.102 97.2772 176.102 96.1839 176.087 95.0804C175.979 85.1598 175.863 75.1471 173.743 65.4839C173.27 63.6035 172.9 61.6952 172.636 59.769C172.562 60.4303 172.529 61.0963 172.539 61.7623C172.582 64.1973 173.222 66.567 173.743 68.9405C175.852 78.5461 175.982 88.4974 176.087 98.3603Z" fill="black"/>
<path opacity="0.1" d="M251.727 72.3242C252.202 70.0801 252.36 67.7736 252.197 65.4801C252.126 66.6208 251.969 67.7536 251.727 68.8676C250.808 73.0923 248.648 76.8985 247.845 81.1348C247.499 83.0033 247.402 84.9141 247.556 86.8113C247.614 86.0662 247.71 85.3251 247.845 84.5914C248.648 80.3551 250.808 76.5336 251.727 72.3242Z" fill="black"/>
<path opacity="0.1" d="M239.601 63.0028C239.778 62.4573 239.873 61.8858 239.884 61.3091C239.884 59.8458 239.247 58.4746 238.614 57.1765C234.743 49.2185 229.932 40.7076 221.873 38.0114C219.666 37.274 217.224 36.9744 215.426 35.4266C214.964 35.0036 214.585 34.4867 214.313 33.9063C214.041 33.326 213.881 32.6938 213.842 32.0468C209.921 39.6898 203.185 45.5353 195.885 49.641C192.991 51.2733 189.855 52.775 187.88 55.5557C186.024 58.1674 185.485 61.5664 185.807 64.854C185.99 62.7441 186.706 60.7257 187.88 59.0123C189.855 56.2317 192.988 54.73 195.885 53.0977C203.185 48.992 209.921 43.1464 213.842 35.5034C213.881 36.1504 214.041 36.7826 214.313 37.363C214.585 37.9433 214.964 38.4602 215.426 38.8832C217.235 40.4195 219.666 40.7306 221.873 41.468C229.918 44.1565 234.743 52.6752 238.614 60.6331C239.006 61.3916 239.337 62.1844 239.601 63.0028Z" fill="black"/>
<path opacity="0.1" d="M241.732 103.511C238.259 100.054 236.346 95.2147 234.892 90.4062C234.019 87.705 233.437 84.9079 233.155 82.068C232.819 86.0124 233.741 90.049 234.892 93.8628C236.339 98.6714 238.259 103.518 241.732 106.967C245.205 110.416 250.591 112.129 254.863 109.902C254.35 108.968 253.84 108.02 253.333 107.063C249.365 108.25 244.807 106.56 241.732 103.511Z" fill="black"/>
<path opacity="0.1" d="M197.122 102.923C196.424 108.849 193.01 116.02 187.45 118.363C183.59 119.987 178.095 118.121 173.902 117.088C173.542 118.166 173.129 119.223 172.665 120.256C176.963 121.163 183.196 123.609 187.45 121.819C193.01 119.476 196.424 112.306 197.122 106.38C197.266 104.897 197.293 103.404 197.202 101.917C197.18 102.251 197.148 102.589 197.122 102.923Z" fill="black"/>
</g>
<path d="M240.954 198.149C235.366 197.208 229.694 195.392 224.152 196.613C220.939 197.32 218.002 199.017 215.333 201.068C216.801 202.316 218.516 203.43 219.449 205.166C220.028 206.367 220.463 207.641 220.744 208.957C221.33 211.261 221.92 213.612 222.01 216.009C222.101 218.405 221.648 220.902 220.303 222.833C227.349 223.571 234.179 221.727 241.052 219.926C241.838 219.78 242.586 219.459 243.248 218.985C244.333 218.079 244.651 216.466 244.659 214.995C244.659 212.368 243.964 209.806 243.259 207.286C242.42 204.264 241.797 201.153 240.954 198.149Z" fill="white"/>
<path d="M278.691 133.368C281.466 133.752 283.618 136.13 285.202 138.572C289.648 145.37 291.565 153.613 293.7 161.574C296.352 171.476 299.472 181.221 303.058 190.81C303.83 193.024 304.769 195.169 305.865 197.224C306.758 198.81 307.844 200.335 308.238 202.136C309.193 206.491 305.811 210.586 302.284 213.013C300.404 214.358 298.351 215.409 296.188 216.132C294.083 216.8 291.887 217.053 289.706 217.307L269.626 219.611C260.383 220.679 251.058 221.747 241.812 220.717C241.229 218.567 242.372 217.046 242.289 214.806C242.231 213.205 241.566 211.715 240.972 210.24C239.879 207.613 239.156 204.829 238.827 201.979C238.722 200.93 238.686 199.855 238.31 198.879C237.934 197.904 237.127 197.028 236.14 196.959C241.566 196.386 245.686 195.3 251.112 194.723C253.127 194.508 255.221 194.266 256.94 193.13C259.07 191.72 260.264 189.177 261.212 186.712C263.559 180.605 265.072 173.876 263.838 167.408C262.825 162.104 260 157.165 260.014 151.754C260.014 148.531 261.049 145.409 262.272 142.459C263.567 139.341 265.256 136.153 268.099 134.57C270.943 132.988 275.482 132.907 278.691 133.368Z" fill="#6C63FF"/>
<path opacity="0.08" d="M278.691 133.368C281.466 133.752 283.618 136.13 285.202 138.572C289.648 145.37 291.565 153.613 293.7 161.574C296.352 171.476 299.472 181.221 303.058 190.81C303.83 193.024 304.769 195.169 305.865 197.224C306.758 198.81 307.844 200.335 308.238 202.136C309.193 206.491 305.811 210.586 302.284 213.013C300.404 214.358 298.351 215.409 296.188 216.132C294.083 216.8 291.887 217.053 289.706 217.307L269.626 219.611C260.383 220.679 251.058 221.747 241.812 220.717C241.229 218.567 242.372 217.046 242.289 214.806C242.231 213.205 241.566 211.715 240.972 210.24C239.879 207.613 239.156 204.829 238.827 201.979C238.722 200.93 238.686 199.855 238.31 198.879C237.934 197.904 237.127 197.028 236.14 196.959C241.566 196.386 245.686 195.3 251.112 194.723C253.127 194.508 255.221 194.266 256.94 193.13C259.07 191.72 260.264 189.177 261.212 186.712C263.559 180.605 265.072 173.876 263.838 167.408C262.825 162.104 260 157.165 260.014 151.754C260.014 148.531 261.049 145.409 262.272 142.459C263.567 139.341 265.256 136.153 268.099 134.57C270.943 132.988 275.482 132.907 278.691 133.368Z" fill="black"/>
<path d="M152.947 128.379C154.26 125.069 155.595 121.65 155.631 118.059C155.671 114.176 154.184 110.489 153.048 106.802C151.644 102.291 150.708 97.63 150.259 92.9027C150.166 92.4498 150.23 91.9764 150.44 91.5699C150.74 91.1206 151.319 91.0284 151.829 90.9093C154.332 90.3025 156.224 88.1556 157.787 85.9933C160.211 82.6538 162.258 79.0238 163.886 75.1778C165.083 72.3473 166.704 68.8945 169.627 68.8676C168.45 74.7359 166.992 80.5365 165.257 86.2467C168.314 85.4172 171.218 84.2112 174.275 83.3816C174.873 83.1809 175.5 83.0926 176.127 83.1204C177.958 83.324 179.079 85.9548 178.015 87.5487C179.509 89.4076 181.995 89.9069 183.948 91.182C185.901 92.4572 187.305 95.6142 185.569 97.2158C185.229 97.5269 184.798 97.7458 184.552 98.1452C183.713 99.5202 185.768 101.099 185.598 102.727C185.46 104.06 183.85 104.682 182.631 104.329C181.412 103.975 180.461 103.008 179.376 102.297C178.29 101.586 176.872 101.145 175.82 101.882C175.538 105.496 175.234 109.18 173.761 112.471C173.222 113.673 172.531 114.798 172.097 116.047C171.682 117.408 171.425 118.817 171.331 120.245L170.017 132.992C163.752 134.325 158.134 132.331 152.947 128.379Z" fill="#EFB7B9"/>
<path d="M151.417 139.805L150.263 131.513C150.153 130.838 150.091 130.155 150.078 129.47C150.078 127.55 150.874 125.718 151.645 123.97C158.029 127.135 164.931 128.26 171.974 128.264C172.904 128.264 173.964 128.172 174.543 127.4C175.74 128.863 175.776 131.217 175.266 133.076C174.756 134.935 173.776 136.61 173.125 138.423C172.796 139.341 172.528 140.343 171.898 141.05C170.922 142.167 169.337 142.359 167.898 142.352C166.383 142.341 164.872 142.189 163.383 141.895C159.527 141.134 155.273 139.072 151.417 139.805Z" fill="white"/>
<path d="M175.23 139.467C170.274 138.868 165.351 138.023 160.46 136.932C158.062 136.399 155.642 135.803 153.197 135.907C151.605 135.976 149.894 136.314 148.494 135.477C149.858 140.404 149.941 145.597 148.309 150.432C147.344 153.313 145.871 155.998 145.162 158.963C143.686 165.165 145.712 171.929 143.867 178.02C143.672 178.816 143.289 179.546 142.753 180.14C142.189 180.69 141.418 180.974 140.897 181.569C140.13 182.445 140.083 183.762 140.08 184.957L140.047 195.538C140.026 202.274 140.109 209.418 143.458 215.125C147.278 221.654 155.32 225.038 162.32 223.052C164.181 222.547 165.924 221.641 167.442 220.391C169.873 218.34 171.421 215.375 172.937 212.487C174.745 209.03 176.554 205.497 177.136 201.606C177.549 198.852 177.317 196.041 177.021 193.272C175.386 177.909 171.837 162.677 172.6 147.256C172.714 144.437 173.631 141.721 175.23 139.467Z" fill="#6C63FF"/>
<path d="M195.943 203.223C193.429 203.377 190.897 203.53 188.394 203.223C186.585 202.992 184.82 202.52 183.026 202.197C178.126 201.357 173.112 201.653 168.33 203.063C163.548 204.474 159.109 206.967 155.32 210.37C153.931 211.63 152.527 213.562 153.294 215.325C154.119 217.222 156.64 217.168 158.583 216.815C156.486 217.878 154.634 219.416 153.157 221.32C152.614 222.023 152.1 222.857 152.205 223.767C152.426 225.668 154.857 226.014 156.655 225.848C156.069 226.517 156.463 227.7 157.208 228.153C157.953 228.606 158.879 228.514 159.722 228.349C161.586 227.986 163.386 227.325 165.062 226.386C164.722 227.327 165.311 228.429 166.147 228.898C166.982 229.366 167.999 229.332 168.936 229.171C173.356 228.402 177.046 225.138 181.358 223.855C188.253 221.808 195.466 225.073 202.632 225.303C204.875 225.376 207.175 225.134 209.219 224.151C211.726 222.941 213.748 220.671 216.396 219.865C219.337 218.974 222.712 219.999 225.403 218.459C227.36 217.341 225.595 208.727 225.096 207.067C224.181 204.033 223.262 202.021 220.212 201.713C212.496 200.911 203.717 202.747 195.943 203.223Z" fill="#EFB7B9"/>
<path d="M215.191 200.872C215.191 200.872 226.872 211.369 220.133 222.822L233.155 218.048V208.028C233.155 207.551 228.21 200.396 228.21 200.396L222.368 199.44L215.191 200.872Z" fill="white"/>
<path d="M92.8911 200.223H97.2718C99.6703 200.223 101.971 201.235 103.667 203.036C105.362 204.836 106.315 207.278 106.315 209.825V224.078H83.8477V209.825C83.8477 208.564 84.0816 207.316 84.5361 206.151C84.9905 204.986 85.6567 203.927 86.4964 203.036C87.3362 202.144 88.3331 201.437 89.4303 200.954C90.5276 200.472 91.7035 200.223 92.8911 200.223Z" fill="#3F3D56"/>
<path opacity="0.1" d="M92.8911 200.223H97.2718C99.6703 200.223 101.971 201.235 103.667 203.036C105.362 204.836 106.315 207.278 106.315 209.825V224.078H83.8477V209.825C83.8477 208.564 84.0816 207.316 84.5361 206.151C84.9905 204.986 85.6567 203.927 86.4964 203.036C87.3362 202.144 88.3331 201.437 89.4303 200.954C90.5276 200.472 91.7035 200.223 92.8911 200.223Z" fill="black"/>
<path d="M94.1824 205.47C95.1753 205.47 95.9802 204.615 95.9802 203.561C95.9802 202.507 95.1753 201.652 94.1824 201.652C93.1894 201.652 92.3845 202.507 92.3845 203.561C92.3845 204.615 93.1894 205.47 94.1824 205.47Z" fill="#3F3D56"/>
<path d="M94.1824 203.085C95.1753 203.085 95.9802 202.23 95.9802 201.176C95.9802 200.122 95.1753 199.267 94.1824 199.267C93.1894 199.267 92.3845 200.122 92.3845 201.176C92.3845 202.23 93.1894 203.085 94.1824 203.085Z" fill="#3F3D56"/>
<path d="M94.1824 200.7C95.1753 200.7 95.9802 199.845 95.9802 198.791C95.9802 197.737 95.1753 196.882 94.1824 196.882C93.1894 196.882 92.3845 197.737 92.3845 198.791C92.3845 199.845 93.1894 200.7 94.1824 200.7Z" fill="#3F3D56"/>
<path d="M94.1824 198.314C95.1753 198.314 95.9802 197.46 95.9802 196.406C95.9802 195.351 95.1753 194.497 94.1824 194.497C93.1894 194.497 92.3845 195.351 92.3845 196.406C92.3845 197.46 93.1894 198.314 94.1824 198.314Z" fill="#3F3D56"/>
<path d="M94.1824 195.929C95.1753 195.929 95.9802 195.075 95.9802 194.021C95.9802 192.966 95.1753 192.112 94.1824 192.112C93.1894 192.112 92.3845 192.966 92.3845 194.021C92.3845 195.075 93.1894 195.929 94.1824 195.929Z" fill="#3F3D56"/>
<path d="M94.1824 193.544C95.1753 193.544 95.9802 192.69 95.9802 191.636C95.9802 190.581 95.1753 189.727 94.1824 189.727C93.1894 189.727 92.3845 190.581 92.3845 191.636C92.3845 192.69 93.1894 193.544 94.1824 193.544Z" fill="#3F3D56"/>
<path d="M94.1824 191.155C95.1753 191.155 95.9802 190.301 95.9802 189.247C95.9802 188.192 95.1753 187.338 94.1824 187.338C93.1894 187.338 92.3845 188.192 92.3845 189.247C92.3845 190.301 93.1894 191.155 94.1824 191.155Z" fill="#3F3D56"/>
<path d="M96.8809 192.112C97.8738 192.112 98.6787 191.257 98.6787 190.203C98.6787 189.149 97.8738 188.294 96.8809 188.294C95.8879 188.294 95.083 189.149 95.083 190.203C95.083 191.257 95.8879 192.112 96.8809 192.112Z" fill="#3F3D56"/>
<path d="M98.6787 191.155C99.6716 191.155 100.477 190.301 100.477 189.247C100.477 188.192 99.6716 187.338 98.6787 187.338C97.6858 187.338 96.8809 188.192 96.8809 189.247C96.8809 190.301 97.6858 191.155 98.6787 191.155Z" fill="#3F3D56"/>
<path d="M100.477 190.203C101.469 190.203 102.274 189.348 102.274 188.294C102.274 187.24 101.469 186.385 100.477 186.385C99.4836 186.385 98.6787 187.24 98.6787 188.294C98.6787 189.348 99.4836 190.203 100.477 190.203Z" fill="#3F3D56"/>
<path d="M94.1824 188.77C95.1753 188.77 95.9802 187.916 95.9802 186.862C95.9802 185.807 95.1753 184.953 94.1824 184.953C93.1894 184.953 92.3845 185.807 92.3845 186.862C92.3845 187.916 93.1894 188.77 94.1824 188.77Z" fill="#3F3D56"/>
<path d="M94.1824 186.385C95.1753 186.385 95.9802 185.531 95.9802 184.476C95.9802 183.422 95.1753 182.568 94.1824 182.568C93.1894 182.568 92.3845 183.422 92.3845 184.476C92.3845 185.531 93.1894 186.385 94.1824 186.385Z" fill="#3F3D56"/>
<path d="M94.1824 184C95.1753 184 95.9802 183.146 95.9802 182.091C95.9802 181.037 95.1753 180.183 94.1824 180.183C93.1894 180.183 92.3845 181.037 92.3845 182.091C92.3845 183.146 93.1894 184 94.1824 184Z" fill="#3F3D56"/>
<path d="M94.1824 181.615C95.1753 181.615 95.9802 180.761 95.9802 179.706C95.9802 178.652 95.1753 177.797 94.1824 177.797C93.1894 177.797 92.3845 178.652 92.3845 179.706C92.3845 180.761 93.1894 181.615 94.1824 181.615Z" fill="#3F3D56"/>
<path d="M101.649 173.55C101.2 173.619 100.752 173.669 100.303 173.699C100.72 173.313 101.107 172.892 101.461 172.44C101.212 171.638 100.845 170.882 100.375 170.201C99.9298 170.466 99.4371 170.631 98.9285 170.684C98.4835 170.754 98.035 170.804 97.5864 170.838C98.176 170.327 98.7259 169.559 99.3047 168.918C98.0079 167.67 96.3466 166.933 94.5991 166.831C92.8516 166.728 91.124 167.267 89.7059 168.356C88.2877 169.445 87.2652 171.018 86.8094 172.812C86.3537 174.606 86.4926 176.512 87.2027 178.211C87.9128 179.909 89.1511 181.297 90.7101 182.141C92.2691 182.985 94.0541 183.235 95.766 182.849C97.4779 182.463 99.0127 181.463 100.113 180.019C101.214 178.574 101.814 176.771 101.812 174.913C101.812 174.446 101.773 173.979 101.696 173.519L101.649 173.55Z" fill="#6C63FF"/>
<path d="M107.643 183.032C107.184 183.332 106.667 183.515 106.131 183.566C105.686 183.635 105.237 183.689 104.789 183.72C105.265 183.266 105.71 182.775 106.12 182.253C105.036 181.953 103.885 182.093 102.893 182.645C101.902 183.198 101.139 184.123 100.756 185.241C100.373 186.358 100.396 187.588 100.821 188.688C101.245 189.789 102.042 190.681 103.053 191.192C104.065 191.702 105.22 191.793 106.292 191.448C107.364 191.102 108.276 190.345 108.849 189.323C109.423 188.302 109.617 187.09 109.394 185.924C109.171 184.759 108.547 183.723 107.643 183.021V183.032Z" fill="#6C63FF"/>
<path d="M91.4875 192.112C92.4805 192.112 93.2854 191.257 93.2854 190.203C93.2854 189.149 92.4805 188.294 91.4875 188.294C90.4946 188.294 89.6897 189.149 89.6897 190.203C89.6897 191.257 90.4946 192.112 91.4875 192.112Z" fill="#3F3D56"/>
<path d="M89.6894 191.155C90.6824 191.155 91.4873 190.301 91.4873 189.247C91.4873 188.192 90.6824 187.338 89.6894 187.338C88.6965 187.338 87.8916 188.192 87.8916 189.247C87.8916 190.301 88.6965 191.155 89.6894 191.155Z" fill="#3F3D56"/>
<path d="M87.8916 190.203C88.8845 190.203 89.6894 189.348 89.6894 188.294C89.6894 187.24 88.8845 186.385 87.8916 186.385C86.8987 186.385 86.0938 187.24 86.0938 188.294C86.0938 189.348 86.8987 190.203 87.8916 190.203Z" fill="#3F3D56"/>
<path d="M80.7258 183.032C81.1843 183.332 81.7018 183.515 82.2379 183.566C82.6828 183.635 83.1314 183.689 83.58 183.72C83.1023 183.267 82.6573 182.776 82.2488 182.253C83.3327 181.953 84.4831 182.093 85.475 182.645C86.4669 183.198 87.2291 184.123 87.6124 185.241C87.9958 186.358 87.9728 187.588 87.5479 188.688C87.123 189.789 86.3269 190.681 85.3151 191.192C84.3032 191.702 83.1485 191.793 82.0767 191.448C81.0048 191.102 80.0928 190.345 79.5191 189.323C78.9454 188.302 78.7511 187.09 78.9743 185.924C79.1974 184.759 79.822 183.723 80.7258 183.021V183.032Z" fill="#6C63FF"/>
<path d="M92.891 201.637H97.2717C99.6702 201.637 101.97 202.648 103.666 204.449C105.362 206.25 106.315 208.692 106.315 211.238V223.863C106.315 224.295 106.154 224.709 105.866 225.014C105.578 225.32 105.188 225.491 104.781 225.491H85.3704C84.9637 225.491 84.5735 225.32 84.2859 225.014C83.9983 224.709 83.8367 224.295 83.8367 223.863V211.238C83.8367 209.977 84.0709 208.727 84.5261 207.561C84.9813 206.396 85.6484 205.337 86.4893 204.445C87.3302 203.553 88.3284 202.846 89.4269 202.364C90.5253 201.882 91.7025 201.635 92.891 201.637Z" fill="#3F3D56"/>
<g opacity="0.1">
<path opacity="0.1" d="M101.772 174.072C101.59 174.278 101.396 174.473 101.193 174.656C101.399 174.656 101.602 174.621 101.808 174.598C101.801 174.422 101.79 174.245 101.772 174.072Z" fill="black"/>
<path opacity="0.1" d="M98.4944 171.791C98.9466 171.76 99.3915 171.71 99.8401 171.641C100.242 171.587 100.636 171.473 101.008 171.303C100.826 170.919 100.615 170.55 100.379 170.201C100.154 170.346 99.9103 170.456 99.6556 170.527C99.3008 170.98 98.9125 171.403 98.4944 171.791Z" fill="black"/>
<path opacity="0.1" d="M87.4432 175.889C87.4405 174.433 87.8077 173.003 88.5062 171.749C89.2047 170.496 90.2085 169.466 91.412 168.768C92.6155 168.07 93.974 167.729 95.3446 167.782C96.7152 167.835 98.047 168.279 99.1997 169.068L99.3155 168.937C98.5631 168.226 97.6858 167.681 96.7339 167.332C95.7821 166.982 94.7746 166.837 93.7695 166.903C92.7644 166.969 91.7816 167.246 90.8777 167.717C89.9737 168.188 89.1666 168.845 88.5027 169.649C87.8388 170.453 87.3313 171.388 87.0095 172.401C86.6876 173.414 86.5578 174.485 86.6274 175.552C86.697 176.618 86.9648 177.66 87.4152 178.616C87.8657 179.572 88.4899 180.425 89.2519 181.124C88.082 179.662 87.4407 177.806 87.4432 175.889Z" fill="black"/>
</g>
<g opacity="0.1">
<path opacity="0.1" d="M104.789 184.672C105.237 184.642 105.686 184.592 106.131 184.523C106.667 184.47 107.185 184.286 107.643 183.985C108.151 184.382 108.574 184.888 108.886 185.47C109.198 186.053 109.39 186.698 109.452 187.365C109.469 187.198 109.478 187.03 109.477 186.862C109.48 186.116 109.318 185.379 109.004 184.712C108.69 184.045 108.232 183.465 107.668 183.021C107.21 183.32 106.692 183.503 106.156 183.555L105.794 183.605C105.486 183.988 105.15 184.345 104.789 184.672Z" fill="black"/>
<path opacity="0.1" d="M104.97 183.044C105.12 183.046 105.269 183.057 105.418 183.078C105.653 182.813 105.885 182.529 106.12 182.253C105.455 182.064 104.758 182.041 104.083 182.184C103.408 182.327 102.773 182.633 102.227 183.079C101.682 183.525 101.24 184.098 100.937 184.753C100.633 185.409 100.476 186.131 100.477 186.861C100.477 187.023 100.477 187.18 100.499 187.338C100.61 186.161 101.129 185.07 101.955 184.276C102.781 183.483 103.856 183.044 104.97 183.044Z" fill="black"/>
</g>
<g opacity="0.1">
<path opacity="0.1" d="M83.5798 184.672C83.1312 184.642 82.6827 184.592 82.2377 184.523C81.7014 184.47 81.1839 184.286 80.7257 183.985C80.2178 184.382 79.7943 184.888 79.4826 185.47C79.171 186.053 78.9783 186.698 78.917 187.365C78.8994 187.198 78.891 187.03 78.8917 186.862C78.8882 186.116 79.0502 185.379 79.3644 184.712C79.6786 184.045 80.1362 183.465 80.7003 183.021C81.1588 183.32 81.6763 183.503 82.2124 183.555L82.5742 183.605C82.8809 183.99 83.2173 184.347 83.5798 184.672Z" fill="black"/>
<path opacity="0.1" d="M83.3989 183.044C83.2476 183.046 83.0966 183.057 82.9467 183.078C82.7152 182.813 82.4837 182.529 82.2485 182.253C82.9136 182.064 83.6106 182.041 84.2855 182.184C84.9605 182.327 85.5954 182.633 86.141 183.079C86.6866 183.525 87.1283 184.098 87.4319 184.753C87.7355 185.409 87.8928 186.131 87.8917 186.861C87.8917 187.023 87.8917 187.18 87.87 187.338C87.7587 186.161 87.2397 185.07 86.4135 184.276C85.5873 183.483 84.5129 183.044 83.3989 183.044Z" fill="black"/>
</g>
<path d="M71.2084 230.108H35.8665C35.4683 230.108 35.0865 229.94 34.8049 229.641C34.5234 229.342 34.3652 228.937 34.3652 228.514V210.755C34.3652 210.486 34.4292 210.221 34.5514 209.985C34.6736 209.75 34.85 209.551 35.0641 209.407C35.2782 209.263 35.5231 209.179 35.776 209.163C36.0289 209.147 36.2815 209.199 36.5103 209.314C46.6644 214.43 57.6034 216.185 70.5138 209.395C70.7427 209.275 70.9965 209.219 71.2514 209.232C71.5062 209.245 71.7538 209.326 71.9709 209.469C72.1879 209.611 72.3672 209.81 72.492 210.046C72.6168 210.283 72.683 210.549 72.6843 210.82V228.487C72.6876 228.696 72.6521 228.904 72.5797 229.099C72.5074 229.294 72.3996 229.472 72.2625 229.622C72.1255 229.773 71.9618 229.893 71.781 229.976C71.6001 230.06 71.4055 230.104 71.2084 230.108Z" fill="#6C63FF"/>
<path opacity="0.1" d="M71.2084 230.108H35.8665C35.4683 230.108 35.0865 229.94 34.8049 229.641C34.5234 229.342 34.3652 228.937 34.3652 228.514V210.755C34.3652 210.486 34.4292 210.221 34.5514 209.985C34.6736 209.75 34.85 209.551 35.0641 209.407C35.2782 209.263 35.5231 209.179 35.776 209.163C36.0289 209.147 36.2815 209.199 36.5103 209.314C46.6644 214.43 57.6034 216.185 70.5138 209.395C70.7427 209.275 70.9965 209.219 71.2514 209.232C71.5062 209.245 71.7538 209.326 71.9709 209.469C72.1879 209.611 72.3672 209.81 72.492 210.046C72.6168 210.283 72.683 210.549 72.6843 210.82V228.487C72.6876 228.696 72.6521 228.904 72.5797 229.099C72.5074 229.294 72.3996 229.472 72.2625 229.622C72.1255 229.773 71.9618 229.893 71.781 229.976C71.6001 230.06 71.4055 230.104 71.2084 230.108Z" fill="black"/>
<path d="M53.2915 216.608C54.4463 216.608 55.3824 215.306 55.3824 213.7C55.3824 212.095 54.4463 210.793 53.2915 210.793C52.1368 210.793 51.2007 212.095 51.2007 213.7C51.2007 215.306 52.1368 216.608 53.2915 216.608Z" fill="#3F3D56"/>
<path d="M53.2915 213.055C54.4463 213.055 55.3824 211.753 55.3824 210.148C55.3824 208.542 54.4463 207.24 53.2915 207.24C52.1368 207.24 51.2007 208.542 51.2007 210.148C51.2007 211.753 52.1368 213.055 53.2915 213.055Z" fill="#3F3D56"/>
<path d="M53.2915 209.499C54.4463 209.499 55.3824 208.197 55.3824 206.591C55.3824 204.985 54.4463 203.684 53.2915 203.684C52.1368 203.684 51.2007 204.985 51.2007 206.591C51.2007 208.197 52.1368 209.499 53.2915 209.499Z" fill="#3F3D56"/>
<path d="M53.2915 205.946C54.4463 205.946 55.3824 204.644 55.3824 203.039C55.3824 201.433 54.4463 200.131 53.2915 200.131C52.1368 200.131 51.2007 201.433 51.2007 203.039C51.2007 204.644 52.1368 205.946 53.2915 205.946Z" fill="#3F3D56"/>
<path d="M53.2915 202.389C54.4463 202.389 55.3824 201.088 55.3824 199.482C55.3824 197.876 54.4463 196.575 53.2915 196.575C52.1368 196.575 51.2007 197.876 51.2007 199.482C51.2007 201.088 52.1368 202.389 53.2915 202.389Z" fill="#3F3D56"/>
<path d="M53.2915 198.833C54.4463 198.833 55.3824 197.531 55.3824 195.926C55.3824 194.32 54.4463 193.018 53.2915 193.018C52.1368 193.018 51.2007 194.32 51.2007 195.926C51.2007 197.531 52.1368 198.833 53.2915 198.833Z" fill="#3F3D56"/>
<path d="M53.2915 195.28C54.4463 195.28 55.3824 193.979 55.3824 192.373C55.3824 190.767 54.4463 189.466 53.2915 189.466C52.1368 189.466 51.2007 190.767 51.2007 192.373C51.2007 193.979 52.1368 195.28 53.2915 195.28Z" fill="#3F3D56"/>
<path d="M61.1338 168.046C61.4177 167.658 61.6775 167.252 61.9115 166.828L56.4131 165.868L62.3601 165.914C62.9338 164.594 63.2469 163.164 63.2798 161.711C63.3128 160.257 63.065 158.812 62.5518 157.465L54.5755 161.859L61.9332 156.097C61.2443 154.832 60.3174 153.732 59.2102 152.864C58.1031 151.996 56.8394 151.379 55.498 151.052C54.1565 150.725 52.7661 150.695 51.4132 150.964C50.0604 151.232 48.7741 151.794 47.6346 152.613C46.4951 153.433 45.5267 154.493 44.7898 155.727C44.0529 156.961 43.5632 158.343 43.3514 159.787C43.1395 161.231 43.21 162.705 43.5584 164.119C43.9068 165.533 44.5257 166.855 45.3764 168.004C44.9294 168.604 44.5461 169.254 44.2333 169.943L51.3668 173.922L43.7703 171.195C43.2379 172.871 43.1069 174.662 43.3892 176.405C43.6715 178.149 44.3582 179.79 45.3873 181.181C44.2243 182.751 43.5009 184.636 43.2997 186.622C43.0985 188.608 43.4276 190.614 44.2495 192.41C45.0714 194.207 46.3528 195.722 47.9472 196.781C49.5417 197.841 51.3849 198.403 53.266 198.403C55.1471 198.403 56.9902 197.841 58.5847 196.781C60.1792 195.722 61.4606 194.207 62.2824 192.41C63.1043 190.614 63.4335 188.608 63.2323 186.622C63.031 184.636 62.3076 182.751 61.1446 181.181C62.5341 179.305 63.2894 176.988 63.2894 174.602C63.2894 172.216 62.5341 169.899 61.1446 168.023L61.1338 168.046Z" fill="#6C63FF"/>
<path opacity="0.1" d="M43.2241 174.625C43.2208 177.012 43.9767 179.33 45.3692 181.204C44.2063 182.774 43.4828 184.66 43.2816 186.645C43.0804 188.631 43.4096 190.637 44.2314 192.434C45.0533 194.23 46.3347 195.745 47.9292 196.805C49.5237 197.864 51.3668 198.426 53.2479 198.426C55.129 198.426 56.9722 197.864 58.5667 196.805C60.1611 195.745 61.4425 194.23 62.2644 192.434C63.0863 190.637 63.4154 188.631 63.2142 186.645C63.013 184.66 62.2896 182.774 61.1266 181.204C62.4687 179.395 43.2241 173.431 43.2241 174.625Z" fill="black"/>
<path d="M71.2084 231.049H35.8665C35.4683 231.049 35.0865 230.881 34.8049 230.582C34.5234 230.283 34.3652 229.878 34.3652 229.455V210.755C34.3652 210.486 34.4292 210.221 34.5514 209.985C34.6736 209.75 34.85 209.551 35.0641 209.407C35.2782 209.263 35.5231 209.179 35.776 209.163C36.0289 209.147 36.2815 209.199 36.5103 209.314C46.6644 214.43 54.7167 220.395 70.5138 209.395C71.4507 208.742 72.6843 209.633 72.6843 210.82V229.447C72.6862 229.867 72.5324 230.27 72.2561 230.57C71.9798 230.87 71.6034 231.042 71.2084 231.049Z" fill="#6C63FF"/>
<path d="M333.462 225.76L281.321 233.084L278.713 233.449L253.221 218.993V215.609L332.883 206.384L333.462 225.76Z" fill="#9C9CA1"/>
<path d="M267.994 220.529L324.48 213.458L323.901 224.531L279.903 227.957L267.994 220.529Z" fill="#939498"/>
<path opacity="0.4" d="M281.321 229.447V233.08L278.713 233.465L253.218 218.993V215.609L277.552 229.436C277.552 229.436 280.742 229.754 281.321 229.447Z" fill="black"/>
<path d="M291.33 171.779L279.624 229.409C279.506 229.986 279.521 230.584 279.667 231.154C279.812 231.724 280.085 232.248 280.462 232.682C280.839 233.117 281.308 233.448 281.831 233.649C282.354 233.85 282.915 233.915 283.466 233.837L357.525 223.429C358.17 223.339 358.778 223.057 359.28 222.617C359.781 222.177 360.156 221.596 360.361 220.94L376.339 169.782C376.515 169.214 376.559 168.61 376.467 168.02C376.374 167.43 376.148 166.873 375.808 166.397C375.468 165.921 375.023 165.54 374.513 165.286C374.003 165.033 373.443 164.915 372.881 164.943L294.557 168.891C293.795 168.929 293.066 169.233 292.483 169.755C291.9 170.277 291.495 170.988 291.33 171.779Z" fill="#3F3D56"/>
<path d="M332.024 193.04C332.206 191.204 331.453 189.616 330.342 189.492C329.232 189.368 328.184 190.756 328.002 192.591C327.821 194.426 328.574 196.014 329.684 196.138C330.795 196.262 331.843 194.875 332.024 193.04Z" fill="white"/>
</g>
<defs>
<clipPath id="clip0">
<rect width="416" height="241" fill="white"/>
</clipPath>
</defs>
</svg>
