<svg width="267" height="278" viewBox="0 0 267 278" fill="none" xmlns="http://www.w3.org/2000/svg">
<path d="M253.028 259.049C253.028 269.515 196.386 278 126.514 278C56.6415 278 0 269.515 0 259.049C0 251.639 28.3922 245.22 69.7704 242.106C86.8334 240.819 106.112 240.097 126.514 240.097C134.901 240.097 143.095 240.219 151.021 240.452C209.164 242.163 253.028 249.838 253.028 259.049Z" fill="#3F3D56"/>
<path opacity="0.1" d="M110.19 262.92C137.011 262.92 158.755 260.275 158.755 257.011C158.755 253.747 137.011 251.101 110.19 251.101C83.3678 251.101 61.6245 253.747 61.6245 257.011C61.6245 260.275 83.3678 262.92 110.19 262.92Z" fill="black"/>
<path d="M109.986 261.29C135.342 261.29 155.898 239.394 155.898 212.383C155.898 185.373 135.342 163.477 109.986 163.477C84.6289 163.477 64.0732 185.373 64.0732 212.383C64.0732 239.394 84.6289 261.29 109.986 261.29Z" fill="#3F3D56"/>
<path d="M124.473 241.32H95.9058V267.404H124.473V241.32Z" fill="#666AF6"/>
<path d="M161.815 247.637L160.183 256.603L170.794 258.234L177.732 254.158L177.323 247.637H161.815Z" fill="#575A89"/>
<path d="M108.353 79.3161C108.353 79.3161 107.537 88.6899 105.496 89.0974C103.456 89.505 109.985 105.807 109.985 105.807H119.78L127.534 103.769L123.861 94.8032C123.861 94.8032 118.964 88.2823 122.637 82.9841C126.31 77.6858 108.353 79.3161 108.353 79.3161Z" fill="#A0616A"/>
<path opacity="0.1" d="M108.353 79.3161C108.353 79.3161 107.537 88.6899 105.496 89.0974C103.456 89.505 109.985 105.807 109.985 105.807H119.78L127.534 103.769L123.861 94.8032C123.861 94.8032 118.964 88.2823 122.637 82.9841C126.31 77.6858 108.353 79.3161 108.353 79.3161Z" fill="black"/>
<path d="M87.9475 151.046C87.9475 151.046 77.3367 171.424 85.907 175.499C94.4773 179.575 96.5178 179.167 96.5178 180.39C96.5178 181.613 94.8854 181.205 95.7016 183.243C96.5178 185.281 94.0692 193.432 96.5178 198.323C98.9665 203.213 98.1503 206.881 98.1503 206.881C98.1503 206.881 98.1503 207.289 98.9665 208.919C99.7827 210.549 100.191 211.772 99.7827 212.587C99.3746 213.402 96.926 218.7 99.3746 219.923C101.823 221.146 114.475 221.961 115.699 219.923C116.923 217.885 114.475 216.663 115.699 215.44C116.923 214.217 117.74 213.81 116.923 212.995C116.107 212.18 115.291 201.991 115.291 201.991C115.291 201.991 117.331 190.172 116.515 188.541C115.699 186.911 114.475 185.281 115.291 184.058C116.107 182.835 116.923 183.243 117.331 181.613C117.74 179.983 118.556 176.315 118.556 176.315L123.045 175.907L133.656 177.945C133.656 177.945 145.491 190.987 158.55 195.062C158.55 195.062 162.223 198.73 163.448 198.73C164.672 198.73 164.672 198.73 164.264 199.545C163.856 200.36 162.632 200.36 163.448 201.176C164.264 201.991 165.488 200.768 164.672 201.991C163.856 203.213 163.04 203.213 163.856 204.028C164.672 204.844 163.448 209.327 163.448 209.734C163.448 210.142 159.775 248.452 160.999 249.267C162.223 250.082 179.364 252.528 180.588 249.267C181.813 246.007 179.772 241.931 179.772 241.931C179.772 241.931 185.894 193.024 184.261 189.764C182.629 186.503 176.915 171.831 146.307 162.458C146.307 162.458 137.737 160.827 137.737 159.605C137.737 158.382 136.921 150.639 135.288 150.231C133.656 149.823 124.269 149.416 124.269 149.416L112.434 153.084L96.1097 150.231L87.9475 151.046Z" fill="#2F2E41"/>
<path d="M102.231 219.516L100.191 226.852C100.191 226.852 98.5585 238.671 100.599 241.524C102.202 243.765 105.064 246.508 110.371 246.99C111.858 247.126 113.348 246.751 114.593 245.927C115.838 245.103 116.764 243.88 117.218 242.459C117.279 242.289 117.317 242.111 117.332 241.931C117.332 241.116 116.107 231.335 116.107 231.335L114.067 221.146L113.659 218.293L102.231 219.516Z" fill="#2F2E41"/>
<path d="M161.815 254.565C161.815 254.565 159.775 252.528 159.367 254.565C158.959 256.603 157.326 265.162 160.183 265.569C163.04 265.977 190.383 270.053 193.24 268.422C196.096 266.792 201.402 264.347 198.137 263.124C194.872 261.901 185.486 258.233 185.486 258.233C185.486 258.233 180.18 251.305 179.364 250.897C178.548 250.49 174.059 251.305 172.018 252.935C169.977 254.565 161.815 254.565 161.815 254.565Z" fill="#2F2E41"/>
<path d="M118.148 87.8747C125.135 87.8747 130.799 82.2182 130.799 75.2405C130.799 68.2628 125.135 62.6062 118.148 62.6062C111.161 62.6062 105.496 68.2628 105.496 75.2405C105.496 82.2182 111.161 87.8747 118.148 87.8747Z" fill="#A0616A"/>
<path d="M116.923 103.769L112.026 98.4712L106.598 87.8748C106.598 87.8748 102.64 86.6521 101.823 88.6899C101.007 90.7277 86.3152 97.2486 86.3152 97.2486C86.3152 97.2486 89.9882 131.483 88.3557 134.744C86.7233 138.004 83.8665 151.046 86.3152 152.269C88.7638 153.491 100.191 152.269 103.864 153.899C107.537 155.529 118.148 155.529 121.004 153.491C123.861 151.454 124.677 149.823 127.534 151.046C129.966 152.087 135.652 116.501 137.289 105.897C137.427 105.006 137.312 104.094 136.958 103.265C136.604 102.436 136.025 101.723 135.286 101.206C131.624 98.6406 125.029 94.2203 123.861 94.8032C122.229 95.6183 116.923 103.769 116.923 103.769Z" fill="#575A89"/>
<path d="M134.472 102.139C135.43 102.378 136.292 102.905 136.942 103.648C137.592 104.39 137.999 105.314 138.108 106.295L141.41 135.966C141.41 135.966 133.248 153.491 129.167 141.672C125.085 129.853 134.472 102.139 134.472 102.139Z" fill="#575A89"/>
<path d="M133.656 138.819L142.634 136.374C142.634 136.374 144.267 147.786 145.899 147.786C147.532 147.786 140.186 154.307 136.513 153.491C132.84 152.676 127.534 149.823 127.126 147.786C126.718 145.748 130.799 137.189 130.799 137.189L133.656 138.819Z" fill="#575A89"/>
<path d="M108.597 80.6907C109.457 78.7964 109.308 76.5868 110.019 74.6318C110.4 73.585 111.018 72.6402 111.825 71.8714C112.632 71.1026 113.606 70.5305 114.671 70.1998C115.736 69.8691 116.863 69.7888 117.964 69.9651C119.065 70.1414 120.111 70.5696 121.019 71.2162C121.934 71.8676 122.851 72.7829 123.968 72.6585C125.17 72.5246 126.243 71.1848 127.349 71.6758C128.574 72.22 128.243 74.4133 129.485 74.9199C130.138 75.1865 130.91 74.7759 131.287 74.1799C131.617 73.5535 131.797 72.8592 131.812 72.1518C131.983 70.4135 132.138 68.5738 131.383 66.9982C131.066 66.4642 130.789 65.907 130.556 65.3314C130.423 64.7938 130.371 64.2399 130.398 63.6871C130.391 61.644 130.242 59.5129 129.212 57.7473C128.07 55.7881 125.958 54.5354 123.755 53.9887C121.551 53.4421 119.243 53.5259 116.981 53.7171C113.241 54.0333 109.341 54.711 106.395 57.0326C105.995 57.3248 105.65 57.6864 105.377 58.1002C105.119 58.5919 104.936 59.1197 104.835 59.6658C104.198 62.2563 103.243 64.7583 101.992 67.1148C101.39 68.1138 100.898 69.175 100.525 70.2797C100.212 71.4023 100.233 72.6816 100.887 73.6465C101.42 74.432 102.271 74.8506 102.94 75.4929C103.603 76.1292 103.913 77.3531 104.647 77.835C105.288 78.2556 106.055 77.9587 106.709 78.4046C107.548 78.977 107.609 80.2321 108.597 80.6907Z" fill="#2F2E41"/>
<path d="M118.964 109.883L120.188 107.438C120.188 107.438 138.145 112.736 141.818 117.626C141.818 117.626 150.796 111.921 155.694 112.736L160.591 113.551L145.491 127L126.31 125.37L118.964 109.883Z" fill="#F2F2F2"/>
<path d="M118.148 107.438L101.415 130.668L125.493 142.487C125.493 142.487 127.745 143.71 129.476 142.487L145.491 135.151L160.591 113.551L145.491 121.294C145.491 121.294 143.858 118.034 140.594 119.664L118.148 107.438Z" fill="#6C63FF"/>
<path d="M143.859 148.601L147.124 140.042C147.124 140.042 154.469 130.668 150.388 126.185C146.307 121.702 141.818 139.227 141.818 139.227L143.859 148.601Z" fill="#A0616A"/>
<path d="M106.189 147.235L113.313 141.467C113.313 141.467 124.377 137.039 123.099 131.116C121.821 125.193 109.133 138.104 109.133 138.104L106.189 147.235Z" fill="#A0616A"/>
<path opacity="0.1" d="M88.5598 106.011H88.1516C88.1516 106.011 81.826 98.4712 80.6016 108.66C79.3773 118.849 75.2962 152.676 85.907 153.899C96.5179 155.122 104.068 148.804 104.068 148.804C104.068 148.804 111.822 136.985 108.965 136.985C107.583 136.985 103.824 136.365 100.395 136.578C96.7372 136.804 93.4505 137.833 93.6611 136.782C94.0692 134.744 99.9868 108.864 88.5598 106.011Z" fill="black"/>
<path d="M87.9476 98.0636L86.3152 97.2485C86.3152 97.2485 79.7854 98.4712 78.5611 108.66C77.3368 118.849 73.2557 152.676 83.8665 153.899C94.4774 155.122 108.761 152.269 108.761 152.269C108.761 152.269 111.618 136.782 108.761 136.782C105.904 136.782 91.2125 138.819 91.6206 136.782C92.0287 134.744 99.3747 100.917 87.9476 98.0636Z" fill="#575A89"/>
<path d="M137.941 143.914L142.441 137.026L145.287 148.397L137.941 151.658V143.914Z" fill="#575A89"/>
<path d="M45.4933 45.6926C51.5789 45.6926 56.5123 40.766 56.5123 34.6886C56.5123 28.6112 51.5789 23.6846 45.4933 23.6846C39.4077 23.6846 34.4744 28.6112 34.4744 34.6886C34.4744 40.766 39.4077 45.6926 45.4933 45.6926Z" fill="#666AF6"/>
<path d="M58.5526 116.608H32.4336V142.691H58.5526V116.608Z" fill="#666AF6"/>
<path d="M151.816 0L158.427 11.4348L165.038 22.8696H151.816H138.595L145.206 11.4348L151.816 0Z" fill="#666AF6"/>
<path d="M267 68.5629C266.842 73.4415 265.652 77.3518 263.431 80.2938C261.209 83.2362 258.57 84.7075 255.513 84.7078C253.023 84.7078 250.841 83.2679 248.966 80.3882C247.091 77.5086 246.153 73.079 246.153 67.0995C246.153 65.7777 246.185 64.5188 246.248 63.3229C246.311 62.1272 246.389 60.9942 246.484 59.924L248.139 44.3928H237.219C235.328 64.031 233.776 75.7148 232.563 79.4441C231.349 83.1734 229.293 85.0381 226.394 85.0383C225.085 85.0061 223.837 84.4837 222.896 83.5748C222.35 83.0921 221.919 82.4945 221.633 81.825C221.347 81.1556 221.213 80.4311 221.241 79.7037C221.241 78.2566 222.384 76.2346 224.668 73.6377C226.953 71.0412 228.222 68.673 228.474 66.533L231.31 44.3928H226.725C225.432 44.4005 224.16 44.7161 223.014 45.3133C221.959 45.7971 221.041 46.5352 220.343 47.4612L218.311 50.4825H216.656C218.2 45.6991 220.099 42.1035 222.352 39.6956C224.605 37.2881 227.197 36.0843 230.128 36.0843H266.244V44.3928H254.048C253.669 48.1694 253.378 51.9459 253.173 55.7225C252.968 59.499 252.865 63.2914 252.866 67.0994C252.866 69.6804 253.465 71.7732 254.662 73.378C255.86 74.9831 257.356 75.7856 259.153 75.7856C260.256 75.7856 261.414 75.3371 262.627 74.4401C263.204 74.0364 263.686 73.5132 264.041 72.9062C264.396 72.2992 264.615 71.6228 264.684 70.9233C264.778 70.2313 264.849 69.6884 264.896 69.2946C264.944 68.9014 264.967 68.6575 264.967 68.5629L267 68.5629Z" fill="#6C63FF"/>
<path opacity="0.1" d="M267 68.5629C266.842 73.4415 265.652 77.3518 263.431 80.2938C261.209 83.2362 258.57 84.7075 255.513 84.7078C253.023 84.7078 250.841 83.2679 248.966 80.3882C247.091 77.5086 246.153 73.079 246.153 67.0995C246.153 65.7777 246.185 64.5188 246.248 63.3229C246.311 62.1272 246.389 60.9942 246.484 59.924L248.139 44.3928H237.219C235.328 64.031 233.776 75.7148 232.563 79.4441C231.349 83.1734 229.293 85.0381 226.394 85.0383C225.085 85.0061 223.837 84.4837 222.896 83.5748C222.35 83.0921 221.919 82.4945 221.633 81.825C221.347 81.1556 221.213 80.4311 221.241 79.7037C221.241 78.2566 222.384 76.2346 224.668 73.6377C226.953 71.0412 228.222 68.673 228.474 66.533L231.31 44.3928H226.725C225.432 44.4005 224.16 44.7161 223.014 45.3133C221.959 45.7971 221.041 46.5352 220.343 47.4612L218.311 50.4825H216.656C218.2 45.6991 220.099 42.1035 222.352 39.6956C224.605 37.2881 227.197 36.0843 230.128 36.0843H266.244V44.3928H254.048C253.669 48.1694 253.378 51.9459 253.173 55.7225C252.968 59.499 252.865 63.2914 252.866 67.0994C252.866 69.6804 253.465 71.7732 254.662 73.378C255.86 74.9831 257.356 75.7856 259.153 75.7856C260.256 75.7856 261.414 75.3371 262.627 74.4401C263.204 74.0364 263.686 73.5132 264.041 72.9062C264.396 72.2992 264.615 71.6228 264.684 70.9233C264.778 70.2313 264.849 69.6884 264.896 69.2946C264.944 68.9014 264.967 68.6575 264.967 68.5629L267 68.5629Z" fill="black"/>
<path d="M267 67.0879C266.842 71.9665 265.652 75.8768 263.431 78.8188C261.209 81.7612 258.57 83.2325 255.513 83.2328C253.023 83.2328 250.841 81.793 248.966 78.9133C247.091 76.0336 246.153 71.604 246.153 65.6245C246.153 64.3027 246.185 63.0438 246.248 61.8479C246.311 60.6522 246.389 59.5193 246.484 58.449L248.139 42.9178H237.219C235.328 62.556 233.776 74.2398 232.563 77.9692C231.349 81.6985 229.293 83.5632 226.394 83.5633C225.085 83.5312 223.837 83.0088 222.896 82.0999C222.35 81.6171 221.919 81.0195 221.633 80.3501C221.347 79.6806 221.213 78.9561 221.241 78.2288C221.241 76.7817 222.384 74.7597 224.668 72.1627C226.953 69.5663 228.222 67.198 228.474 65.058L231.31 42.9178H226.725C225.432 42.9255 224.16 43.2411 223.014 43.8383C221.959 44.3221 221.041 45.0602 220.343 45.9862L218.311 49.0075H216.656C218.2 44.2241 220.099 40.6285 222.352 38.2207C224.605 35.8131 227.197 34.6093 230.128 34.6093H266.244V42.9178H254.048C253.669 46.6944 253.378 50.471 253.173 54.2475C252.968 58.0241 252.865 61.8164 252.866 65.6245C252.866 68.2054 253.465 70.2983 254.662 71.9031C255.86 73.5082 257.356 74.3107 259.153 74.3106C260.256 74.3106 261.414 73.8621 262.627 72.9651C263.204 72.5615 263.686 72.0382 264.041 71.4312C264.396 70.8242 264.615 70.1478 264.684 69.4483C264.778 68.7564 264.849 68.2135 264.896 67.8196C264.944 67.4265 264.967 67.1826 264.967 67.0879H267Z" fill="#666AF6"/>
</svg>
